<?xml version="1.0" encoding="utf-8"?>
<!-- Generator: Adobe Illustrator 24.0.3, SVG Export Plug-In . SVG Version: 6.00 Build 0)  -->
<svg version="1.1" id="Capa_1" xmlns="http://www.w3.org/2000/svg" xmlns:xlink="http://www.w3.org/1999/xlink" x="0px" y="0px"
	 viewBox="0 0 75 153.5" style="enable-background:new 0 0 75 153.5;" xml:space="preserve">
<style type="text/css">
	.st0{fill:#020203;}
	.st1{fill:#020303;}
</style>
<g>
	<g>
		<path class="st0" d="M23.88,64.89c0,1.68-1.36,3.05-3.05,3.05c-1.68,0-3.05-1.37-3.05-3.05v-9.66c2.48-0.03,4.5-0.23,6.1-0.49
			V64.89z"/>
		<path class="st0" d="M16.45,64.89c0,1.68-1.37,3.05-3.05,3.05c-1.68,0-3.05-1.37-3.05-3.05V54.75c1.59,0.25,3.61,0.45,6.1,0.49
			V64.89z"/>
		<path class="st0" d="M26.23,32.2c-0.34-1.66-0.67-3.2-0.97-4.52h-0.93c1.44,6.42,3.8,18.03,3.8,25.04c0,0-3.39,1.62-11.02,1.62
			S6.09,52.71,6.09,52.71c0-7.01,2.36-18.62,3.8-25.04H8.97c-0.92,4.11-2.19,10.24-3,15.97c-0.17,0.04-0.34,0.08-0.52,0.08
			c-0.04,0-0.08,0-0.11,0c-1.14-0.06-2.01-1.03-1.94-2.17c0.4-7.29,1.67-12.37,3.34-15.89c0.33,0.08,0.67,0.13,1.01,0.13
			c1,0,2.5-0.33,3.97-1.93c1.24-1.34,1.45-3.25,1.52-5.06c0,0,0.01,0,0.01,0c1.16,0.61,2.47,0.95,3.87,0.95
			c1.4,0,2.71-0.35,3.87-0.95c3.41,1.44,6.09,4.86,7.76,10c1.42,0.55,4.81,1.56,9.22,0.91c1.13-0.16,2.17,0.62,2.34,1.74
			c0.16,1.13-0.62,2.17-1.74,2.34C31.88,34.76,27.12,32.63,26.23,32.2z"/>
		<path class="st0" d="M12.35,18.25c-0.05,1.82-0.17,3.76-1.3,4.99c-2.89,3.14-6.04,0.79-4.77,0.82c1.27,0.03,2.84-0.75,2.63-5.43
			c-0.07-1.63,0.16-2.87,0.57-3.81C10.11,16.21,11.11,17.4,12.35,18.25z"/>
		<ellipse transform="matrix(0.9221 -0.387 0.387 0.9221 -3.0576 7.5064)" class="st0" cx="17.11" cy="11.35" rx="7.5" ry="7.5"/>
	</g>
</g>
<g>
	<g>
		<path class="st1" d="M48.56,41.11v24.52c0,2.03,1.65,3.68,3.68,3.68s3.68-1.65,3.68-3.68V48.12h1.46v17.52
			c0,2.03,1.65,3.68,3.68,3.68s3.68-1.65,3.68-3.68V41.11C64.73,41.11,48.56,41.11,48.56,41.11z"/>
		<path class="st1" d="M44.23,45.35c0.04,0,0.08,0,0.12,0c1.27-0.06,2.25-1.15,2.19-2.41c-0.47-9.51,0.9-14.22,2.02-16.45v13.56
			h16.17V26.49c1.12,2.22,2.49,6.94,2.02,16.45c-0.06,1.27,0.92,2.35,2.19,2.41c0.04,0,0.08,0,0.12,0c1.22,0,2.24-0.96,2.3-2.19
			c0.52-10.49-0.98-17.9-4.33-21.42c-1.21-1.27-2.64-1.99-4.18-2.14c-0.08-0.01-0.16-0.01-0.24-0.01h-0.04
			c-0.1,0-0.19-0.01-0.28-0.01c-0.09,0-0.17,0.01-0.26,0.01H51.26c-0.09-0.01-0.17-0.01-0.26-0.01c-0.1,0-0.19,0.01-0.28,0.01h-0.04
			c-0.08,0-0.16,0.01-0.24,0.01c-1.54,0.15-2.97,0.87-4.18,2.14c-3.35,3.52-4.84,10.93-4.33,21.42
			C41.99,44.39,43.01,45.35,44.23,45.35z"/>
		<circle class="st1" cx="56.64" cy="11.08" r="7.27"/>
	</g>
</g>
<g>
	<g>
		<g>
			<path class="st0" d="M50.77,146.37c0,1.45,1.18,2.63,2.63,2.63c1.45,0,2.63-1.18,2.63-2.63v-12.88c-2.03-0.03-3.78-0.23-5.26-0.5
				V146.37z"/>
			<path class="st0" d="M56.91,146.37c0,1.45,1.18,2.63,2.63,2.63c1.45,0,2.63-1.18,2.63-2.63v-13.38c-1.48,0.27-3.23,0.47-5.26,0.5
				V146.37z"/>
			<circle class="st0" cx="16.73" cy="92.44" r="5.92"/>
			<path class="st0" d="M55.18,100.27c3.04,0.71,6.08-1.18,6.79-4.23c0.71-3.04-1.18-6.08-4.22-6.79c-3.04-0.71-6.08,1.18-6.79,4.23
				C50.25,96.52,52.14,99.56,55.18,100.27z"/>
			<path class="st0" d="M65.65,105.4c-2.18-2.55-4.27-3.14-4.89-3.25c-0.59-0.16-3.44-0.92-7.24-1.68
				c-2.73-0.55-5.93-1.09-9.15-1.42c0.03-0.13,0.05-0.26,0.06-0.39c0.05-1.16-0.84-2.15-2-2.2c-0.74-0.04-1.47-0.05-2.19-0.05
				c-9.39,0.01-17.01,2.73-18.88,3.45h-9.71c-0.02,0-0.05,0-0.07,0c-0.47,0-1.27,0.1-2.18,0.56c-1.42,0.7-2.94,2.24-4.01,4.96
				c-1.08,2.73-1.81,6.68-1.81,12.64c0,1.54,0.05,3.22,0.16,5.04c0.07,1.12,0.99,1.98,2.1,1.98c0.04,0,0.08,0,0.12,0
				c1.16-0.07,2.05-1.06,1.98-2.22c-0.1-1.75-0.15-3.34-0.15-4.8c-0.01-6.37,0.92-9.95,1.83-11.82v39.46c0,1.8,1.46,3.25,3.25,3.25
				c1.8,0,3.25-1.46,3.25-3.25v-23.75h1.22v23.75c0,1.8,1.46,3.25,3.25,3.25c1.8,0,3.25-1.46,3.25-3.25v-42.24
				c1.7-0.59,4.96-1.59,9.06-2.23c0.21,0.87,1.06,1.44,1.95,1.29c1.22-0.21,2.63-0.31,4.15-0.3c3.64,0,7.85,0.55,11.52,1.21
				l-5.46,26.82c0,0,0.06,0.03,0.17,0.09c0.82,0.44,4.67,2.27,11.23,2.27s10.41-1.84,11.23-2.27c0.11-0.06,0.17-0.09,0.17-0.09
				l-4.52-22.23c0.02,0.03,0.04,0.05,0.06,0.08c1.77,2.26,3.89,6.62,4.97,14.83c0.11,0.86,0.85,1.49,1.69,1.49
				c0.07,0,0.15,0,0.23-0.01c0.94-0.12,1.59-0.98,1.47-1.92C70.55,113.25,68.06,108.2,65.65,105.4z"/>
			<path class="st0" d="M30.66,147.13c0,1.16,0.94,2.1,2.1,2.1c1.16,0,2.1-0.94,2.1-2.1v-8.9h0.79v8.9c0,1.16,0.94,2.1,2.1,2.1
				c1.16,0,2.1-0.94,2.1-2.1v-13.74h-9.21V147.13z"/>
			<path class="st0" d="M42.4,136.56c0.01,0,0.02,0,0.03,0c0.79,0,1.43-0.63,1.45-1.42c0.01-0.39,0.01-0.76,0.01-1.13
				c0-5.53-0.96-8.78-2.06-10.73c-1.09-1.95-2.38-2.53-2.68-2.62c-0.06-0.02-0.13-0.04-0.19-0.05c-0.13-0.04-0.26-0.07-0.41-0.07
				h-1.59h-3.41h-1.59c-0.14,0-0.28,0.03-0.41,0.07c-0.06,0.01-0.13,0.03-0.19,0.05h0c-0.3,0.09-1.58,0.67-2.68,2.62
				c-1.1,1.95-2.06,5.19-2.06,10.73c0,0.36,0,0.74,0.01,1.13c0.02,0.79,0.66,1.41,1.45,1.41c0.01,0,0.02,0,0.04,0
				c0.8-0.02,1.43-0.68,1.41-1.48c-0.01-0.36-0.01-0.71-0.01-1.06c0-3.97,0.53-6.51,1.13-8.09v6.83h9.21v-6.83
				c0.59,1.58,1.12,4.12,1.12,8.09c0,0.34,0,0.7-0.01,1.06C40.96,135.88,41.6,136.54,42.4,136.56z"/>
			<circle class="st0" cx="35.26" cy="115.16" r="4.6"/>
		</g>
	</g>
</g>
</svg>
