<svg xmlns="http://www.w3.org/2000/svg" xmlns:xlink="http://www.w3.org/1999/xlink" id="Capa_1" x="0" y="0" version="1.1" viewBox="0 0 75 153.5" style="enable-background:new 0 0 75 153.5" xml:space="preserve"><style type="text/css">.st0{fill:#020202}.st1{fill:none;stroke-width:6;stroke-linecap:round;stroke-linejoin:round}.st1,.st2{stroke:#fff}.st2,.st3{fill:none;stroke-linecap:round;stroke-linejoin:round}.st2{stroke-width:2}.st3{stroke:#020203;stroke-width:7}.st4{stroke:#000;stroke-width:3;stroke-miterlimit:10}</style><g><ellipse cx="37.19" cy="113.68" class="st0" rx="32.89" ry="33.11"/><polyline points="37.19 93.81 37.19 113.68 50.35 120.3" class="st1"/><circle cx="37.19" cy="113.68" r="27.73" class="st2"/></g><line x1="6.55" x2="67.25" y1="66.98" y2="66.98" class="st3"/><g><path d="M11.83,41.49V18.83c-2.99,3.24-5.01,4.86-6.05,4.86c-0.5,0-0.93-0.28-1.32-0.83c-0.38-0.56-0.57-1.2-0.57-1.93 c0-0.85,0.19-1.47,0.57-1.87c0.38-0.4,1.04-0.91,2-1.54c1.43-0.95,2.57-1.94,3.42-2.99s1.61-2.22,2.27-3.51 c0.66-1.29,1.09-2.09,1.29-2.39s0.58-0.45,1.13-0.45c0.62,0,1.12,0.34,1.5,1.02c0.38,0.68,0.57,1.62,0.57,2.81v28.51 c0,3.34-0.81,5.01-2.42,5.01c-0.72,0-1.3-0.34-1.73-1.02C12.05,43.82,11.83,42.82,11.83,41.49z" class="st4"/><path d="M30.02,34.64h-5.59c-0.85,0-1.49-0.28-1.94-0.83c-0.44-0.56-0.66-1.27-0.66-2.15c0-0.9,0.21-1.62,0.65-2.18 c0.43-0.56,1.08-0.83,1.95-0.83h5.59c0.87,0,1.52,0.28,1.95,0.83c0.43,0.56,0.65,1.28,0.65,2.18c0,0.88-0.21,1.6-0.64,2.15 C31.55,34.36,30.9,34.64,30.02,34.64z" class="st4"/><path d="M41.5,41.49V18.83c-2.99,3.24-5.01,4.86-6.05,4.86c-0.5,0-0.93-0.28-1.32-0.83c-0.38-0.56-0.57-1.2-0.57-1.93 c0-0.85,0.19-1.47,0.57-1.87c0.38-0.4,1.04-0.91,2-1.54c1.43-0.95,2.57-1.94,3.42-2.99s1.61-2.22,2.27-3.51s1.09-2.09,1.29-2.39 s0.58-0.45,1.13-0.45c0.62,0,1.12,0.34,1.5,1.02s0.57,1.62,0.57,2.81v28.51c0,3.34-0.81,5.01-2.42,5.01c-0.72,0-1.3-0.34-1.73-1.02 C41.72,43.82,41.5,42.82,41.5,41.49z" class="st4"/><path d="M56.48,8.74h11.78c1.13,0,1.95,0.25,2.46,0.75s0.76,1.32,0.76,2.47c0,0.7-0.3,1.62-0.89,2.76 c-0.59,1.15-1.27,2.41-2.03,3.8s-1.54,3.11-2.35,5.17s-1.55,4.57-2.22,7.55c-0.28,1.31-0.48,2.4-0.6,3.26 c-0.12,0.86-0.25,1.98-0.39,3.36s-0.26,2.43-0.37,3.16c-0.25,1.69-0.6,2.87-1.05,3.52c-0.45,0.66-1.06,0.98-1.81,0.98 c-0.72,0-1.3-0.35-1.73-1.06c-0.44-0.71-0.65-1.75-0.65-3.12c0-1.06,0.16-2.51,0.48-4.33c0.32-1.83,0.84-4.01,1.56-6.56 s2.41-7.94,2.41-7.94c-0.62,2.02,1.41-4.52,3.13-7.91h-8.46c-0.99,0-1.73-0.25-2.22-0.76s-0.73-1.3-0.73-2.38 c0-1.15,0.26-1.88,0.78-2.22C54.83,8.91,55.55,8.74,56.48,8.74z" class="st4"/></g></svg>