<?xml version="1.0" encoding="utf-8"?>
<!-- Generator: Adobe Illustrator 24.0.3, SVG Export Plug-In . SVG Version: 6.00 Build 0)  -->
<svg version="1.1" id="Capa_1" xmlns="http://www.w3.org/2000/svg" xmlns:xlink="http://www.w3.org/1999/xlink" x="0px" y="0px"
	 viewBox="0 0 75 153.5" style="enable-background:new 0 0 75 153.5;" xml:space="preserve">
<style type="text/css">
	.st0{fill:#020203;}
	.st1{fill:#020303;}
</style>
<g>
	<g>
		<path class="st0" d="M45.42,149.14c0,2.41,1.95,4.36,4.36,4.36c2.41,0,4.36-1.95,4.36-4.36v-13.81c-3.55-0.04-6.44-0.33-8.72-0.69
			V149.14z"/>
		<path class="st0" d="M56.04,149.14c0,2.41,1.95,4.36,4.36,4.36c2.41,0,4.36-1.95,4.36-4.36v-14.5c-2.28,0.36-5.17,0.65-8.72,0.69
			V149.14z"/>
		<path class="st0" d="M42.05,102.39c0.49-2.38,0.96-4.57,1.39-6.46h1.33c-2.06,9.18-5.43,25.78-5.43,35.8c0,0,4.85,2.32,15.75,2.32
			s15.75-2.32,15.75-2.32c0-10.02-3.38-26.62-5.43-35.8h1.33c1.32,5.88,3.13,14.64,4.29,22.83c0.24,0.06,0.49,0.11,0.74,0.11
			c0.05,0,0.11,0,0.16,0c1.62-0.09,2.87-1.48,2.78-3.1c-0.57-10.42-2.38-17.68-4.78-22.71c-0.47,0.12-0.96,0.18-1.45,0.18
			c-1.43,0-3.58-0.48-5.67-2.76c-1.77-1.92-2.08-4.65-2.18-7.24c0,0-0.01,0-0.01-0.01c-1.66,0.87-3.54,1.36-5.53,1.36
			c-1.99,0-3.87-0.5-5.53-1.36c-4.88,2.05-8.71,6.95-11.1,14.3c-2.03,0.78-6.88,2.23-13.18,1.31c-1.61-0.23-3.11,0.88-3.34,2.49
			c-0.23,1.61,0.88,3.11,2.49,3.34C33.97,106.06,40.78,103.02,42.05,102.39z"/>
		<path class="st0" d="M61.9,82.46c0.08,2.6,0.24,5.37,1.86,7.14c4.13,4.49,8.63,1.13,6.82,1.18c-1.82,0.04-4.05-1.07-3.76-7.77
			c0.1-2.33-0.22-4.1-0.81-5.45C65.1,79.53,63.67,81.23,61.9,82.46z"/>
		
			<ellipse transform="matrix(0.387 -0.9221 0.9221 0.387 -33.1577 95.2852)" class="st0" cx="55.09" cy="72.58" rx="10.72" ry="10.72"/>
	</g>
</g>
<g>
	<g>
		<path class="st1" d="M11.16,56.57v35.32c0,2.93,2.37,5.3,5.3,5.3c2.92,0,5.3-2.37,5.3-5.3V66.65h2.1v25.24
			c0,2.93,2.37,5.3,5.3,5.3c2.93,0,5.3-2.37,5.3-5.3V56.57H11.16z"/>
		<path class="st1" d="M4.93,62.67c0.06,0,0.11,0,0.17,0c1.83-0.09,3.24-1.65,3.15-3.48C7.57,45.5,9.54,38.7,11.16,35.5v19.54h23.3
			V35.5c1.61,3.2,3.59,10,2.91,23.69c-0.09,1.83,1.32,3.39,3.15,3.48c0.06,0,0.11,0,0.17,0c1.76,0,3.23-1.38,3.31-3.16
			c0.75-15.12-1.41-25.78-6.23-30.85c-1.73-1.82-3.8-2.87-6.02-3.08c-0.12-0.01-0.23-0.02-0.35-0.02h-0.05
			c-0.14-0.01-0.27-0.02-0.41-0.02c-0.13,0-0.25,0.01-0.37,0.02h-15.5c-0.12-0.01-0.25-0.02-0.37-0.02c-0.14,0-0.27,0.02-0.41,0.02
			h-0.05c-0.12,0-0.24,0.01-0.35,0.02c-2.22,0.21-4.29,1.26-6.02,3.08C3.02,33.73,0.87,44.4,1.61,59.52
			C1.7,61.29,3.17,62.67,4.93,62.67z"/>
		<circle class="st1" cx="22.8" cy="13.31" r="10.47"/>
	</g>
</g>
</svg>
