<svg xmlns="http://www.w3.org/2000/svg" xmlns:xlink="http://www.w3.org/1999/xlink" id="Layer_1" x="0" y="0" enable-background="new 0 0 94.116 163.313" version="1.1" viewBox="0 0 94.116 163.313" xml:space="preserve"><g><path d="M41.9083,155.545c0,4.2891,3.4769,7.7677,7.7669,7.7677c4.2899,0,7.7667-3.4786,7.7667-7.7677v-24.611 c-6.3274-0.0786-11.4754-0.5901-15.5336-1.2365V155.545z"/><path d="M60.8377,155.545c0,4.2891,3.4786,7.7677,7.7687,7.7677c4.2881,0,7.7668-3.4786,7.7668-7.7677v-25.8474 c-4.0586,0.6465-9.2072,1.1579-15.5355,1.2365V155.545z"/><path d="M35.9093,72.2314c0.8712-4.2327,1.7197-8.1445,2.4753-11.52h2.3661c-3.6639,16.3566-9.6837,45.9459-9.6837,63.7982 c0,0,8.6387,4.1359,28.0737,4.1359s28.0736-4.1359,28.0736-4.1359c0-17.8523-6.0208-47.4415-9.6851-63.7982h2.3661 c2.3477,10.4848,5.5853,26.0878,7.6407,40.6959c0.4266,0.1122,0.8657,0.1914,1.3251,0.1914c0.0967,0,0.1943-0.0024,0.292-0.0078 c2.8955-0.1587,5.1133-2.6343,4.9551-5.5293c-1.0177-18.5692-4.2446-31.5103-8.5112-40.482 c-0.8311,0.2077-1.7131,0.3202-2.5788,0.3202c-2.5498,0.0005-6.374-0.853-10.1104-4.9199 c-3.148-3.426-3.6988-8.2863-3.8825-12.8976c-0.0078-0.0032-0.0156-0.0064-0.0234-0.0096 c-2.9545,1.542-6.3041,2.4271-9.8611,2.4271c-3.5549,0-6.9025-0.8841-9.8557-2.4241C40.5898,41.7353,33.758,50.4593,29.4999,63.567 c-3.624,1.395-12.2598,3.9673-23.4922,2.3315c-2.8711-0.4185-5.5342,1.5693-5.9521,4.439 c-0.418,2.8691,1.5693,5.5337,4.4385,5.9517C21.5055,78.7692,33.6452,73.3448,35.9093,72.2314z"/><path d="M71.2803,36.703c0.1356,4.6249,0.4335,9.5782,3.3207,12.7208c7.3596,8.0103,15.3817,2.0193,12.1457,2.0956 c-3.236,0.0762-7.2254-1.9059-6.6954-13.845c0.1843-4.1516-0.3977-7.3065-1.4523-9.7199 C76.9839,31.4888,74.4464,34.5126,71.2803,36.703z"/><ellipse cx="59.141" cy="19.1" rx="19.1" ry="19.1" transform="matrix(0.3827 -0.9239 0.9239 0.3827 18.8624 66.4294)"/></g></svg>