<svg xmlns="http://www.w3.org/2000/svg" xmlns:xlink="http://www.w3.org/1999/xlink" id="Layer_1" x="0" y="0" version="1.1" viewBox="0 0 83.55 184.75" style="enable-background:new 0 0 83.55 184.75" xml:space="preserve"><style type="text/css">.st0{fill:#010101}</style><g><path d="M18.96,105.21v69.17c0,5.73,4.65,10.38,10.38,10.38c5.73,0,10.37-4.65,10.37-10.38v-49.42h4.11v49.42 c0,5.73,4.65,10.38,10.38,10.38c5.73,0,10.38-4.65,10.38-10.38v-69.17H18.96z" class="st0"/><path d="M6.77,117.17c0.11,0,0.22,0,0.33-0.01c3.59-0.18,6.35-3.23,6.17-6.81c-1.32-26.81,2.54-40.12,5.7-46.39v38.25 h45.62V63.95c3.16,6.27,7.02,19.58,5.7,46.39c-0.18,3.59,2.59,6.64,6.17,6.81c0.11,0.01,0.22,0.01,0.33,0.01 c3.44,0,6.32-2.7,6.49-6.18c1.46-29.6-2.76-50.49-12.2-60.41c-3.4-3.57-7.44-5.62-11.79-6.03c-0.23-0.03-0.46-0.04-0.69-0.04h-0.11 c-0.27-0.01-0.53-0.04-0.8-0.04c-0.25,0-0.49,0.02-0.73,0.04H26.6c-0.24-0.03-0.48-0.04-0.73-0.04c-0.27,0-0.54,0.03-0.8,0.04 h-0.11c-0.23,0-0.46,0.02-0.69,0.04c-4.34,0.41-8.39,2.46-11.79,6.03C3.04,60.5-1.18,81.39,0.28,110.99 C0.45,114.46,3.33,117.17,6.77,117.17z" class="st0"/><circle cx="41.77" cy="20.5" r="20.5" class="st0"/></g></svg>