<svg xmlns="http://www.w3.org/2000/svg" xmlns:xlink="http://www.w3.org/1999/xlink" id="Capa_1" x="0" y="0" version="1.1" viewBox="0 0 75 153.5" style="enable-background:new 0 0 75 153.5" xml:space="preserve"><style type="text/css">.st0{fill:#020203}</style><g><path d="M70.96,89.75l-7.31-4.41v-3.63c0-7.26-4.73-12.97-10.75-12.97h-30.1c-6.02,0-10.75,5.71-10.75,12.97v3.63 l-7.31,4.41c-0.86,0.52-1.29,1.3-1.29,2.33v12.97c0,1.56,0.86,2.59,2.15,2.59s2.15-1.04,2.15-2.59V93.64l4.3-2.59v34.76 c0,2.33,0.86,4.41,2.15,5.71v4.67c0,4.41,2.79,7.78,6.45,7.78h4.3c3.65,0,6.45-3.37,6.45-7.78v-2.59h12.9v2.59 c0,4.41,2.79,7.78,6.45,7.78h4.3c3.65,0,6.45-3.37,6.45-7.78v-4.67c1.29-1.3,2.15-3.37,2.15-5.71V91.04l4.3,2.59v11.41 c0,1.56,0.86,2.59,2.15,2.59s2.15-1.04,2.15-2.59V92.08C72.25,91.04,71.82,90.27,70.96,89.75z M31.41,121.13 c-0.21,1.3-1.07,2.07-2.15,2.07c-0.21,0-0.43,0-0.43,0l-8.6-2.59c-1.07-0.26-1.93-1.82-1.5-3.11c0.21-1.3,1.5-2.33,2.58-1.82 l8.6,2.59C30.98,118.54,31.62,119.83,31.41,121.13z M55.49,120.61l-8.6,2.59c-0.21,0-0.43,0-0.43,0c-0.86,0-1.93-0.78-2.15-2.07 c-0.21-1.3,0.43-2.85,1.5-3.11l8.6-2.59c1.07-0.26,2.36,0.52,2.58,1.82C57.42,118.8,56.78,120.09,55.49,120.61z M59.36,103.23 c-13.97,5.71-29.02,5.71-43,0V81.71c0-4.41,2.79-7.78,6.45-7.78h30.1c3.65,0,6.45,3.37,6.45,7.78V103.23z" class="st0"/></g><g><path d="M64.98,13.85c-1.88-0.72-6.24-1.56-8.23-0.79L18.87,27.72L8.71,23.34c-0.58-0.32-1.24-0.24-1.83-0.01 l-1.6,0.62c-0.6,0.23-1.13,0.62-1.35,1.24c-0.28,0.47-0.03,1.1,0.15,1.57l12.65,14.97c0.64,0.47,1.62,0.64,2.42,0.33l12.74-4.93 l-2.56,12.91c-0.22,0.63,0.23,1.18,0.61,1.57c0.52,0.16,1.44,0.17,2.03-0.06l3.59-1.39c0.6-0.23,1.13-0.62,1.21-1.01l9.05-17.4 l15.78-6.11c2.19-0.85,9.24-4.3,10.15-6.09c1.11-1.87,1.29-3.75,0.69-5.32C71.83,12.65,66.99,14.34,64.98,13.85z" class="st0"/><path d="M25.81,21.42l12.54-4.85l-13.61-5.03c-0.52-0.16-1.18-0.09-1.77,0.14l-3.59,1.39 c-0.6,0.23-1.27,0.85-1.49,1.48c-0.02,0.55,0.17,1.02,0.55,1.41L25.81,21.42z" class="st0"/></g></svg>