<svg xmlns="http://www.w3.org/2000/svg" xmlns:xlink="http://www.w3.org/1999/xlink" id="Capa_1" x="0" y="0" version="1.1" viewBox="0 0 75 153.5" style="enable-background:new 0 0 75 153.5" xml:space="preserve"><style type="text/css">.st0{stroke:#010202;stroke-width:3;stroke-linecap:round;stroke-miterlimit:10}.st0,.st1{fill:#010202}</style><g><line x1="3.83" x2="72.01" y1="150.08" y2="150.08" class="st0"/></g><polygon points="4.48 97.11 20.61 55.56 36.54 81.35 49.64 32.62 70.43 2.81 69.86 95.42 51.37 79.77 37.46 96.59 19.6 97.41 4.48 118.93" class="st1"/><ellipse cx="21.09" cy="56.01" class="st1" rx="1.73" ry="1.61"/><ellipse cx="49.99" cy="32.04" class="st1" rx="1.73" ry="1.61"/><ellipse cx="36.54" cy="81" class="st1" rx="1.73" ry="1.61"/><ellipse cx="69.86" cy="4.45" class="st1" rx="1.73" ry="1.61"/><ellipse cx="5.16" cy="97.03" class="st1" rx="1.73" ry="1.61"/><polygon points="4.48 146.71 70.43 146.71 70.43 98.65 51.65 82.62 37.42 99.05 20.69 99.46 4.48 122.15" class="st1"/></svg>