<?xml version="1.0" encoding="utf-8"?>
<!-- Generator: Adobe Illustrator 24.0.3, SVG Export Plug-In . SVG Version: 6.00 Build 0)  -->
<svg version="1.2" baseProfile="tiny" xmlns="http://www.w3.org/2000/svg" xmlns:xlink="http://www.w3.org/1999/xlink" x="0px"
	 y="0px" viewBox="453.67 76 305.33 448" xml:space="preserve">
<g id="Background">
</g>
<g id="Belize">
	<path fill="#1D1D1B" d="M703.84,274.48l-2.53-7.24l-1.76-2.69l-1.88,1.61l1.67,1.57l0.52,3.8l-0.14,9.13l0.33-0.77l0.39-0.6
		l0.57-0.43l0.86-0.25l0.05,0.5l-0.05,1.55h1.03l-0.03-3.57l0.26-1.48L703.84,274.48z M663.09,250.79l-1.41-1.99l-2.8-2.06
		l-2.23-0.85l-1.02,0.64l-0.02,0.89l0.46,0.42l0.52,0.76l0.86,1.05l1.3,0.58l1.21-0.16l0.2,0.67l0.2,3.13l0.28,1.25l1.04,0.11
		l0.63-1.36l0.04-0.91l0.42-0.68L663.09,250.79z M703.21,243.05l-2.15-0.5l-1.81-0.05l-1.51,4.09l-0.08,0.96l1.15,0.14l1.39-0.76
		l1.67-1.43l1.26,1.92l-0.27,3.17l-1.17,2.96l-1.44,1.31l-1.9-0.26l-2.23-0.9l-1.53,0.13l-3.09,3.09l-2.62,1.85l-1.93,1.71
		l-1.2,2.39l-0.72,7.23l-1.39,5.33l-0.36,3.2l-0.21,0.54l-0.07,0.52l-0.19,0.5l-0.56,0.5l2.15,2.06l0.14-2.13l0.69-1.88l0.77-1.53
		l0.37-1.1l0.93-6.73l1.07-3.67l1.74-1.83l1.9-1.41l1.55-2.45l3,2.24l2.18-1.36l1.53-2.57l1.99-2.58l3.12-5.88l0.61-2.29l-0.92-3
		L703.21,243.05z M663.73,229.68l-2.08-1.68l1.93,8.35l1.33,3.57l0.76,1.46h1.03l-1.49-8.02L663.73,229.68z M661.2,218.95l1.39-4.89
		l-1.75,0.75l-8.56,5.61l-3.16,1.4l-0.83,0.89l-0.22,0.46l0.02,0.71l4.89-0.42l4.69-1.51L661.2,218.95z M640.36,245.24l-1.44-1.25
		l-1.12-2.28l-5.37-2.62l-1.83-1.84l-0.66-3.61l0.69-3.23l1.59-2.76l3.9-4.47l1.2-2.52l3.67-12.46l1.83-12.52l-0.91-3.89l6.23-11.74
		l0.02-0.05l2.58-1.68l5.66-13.84l0.49-2.36l2.12-3.61l0.48-2.36l1.2-13.81l-1.22-17.83l-0.5-0.82l-1.46,0.26l-1.54,0.64l-1.23,0.83
		l-1.14,1.8l-1.31,0.53l-1.08-0.36l0.04-1.64l0.67-0.65l3.44-1.41l2.99-2.2l0.83-1.39l0.29-2.11l-0.77-0.56l-1.78,0.23l-5.22,1.53
		l-4.55,3.02l-3.2,0.47l-1.98-0.6l-4.37-2.05l-3.38-0.44l-2.5,0.44l-2.37,1.07l-5,3.43l-2.53,2.73l-1.34,0.91l-1.16,0.07l-0.43-0.68
		l0.82-1.33l3.45-4.17l1.4-2.33l0.85-2.19l-7.22,3.12l-2.13-0.12l-1.72-2.36l1.1-2.17l11.68-8.04l2.96-3.69l-2.59-2.27v-0.55
		l-0.01,0l-0.96-0.16l-9.33,0.08l-1.15,0.31l-0.88,0.47l-0.88,0.14l-1.15-0.66l-1.45-1.34l-0.78-0.27l-1.02,0.26l-1.64,0.78
		l-3.01,1.04l-1.33,0.17l-1.56-0.41l-1.39-0.74l-1.51-0.16l-0.02,0.01l-1.33,0.99l-3.32,2.46l-0.65,0.63l-0.49,0.48l-0.79,1.64
		l-0.81,4.55l-1.36,3.62l-0.59,3.82l-0.52,1.72l-1.86,2.83l-4.66,5.13l-1.46,2.42l-0.57,2.56l-0.25,2.39l-0.14,0.55l-0.43,1.74
		l-1.52,2.27l0,0l-1.79,1.31l-4.4,2.01l-0.01,0.01l-0.97,0.69l-3.31,2.34l0.01,0l0.55,0.43l0.52,2.1l-0.51,1.69l-3.75,6.02
		l-0.41,1.5l-0.46,3.41l-0.47,1.62l-1.47,2.23l-0.01,0.01l-1.79,1.29l-2.06,1.14l-0.02,0.02l-0.05,0.04l-2.17,1.74l0,0.01
		l-0.72,1.37l-2.15,5.89l-0.01,0.01l-1.41,1.58l-7.7,5.53l0,0.01l-0.66,1.07l-0.68,3.34l-0.9,1.21l-0.01,0l-1.35,0.37l-6.04-3.39
		l-1.93-1.42l-2.06-4.23l-1.43-0.32l-1.71,0.35l-1.8-0.18l-2.53-1.87l-2.25-2.41l-2.48-2.15l-3.23-1.07l-12.52,4.35l-0.01,0.02
		l-3.21,4.39l-1.12,5.97l0.14,13.12v0.01l-0.36,9.02l-2.79,70.37l-5.46,137.77l-2.78,70.29l-0.06,1.48l-0.02,0.46v0.01l1.25,1.98
		l0.34-0.49l1.42-0.7l1.76-0.56l1.36-0.07l2.76-1.12l11.54,0.52l4.29-0.71l4.83-0.03l13.33,3.33l5.83-2.12v-0.01l0.55-3.53
		l-3.15-6.28l0.54-3.74l1.7-2.06l2.52-2l2.6-1.51l3.93-1.12l0.42-1.29l-0.11-1.67l0.35-1.67l0.67-0.94l0.74-0.78l1.67-1.37
		l1.46-0.81l1.29-0.5l0.93-0.75l0.66-2.62l0.74-1.17l0.9-0.95l0.76-0.39l2.63-0.47l2.13-1.4l1.43-2.29l0.55-3.13l-0.33-5.84
		l0.63-2.36l2.13-0.96l2.01-0.26l1.08-0.61l0.71-0.71l0.88-0.56l5.08-0.69l1.09-0.34l0.43-1.03l-0.06-2.65l0.19-0.54l0.53-0.16
		l1.26-0.24l1.27,0.11l0.58,0.84l0.94,1.95l2.08,1.26l2.12-0.49l1.04-3.28h1.03v6.27l0.71-2.4l0.32-0.59l0.69-0.36l1.82-0.4
		l0.67-0.36l0.41-0.09l1.24,0.19l0.42-0.09l0.1-0.44l-0.21-1.27l0.11-0.44l0.42-0.72l0.62-1.98l0.46-0.8l3.96-5.02l1.18-0.64
		l0.59-0.73l1.93-4.5l0.6-0.75l0.19-0.38l0.3-0.32l0.97-0.62l-0.01,0.27l0.5,0.25l0.8-0.01l0.86-0.51l-0.06-0.73l0.27-3.59l0.3-0.83
		l2.83-1.25l3.08-5.97l2.83-2.04l-0.54-1.07l-0.42-0.83l0.27-1.81l1.13-1.52l1.61-1.04v-0.94l-1.59,0.05l-0.8-0.16l-0.38-0.63
		l-0.32-1.32l1.39,0.58l0.93,0.14l0.8-0.22l1.01-0.49l-2.09-0.97l-1-0.16l3.27-3.68l4.07-9.87l3.97-1.97l-0.96,1.52l-2.54,2.59
		l-4.73,17.13l0.46,2.34l1.02-0.09l1.07-1.33l0.63-1.38l-1.01-3.8l0.53-2.66l0.82-1.88l1.73-6.16l1.5-1.91l1.32-1.31l0.93-1.64
		l1.38-10.67l-0.16-1.48l-0.71-2.38l-0.16-1.81l0.33-1.57l0.74-1.02l0.74-0.75l0.33-0.73l0.31-1.36l0.77-0.92l1.91-1.46l0.63-0.11
		l1.99,0.26l0.56-0.15l0.14-0.87l-0.39-0.69l-0.52-0.4l-0.26-0.01l-0.59-2.6l-2.94-4.45l-0.68-2.77l0.74-2.42l1.74-2.62l2.05-2.29
		l1.65-1.47l1.5-0.51l1.33,0.02l0.94-0.38l0.36-1.75l-0.87-3.68l-0.38-4.77l-0.72-3.27l-1.25-2.92l-1.83-2.29l-3.22-1.04l-1.42-0.78
		l-0.59-1.88l-0.79-3.47l-0.12-1.33l-0.03-0.3l-0.58-2.88l-1.06-3.17l0.53-5.92l0.16-3.16l1.46-15.29l6.24-19.95l0.38-2.34
		l1.75-1.36l3.86,0.56l3.88,0.03l1.83-2.93l-1.42-1.24L640.36,245.24z M677.71,163l1.22-1.03l0.33-1.57l-0.45-0.43l-0.86,0.35
		l-0.46,0.03l-0.76,0.49l-1.09,1.48l0.44,0.95L677.71,163z M680.21,160.72l0.53,0.1l1.25-0.9l0.88-1.56l-0.11-1.62l-0.36-0.61
		l-0.24,0.22l-0.29,0.56l-0.27,0.83l-0.79,0.66l-0.78,0.41l-0.25,0.53l0.24,0.6L680.21,160.72z M686.09,176.61l1.19-6.51h-0.93
		l-0.22,1.33l-0.34,0.91l-1.41,1.97l-1.12-2.15v-1.03l1.27-0.61l0.87-0.8l0.57-1.13l0.37-1.58l1.02,0.45l1.04,0.68l1.46-2.72
		l3.08-8.11l1.11-1.71l1.99-1.76l0.25-3.35l-1.51-2.06l-3.31,2.11l-2.37-0.97l-1.48,1.35l-2.23,7.93l-0.09,1.47L685,161.5
		l-0.71,0.71l-0.71,0.54l-0.32,0.66l-2.78,9.42l-0.64,4.68l2.39-0.12l-0.78,3.88l-1.96,2.64l-5.49,3.77l-0.5,0.05l-1.56-0.05v1.03
		l6.51-1.71l4.71-4.4L686.09,176.61z M668.77,169.29l-0.35,2.65l1.23-2.4L668.77,169.29z M665.25,197.02l1.25-0.52l-1.65-0.26
		l-2.35-0.19l0.94,1.25L665.25,197.02z M667.1,217.39l-0.84,2.4l-0.09,2.48l0.93-2.15V217.39z M659.02,296.07v1.29l0.35-0.05
		l-0.02-0.31l0.84-0.61l0.52-1l-1.03-0.61L659.02,296.07z M746.56,297.74l0.6,0.19l0.28-0.29l-0.69-0.44L746.56,297.74z
		 M668.01,323.52l0.4,0.87l0.38,0.1l-0.37-1.61L668.01,323.52z M664.36,328.12l0.29,0.22l1.88-0.75l-1.22-0.21L664.36,328.12z
		 M659.28,343.52l0.31,1.05l0.72-1.4l-0.93,0.39L659.28,343.52z M658.72,342.89l0.35,0.56l0.21,0.08l-0.77-2.61L658.72,342.89z
		 M656.81,351.13l0.52,0.73l0.15,0.44l0.33-0.02l-0.48-2.08L656.81,351.13z M703.61,366.08l1.29-0.45l0.87-1.48l-1.43,0.84
		L703.61,366.08z M647.26,373.76l0.17,0.57l0.09,0.66l0.43,0.47l-0.14-2.06L647.26,373.76z M630.02,397.06l-0.72,1.18l0.34,0.12
		l0.5-0.24l1.62-0.19l-0.43-0.79L630.02,397.06z M666.82,409.81l0.49-0.07l-0.23-0.49L666.82,409.81z M644.57,442.57l0.05-0.14
		l-0.2-0.41L644.57,442.57z M634.33,459.36l0.38,0.39l0.04-0.09l-0.03-0.49L634.33,459.36z M624.29,451.58l-0.02-0.11l-0.29,0.13
		l0.16,0.23l0.01-0.01l0.06,0.08l0.19-0.09l-0.04-0.26L624.29,451.58z M645.35,242.36h-0.31l0.19,0.86l0.21,1.12l0.07,0.74
		l0.18-0.25l0.33-0.09l0.66-0.59l0.07-0.79l-0.49-0.93L645.35,242.36z M750.37,256.76l-1.6-0.24l-1.28,1.04l0.03,0.87l2.21,0.97
		l0.76-0.38l0.49-1.03L750.37,256.76z M659.75,342.04l0.21,0.76l0.7-1.83l0.05-1.92l-1.04,1.19L659.75,342.04z M670.06,205.89
		l-0.75,0.09l-0.76,1.39l-0.14,1.75l-0.28,1.4l0.75,0.65l0.09,1.02l-0.63,0.84l-0.67-0.27l-0.58,1.45l0.28,0.82l2.3-2.45l-0.47-2.59
		l0.23-2.71L670.06,205.89z M736.37,298.2l-0.19,2.36l0.61-1.65l1.64-1.84l0.09-0.94l-1.13-0.7L736.37,298.2z M668.72,311.76
		l-0.23-0.72l-2.53,0.24l-0.92,2.33l1.03-0.68l1.63-0.07l0.62,0.07L668.72,311.76z M568.43,445.58l-0.02-0.55l-1.11,1.31l-0.09,0.75
		l-0.71,0.35l0.42,0.56l0.65,0.58l0.53-0.72l0.28-0.55l0.78-0.68l-1.04-0.76L568.43,445.58z M650.19,245.89l-0.93,0.12l0.28,1.32
		l0.63,0.87l0.97,0.91l0.47-2.06l-0.26-0.44L650.19,245.89z M663.81,265.26l-1.12,0.79l0.16,1l1.05,1.5l1.13-1.14L663.81,265.26z
		 M660.62,280l-0.47,1.5l-0.09,2.87l0.37,1.17l0.19-0.14l0.89-1.43l0.36-2.6l-0.77-1.62L660.62,280z M647.38,239.79l-0.28-1.19
		l-0.73,0.78l-0.94,1.74l0.07,1.14l0.85-0.65l0.7-1.25L647.38,239.79z"/>
</g>
<g id="copyright">
</g>
</svg>
