<?xml version="1.0" encoding="UTF-8"?>
<!-- Generated by Pixelmator Pro 3.1.1 -->
<svg width="792" height="431" viewBox="0 0 792 431" xmlns="http://www.w3.org/2000/svg" xmlns:xlink="http://www.w3.org/1999/xlink">
    <path id="SV-AH" fill="#42639e" stroke="none" d="M 102.701202 128.751526 L 105.201202 129.941528 L 107.6912 131.131531 L 110.311203 133.091522 L 111.681198 136.281525 L 112.921204 136.221527 L 114.061203 137.791534 L 119.621201 137.791534 L 121.991203 138.461517 L 126.341202 138.301514 L 126.341202 138.301514 L 129.061203 138.41153 L 130.121201 139.541534 L 131.861206 139.40152 L 132.991196 144.861511 L 133.621201 145.701538 L 140.071198 149.091522 L 141.051193 150.101532 L 141.601196 151.601532 L 141.071198 158.091522 L 136.051193 165.001526 L 135.231201 170.481537 L 133.221207 173.951538 L 133.421204 176.561523 L 133.031204 178.101517 L 129.331207 183.621521 L 127.521202 184.061523 L 127.521202 184.061523 L 126.5112 182.681519 L 123.591202 181.871521 L 122.861198 180.76152 L 120.351196 184.421509 L 117.291199 185.951523 L 113.921204 186.291519 L 112.751198 187.551514 L 114.961197 196.611511 L 117.421204 201.021515 L 117.731201 202.39151 L 114.461197 208.041519 L 111.171204 210.821518 L 109.851196 212.551514 L 108.711197 217.121521 L 108.671204 219.091522 L 110.051201 225.291519 L 111.971199 230.801514 L 107.7612 231.221512 L 106.791199 232.131516 L 106.411201 237.111511 L 103.891197 242.89151 L 103.961197 246.15152 L 102.151199 249.521515 L 99.911194 258.621521 L 98.361198 261.541504 L 93.721199 262.201508 L 91.821198 261.981506 L 88.221199 258.601501 L 85.591194 257.071503 L 81.121193 255.421509 L 79.451195 253.191513 L 72.291199 246.971512 L 71.111198 247.071518 L 69.221199 248.851517 L 67.291199 249.181519 L 63.431194 255.951508 L 61.191196 257.211517 L 59.881195 259.66153 L 57.061195 260.991516 L 57.061195 260.991516 L 54.531197 259.16153 L 52.011196 258.511505 L 43.091194 254.001511 L 31.101196 248.741516 L 29.571196 247.911514 L 29.481195 247.271515 L 30.291197 248.01152 L 34.081196 248.65152 L 36.781197 250.591522 L 40.831196 251.601517 L 40.481197 250.681519 L 39.481197 250.131516 L 37.131195 250.40152 L 35.521194 249.301514 L 34.621197 248.371521 L 35.161198 247.64151 L 33.351196 247.361511 L 32.361195 247.541519 L 29.931196 245.331512 L 27.861197 245.611511 L 27.771196 246.531509 L 27.321196 246.621521 L 16.411196 241.741516 L 14.881196 241.461517 L 12.811196 240.171509 L 13.081196 239.711517 L 12.541196 238.971512 L 10.551196 239.431519 L 0.731196 235.371521 L 2.731196 234.741516 L 6.211196 236.451523 L 7.471196 236.161514 L 9.471196 233.441513 L 10.041196 231.591522 L 11.461196 231.431519 L 12.041196 230.221512 L 11.711196 229.39151 L 9.901196 229.021515 L 6.801197 223.491516 L 4.361197 224.201523 L 3.671196 223.291519 L 4.161196 216.951523 L 4.911196 215.441513 L 5.771196 214.26152 L 6.801197 213.421509 L 6.601196 212.111511 L 7.371196 211.521515 L 5.681196 204.351517 L 8.631196 202.061523 L 10.311196 200.111511 L 12.461196 195.611511 L 13.241196 195.421509 L 14.461196 193.721512 L 15.491196 190.731522 L 19.641195 189.551514 L 20.001196 188.591522 L 20.441196 187.40152 L 20.991196 186.691513 L 27.441196 185.64151 L 29.841196 183.981522 L 31.081196 181.64151 L 30.041197 177.411514 L 30.181196 176.781509 L 32.211197 175.961517 L 32.691196 174.601532 L 32.571198 170.581512 L 34.241196 170.711517 L 34.861195 169.771515 L 37.751198 168.711517 L 39.571198 167.91153 L 39.911198 166.721527 L 41.881195 165.011536 L 45.021194 163.881531 L 45.601196 163.111511 L 46.791195 162.921509 L 49.121197 162.481537 L 50.571198 160.741516 L 54.251198 159.211517 L 55.681194 157.561523 L 54.921196 155.91153 L 55.161198 155.481537 L 55.811195 155.881531 L 58.191196 155.441528 L 61.331196 153.561523 L 62.641197 150.961517 L 64.221199 150.66153 L 64.611198 148.791534 L 65.411194 147.581512 L 70.781197 145.251526 L 73.621193 138.89151 L 73.451195 137.691528 L 74.841194 137.091522 L 75.111198 136.101532 L 76.301193 135.041534 L 83.001198 134.501526 L 84.671196 135.231537 L 86.151199 135.231537 L 87.311195 134.461517 L 88.991196 131.881531 L 90.471199 130.65152 L 93.001198 130.191528 L 96.161194 128.801514 L 98.341194 128.771515 L 99.021194 128.231537 Z"/>
    <path id="SV-CA" fill="#42639e" stroke="none" d="M 486.201202 143.201538 L 493.0112 148.381531 L 494.691193 148.451538 L 497.02121 147.001526 L 498.991211 147.341522 L 502.471191 151.031525 L 505.371185 155.871521 L 506.811188 156.591522 L 515.711182 155.14151 L 519.041199 155.571533 L 520.061218 155.821533 L 525.421204 158.871521 L 528.601196 162.191528 L 528.671204 163.961517 L 525.431213 169.40152 L 524.061218 174.66153 L 525.061218 176.951523 L 523.961182 179.211517 L 529.221191 189.831512 L 529.671204 191.90152 L 529.041199 194.241516 L 529.601196 196.351517 L 530.991211 196.791519 L 530.991211 196.791519 L 529.451172 200.171509 L 529.76123 203.441513 L 528.291199 206.301514 L 528.621216 210.341522 L 524.581177 214.64151 L 523.671204 216.15152 L 523.651184 217.321518 L 524.731201 219.981522 L 524.341187 222.211517 L 522.771179 224.301514 L 522.241211 225.90152 L 520.271179 226.841522 L 519.161194 229.251511 L 519.061218 231.341522 L 520.841187 234.671509 L 520.611206 236.071518 L 519.821228 236.441513 L 519.821228 236.441513 L 518.381226 234.671509 L 517.431213 234.541519 L 515.491211 235.411514 L 514.031189 235.311523 L 511.651215 236.201523 L 508.75119 236.351517 L 506.941193 235.611511 L 505.641205 236.361511 L 499.7612 236.421509 L 498.801208 233.501511 L 497.721191 233.071518 L 496.291199 231.621521 L 496.831207 227.801514 L 492.7612 227.831512 L 490.041199 226.781509 L 486.831207 224.461517 L 482.231201 224.101517 L 479.651215 222.441513 L 479.291199 220.65152 L 476.431213 219.601517 L 475.621185 219.801514 L 473.321198 221.881516 L 468.391205 221.881516 L 466.411194 220.461517 L 461.27121 222.051514 L 459.081207 221.351517 L 457.401215 222.191513 L 456.491211 221.64151 L 454.931213 218.531509 L 454.321198 219.591522 L 453.701202 219.771515 L 451.301208 218.791519 L 449.891205 218.941513 L 447.571198 218.131516 L 446.171204 218.691513 L 445.181213 220.331512 L 442.951202 219.731522 L 440.491211 220.39151 L 432.711212 224.911514 L 429.341187 225.091522 L 425.331207 224.321518 L 423.481201 224.51152 L 421.181213 223.681519 L 415.481201 224.26152 L 414.061188 225.241516 L 410.921204 229.14151 L 410.141205 229.301514 L 410.141205 229.301514 L 409.25119 229.301514 L 408.101196 228.581512 L 406.701202 226.121521 L 400.25119 220.751511 L 397.631195 219.811523 L 395.141205 220.271515 L 393.921204 220.01152 L 393.141205 215.681519 L 391.77121 214.301514 L 390.101196 213.521515 L 389.421204 212.541519 L 389.601196 210.631516 L 388.5112 206.64151 L 385.25119 204.171509 L 383.341187 202.071518 L 382.491211 201.821518 L 380.441193 202.341522 L 377.781189 200.841522 L 372.541199 196.781509 L 370.171204 193.881516 L 369.681213 193.89151 L 369.711212 189.201523 L 370.491211 185.611511 L 376.621185 179.681519 L 381.371185 170.791534 L 381.371185 170.791534 L 383.491211 171.941528 L 384.041199 173.301514 L 383.831207 174.311523 L 384.7612 174.511536 L 387.391205 176.701523 L 387.781189 176.661514 L 387.731201 175.76152 L 386.851196 174.061523 L 385.921204 173.291534 L 387.361206 171.591522 L 390.121185 170.331512 L 391.121185 170.451538 L 391.221191 171.39151 L 392.091187 171.311523 L 391.711212 172.211517 L 392.291199 172.571533 L 393.461212 172.14151 L 396.081207 172.421509 L 397.801208 173.441528 L 402.441193 173.251526 L 404.351196 172.101532 L 406.861206 171.441528 L 407.831207 172.181519 L 410.541199 170.031525 L 412.601196 169.211517 L 413.561188 166.841522 L 416.831207 166.461517 L 417.141205 166.831512 L 416.321198 168.781525 L 418.431213 167.591522 L 421.581207 167.111511 L 424.171204 163.831512 L 425.311188 163.521515 L 426.75119 161.871521 L 426.931213 163.431519 L 427.581207 163.861511 L 431.461212 161.781525 L 432.241211 161.821533 L 432.831207 162.471527 L 433.591187 162.371521 L 435.431213 160.921509 L 441.161194 157.90152 L 442.171204 156.981537 L 443.281189 154.89151 L 446.52121 153.561523 L 447.851196 151.951538 L 451.211212 151.301514 L 455.281189 151.181519 L 468.681213 146.89151 L 469.101196 145.521515 L 469.101196 145.521515 L 471.241211 146.821533 L 472.241211 146.591522 L 475.361206 144.371521 L 478.111206 145.431519 L 479.331207 144.281525 L 482.541199 144.731537 L 483.681213 143.281525 Z"/>
    <path id="SV-CH" fill="#42639e" stroke="none" d="M 320.171204 37.501526 L 325.671204 37.071533 L 335.681213 34.421509 L 337.2612 34.531525 L 340.051208 36.801514 L 348.661194 40.511505 L 351.641205 40.731506 L 355.701202 43.541534 L 357.171204 46.821533 L 358.031189 53.011505 L 355.981201 56.701508 L 356.821198 58.531525 L 368.861206 66.191528 L 374.0112 74.66153 L 373.931213 76.051514 L 372.75119 77.381531 L 373.491211 78.791534 L 376.401215 79.39151 L 379.911194 82.14151 L 389.101196 82.291534 L 395.391205 81.831512 L 398.661194 85.671509 L 403.371185 87.831512 L 407.791199 88.981506 L 409.601196 90.281525 L 413.531189 100.621521 L 417.961212 107.931519 L 424.101196 121.761505 L 426.721191 123.40152 L 429.471191 123.66153 L 435.851196 122.991516 L 443.581207 121.271515 L 445.581207 121.211517 L 447.551208 121.951508 L 452.151215 126.431519 L 457.311188 134.701538 L 459.2612 136.941528 L 466.651215 144.091522 L 469.101196 145.521515 L 469.101196 145.521515 L 468.681213 146.89151 L 455.281189 151.181519 L 451.211212 151.301514 L 447.851196 151.951538 L 446.52121 153.561523 L 443.281189 154.89151 L 442.171204 156.981537 L 441.161194 157.90152 L 435.431213 160.921509 L 433.591187 162.371521 L 432.831207 162.471527 L 432.241211 161.821533 L 431.461212 161.781525 L 427.581207 163.861511 L 426.931213 163.431519 L 426.75119 161.871521 L 425.311188 163.521515 L 424.171204 163.831512 L 421.581207 167.111511 L 418.431213 167.591522 L 416.321198 168.781525 L 417.141205 166.831512 L 416.831207 166.461517 L 413.561188 166.841522 L 412.601196 169.211517 L 410.541199 170.031525 L 407.831207 172.181519 L 406.861206 171.441528 L 404.351196 172.101532 L 402.441193 173.251526 L 397.801208 173.441528 L 396.081207 172.421509 L 393.461212 172.14151 L 392.291199 172.571533 L 391.711212 172.211517 L 392.091187 171.311523 L 391.221191 171.39151 L 391.121185 170.451538 L 390.121185 170.331512 L 387.361206 171.591522 L 385.921204 173.291534 L 386.851196 174.061523 L 387.731201 175.76152 L 387.781189 176.661514 L 387.391205 176.701523 L 384.7612 174.511536 L 383.831207 174.311523 L 384.041199 173.301514 L 383.491211 171.941528 L 381.371185 170.791534 L 381.371185 170.791534 L 377.741211 169.791534 L 377.431213 171.451538 L 378.041199 173.041534 L 376.671204 172.551514 L 376.2612 173.761536 L 375.191193 174.701538 L 374.661194 174.091522 L 373.211212 173.771515 L 374.121185 171.951538 L 372.961212 172.16153 L 372.611206 171.681519 L 373.831207 171.201538 L 373.691193 170.831512 L 372.071198 171.091522 L 370.871185 172.771515 L 369.931213 172.591522 L 368.731201 173.051514 L 368.631195 173.921509 L 372.441193 174.481537 L 373.551208 175.051514 L 373.27121 176.631516 L 374.77121 180.711517 L 374.2612 181.031509 L 371.951202 177.541519 L 370.52121 177.541519 L 369.491211 180.601517 L 367.661194 182.101517 L 368.661194 178.601517 L 367.741211 176.671509 L 367.151215 176.431519 L 365.121185 179.531509 L 365.891205 175.381516 L 363.791199 173.681519 L 362.921204 171.531525 L 363.161194 170.811523 L 361.531189 170.501526 L 360.451202 169.14151 L 360.441193 168.301514 L 359.881195 168.011536 L 357.151215 170.41153 L 358.381195 168.101532 L 358.50119 165.841522 L 357.691193 164.441528 L 355.931213 164.531525 L 355.621185 164.171509 L 357.151215 162.561523 L 357.7612 160.431519 L 356.181213 158.40152 L 354.301208 159.15152 L 353.151215 158.701538 L 355.301208 157.331512 L 355.311188 156.361511 L 354.371185 155.791534 L 355.231201 154.511536 L 355.101196 153.90152 L 353.381195 154.41153 L 352.821198 155.041534 L 351.151215 154.231537 L 350.841187 155.581512 L 350.341187 155.811523 L 349.581207 154.231537 L 347.561188 155.311523 L 346.081207 154.921509 L 346.171204 154.15152 L 348.571198 153.111511 L 349.061188 150.021515 L 349.5112 149.581512 L 350.551208 149.441528 L 351.381195 150.381531 L 353.151215 151.071533 L 353.731201 150.801514 L 352.821198 149.321533 L 352.951202 148.491516 L 350.981201 146.681519 L 350.5112 146.711517 L 350.101196 147.551514 L 349.131195 147.121521 L 349.831207 145.90152 L 349.131195 145.41153 L 349.191193 143.211517 L 348.7612 143.041534 L 348.5112 144.14151 L 347.201202 144.421509 L 347.921204 146.181519 L 343.851196 146.351532 L 343.52121 145.701538 L 345.601196 143.15152 L 341.951202 143.481537 L 343.231201 141.631531 L 344.821198 140.741516 L 344.171204 140.181519 L 341.811188 140.39151 L 342.081207 138.211517 L 340.111206 140.261536 L 339.311188 138.681519 L 338.701202 138.66153 L 336.831207 137.16153 L 336.041199 137.071533 L 334.531189 138.361511 L 332.651215 137.691528 L 332.131195 138.981537 L 333.581207 140.601532 L 332.991211 141.361511 L 331.531189 140.601532 L 330.581207 139.481537 L 329.211212 139.171509 L 328.181213 137.701538 L 326.571198 136.771515 L 326.621185 134.981537 L 323.691193 132.281525 L 322.931213 130.671509 L 322.00119 130.571533 L 320.541199 131.64151 L 319.871185 132.781525 L 319.871185 132.781525 L 318.981201 133.101532 L 319.361206 131.291534 L 317.821198 131.981537 L 317.081207 133.971527 L 314.941193 134.821533 L 313.181213 138.051514 L 311.131195 138.121521 L 309.211212 138.791534 L 308.781189 137.581512 L 306.471191 135.481537 L 306.981201 133.581512 L 306.561188 131.941528 L 305.141205 130.751526 L 304.331207 130.711517 L 301.541199 132.181519 L 299.291199 134.601532 L 296.281189 135.771515 L 295.161194 135.941528 L 292.091187 133.821533 L 286.431213 132.871521 L 284.991211 133.481537 L 284.401215 135.251526 L 281.101196 136.121521 L 279.671204 135.601532 L 278.221191 137.381531 L 278.221191 137.381531 L 277.291199 136.681519 L 276.361206 134.131531 L 275.081207 133.471527 L 274.25119 133.631531 L 273.201202 134.741516 L 271.971191 134.541534 L 270.031189 135.41153 L 268.861206 135.331512 L 268.371185 134.65152 L 267.671204 129.711517 L 266.491211 128.821533 L 265.25119 128.871521 L 261.881195 129.39151 L 258.031189 133.131531 L 254.731201 134.611511 L 252.961197 134.621521 L 251.101196 133.64151 L 249.921204 133.91153 L 249.021194 135.131531 L 248.691193 137.65152 L 247.121201 139.271515 L 246.791199 141.531525 L 246.281204 141.761536 L 244.251205 140.621521 L 241.781204 141.591522 L 241.781204 141.591522 L 238.121201 140.701538 L 233.831207 141.431519 L 231.091202 139.571533 L 228.231201 139.351532 L 227.441193 138.341522 L 227.951202 134.621521 L 227.101196 131.761536 L 228.191193 130.361511 L 227.471207 127.261505 L 227.791199 125.421509 L 229.051193 124.451508 L 229.731201 122.91153 L 231.631195 121.581512 L 231.521194 119.841522 L 234.361206 118.90152 L 235.391205 117.441528 L 235.151199 114.251526 L 234.431198 112.191528 L 233.201202 111.281525 L 233.421204 110.531525 L 234.751205 109.281525 L 235.651199 107.15152 L 239.601196 106.461517 L 245.361206 101.321533 L 245.501205 99.871521 L 246.921204 99.321533 L 246.991196 96.811523 L 248.131195 94.941528 L 252.921204 94.341522 L 254.571198 94.591522 L 256.371185 94.16153 L 257.431213 93.121521 L 260.711212 93.251526 L 263.461212 91.271515 L 264.311188 85.851532 L 263.081207 81.981506 L 264.531189 77.931519 L 264.211212 76.791534 L 262.871185 75.14151 L 262.821198 73.721527 L 262.00119 72.291534 L 262.141205 70.541534 L 263.701202 69.551514 L 265.961212 69.881531 L 268.25119 68.181519 L 269.491211 68.491516 L 270.461212 68.081512 L 272.691193 69.101532 L 277.601196 66.111511 L 279.701202 63.211517 L 279.50119 61.991516 L 280.071198 61.321533 L 279.581207 60.121521 L 279.7612 56.951508 L 281.421204 55.16153 L 282.721191 52.521515 L 282.851196 50.211517 L 283.591187 48.571533 L 283.161194 46.041534 L 284.601196 44.351532 L 285.231201 42.631531 L 284.861206 41.541534 L 283.231201 40.001526 L 270.401215 30.731506 L 266.301208 24.261505 L 252.901199 9.91153 L 251.841202 9.41153 L 251.841202 9.41153 L 252.151199 8.961517 L 258.221191 14.371521 L 268.901215 19.761505 L 281.671204 23.081512 L 292.991211 23.811523 L 298.571198 26.481506 L 308.5112 35.341522 L 315.641205 37.41153 Z"/>
    <path id="SV-CU" fill="#42639e" stroke="none" d="M 319.871185 132.781525 L 320.541199 131.64151 L 322.00119 130.571533 L 322.931213 130.671509 L 323.691193 132.281525 L 326.621185 134.981537 L 326.571198 136.771515 L 328.181213 137.701538 L 329.211212 139.171509 L 330.581207 139.481537 L 331.531189 140.601532 L 332.991211 141.361511 L 333.581207 140.601532 L 332.131195 138.981537 L 332.651215 137.691528 L 334.531189 138.361511 L 336.041199 137.071533 L 336.831207 137.16153 L 338.701202 138.66153 L 339.311188 138.681519 L 340.111206 140.261536 L 342.081207 138.211517 L 341.811188 140.39151 L 344.171204 140.181519 L 344.821198 140.741516 L 343.231201 141.631531 L 341.951202 143.481537 L 345.601196 143.15152 L 343.52121 145.701538 L 343.851196 146.351532 L 347.921204 146.181519 L 347.201202 144.421509 L 348.5112 144.14151 L 348.7612 143.041534 L 349.191193 143.211517 L 349.131195 145.41153 L 349.831207 145.90152 L 349.131195 147.121521 L 350.101196 147.551514 L 350.5112 146.711517 L 350.981201 146.681519 L 352.951202 148.491516 L 352.821198 149.321533 L 353.731201 150.801514 L 353.151215 151.071533 L 351.381195 150.381531 L 350.551208 149.441528 L 349.5112 149.581512 L 349.061188 150.021515 L 348.571198 153.111511 L 346.171204 154.15152 L 346.081207 154.921509 L 347.561188 155.311523 L 349.581207 154.231537 L 350.341187 155.811523 L 350.841187 155.581512 L 351.151215 154.231537 L 352.821198 155.041534 L 353.381195 154.41153 L 355.101196 153.90152 L 355.231201 154.511536 L 354.371185 155.791534 L 355.311188 156.361511 L 355.301208 157.331512 L 353.151215 158.701538 L 354.301208 159.15152 L 356.181213 158.40152 L 357.7612 160.431519 L 357.151215 162.561523 L 355.621185 164.171509 L 355.931213 164.531525 L 357.691193 164.441528 L 358.50119 165.841522 L 358.381195 168.101532 L 357.151215 170.41153 L 359.881195 168.011536 L 360.441193 168.301514 L 360.451202 169.14151 L 361.531189 170.501526 L 363.161194 170.811523 L 362.921204 171.531525 L 363.791199 173.681519 L 365.891205 175.381516 L 365.121185 179.531509 L 367.151215 176.431519 L 367.741211 176.671509 L 368.661194 178.601517 L 367.661194 182.101517 L 369.491211 180.601517 L 370.52121 177.541519 L 371.951202 177.541519 L 374.2612 181.031509 L 374.77121 180.711517 L 373.27121 176.631516 L 373.551208 175.051514 L 372.441193 174.481537 L 368.631195 173.921509 L 368.731201 173.051514 L 369.931213 172.591522 L 370.871185 172.771515 L 372.071198 171.091522 L 373.691193 170.831512 L 373.831207 171.201538 L 372.611206 171.681519 L 372.961212 172.16153 L 374.121185 171.951538 L 373.211212 173.771515 L 374.661194 174.091522 L 375.191193 174.701538 L 376.2612 173.761536 L 376.671204 172.551514 L 378.041199 173.041534 L 377.431213 171.451538 L 377.741211 169.791534 L 381.371185 170.791534 L 381.371185 170.791534 L 376.621185 179.681519 L 370.491211 185.611511 L 369.711212 189.201523 L 369.681213 193.89151 L 370.171204 193.881516 L 372.541199 196.781509 L 377.781189 200.841522 L 380.441193 202.341522 L 382.491211 201.821518 L 383.341187 202.071518 L 385.25119 204.171509 L 388.5112 206.64151 L 389.601196 210.631516 L 389.421204 212.541519 L 390.101196 213.521515 L 391.77121 214.301514 L 393.141205 215.681519 L 393.921204 220.01152 L 395.141205 220.271515 L 397.631195 219.811523 L 400.25119 220.751511 L 406.701202 226.121521 L 408.101196 228.581512 L 409.25119 229.301514 L 410.141205 229.301514 L 410.141205 229.301514 L 410.561188 229.89151 L 411.561188 236.701523 L 409.711212 238.251511 L 409.671204 240.931519 L 407.631195 242.191513 L 407.311188 243.311523 L 408.411194 246.031509 L 408.241211 249.301514 L 410.0112 251.881516 L 409.871185 253.521515 L 403.701202 257.021515 L 400.731201 260.65152 L 400.731201 260.65152 L 394.491211 261.541504 L 391.381195 263.031525 L 388.871185 263.611511 L 387.911194 265.121521 L 387.381195 268.231506 L 383.661194 271.231506 L 381.871185 269.951508 L 377.621185 268.021515 L 371.911194 263.691528 L 364.421204 261.821503 L 364.421204 261.821503 L 363.121185 258.961517 L 363.291199 258.451508 L 369.681213 255.471527 L 368.471191 248.201523 L 366.02121 249.591522 L 364.451202 251.201523 L 363.471191 251.061523 L 362.781189 250.101517 L 360.671204 249.14151 L 358.121185 250.201523 L 358.431213 248.661514 L 351.701202 234.931519 L 349.221191 228.241516 L 344.901215 221.821518 L 344.441193 217.941513 L 335.331207 216.121521 L 332.931213 211.911514 L 330.971191 209.681519 L 329.181213 204.621521 L 328.121185 202.911514 L 326.681213 201.631516 L 325.491211 201.221512 L 322.461212 201.931519 L 320.52121 201.751511 L 319.741211 200.781509 L 319.051208 196.911514 L 316.741211 195.851517 L 316.741211 194.911514 L 317.50119 193.801514 L 321.721191 192.191513 L 327.441193 187.111511 L 327.341187 186.461517 L 324.961212 184.251511 L 321.691193 183.221512 L 319.02121 180.481522 L 317.781189 176.521515 L 316.52121 174.821533 L 314.391205 169.91153 L 311.291199 164.461517 L 311.881195 162.431519 L 314.781189 160.451538 L 317.341187 153.271515 L 317.871185 147.571533 L 317.281189 144.291534 L 316.061188 142.881531 L 316.131195 139.971527 L 318.531189 137.061523 Z"/>
    <path id="SV-LI" fill="#42639e" stroke="none" d="M 241.781204 141.591522 L 244.251205 140.621521 L 246.281204 141.761536 L 246.791199 141.531525 L 247.121201 139.271515 L 248.691193 137.65152 L 249.021194 135.131531 L 249.921204 133.91153 L 251.101196 133.64151 L 252.961197 134.621521 L 254.731201 134.611511 L 258.031189 133.131531 L 261.881195 129.39151 L 265.25119 128.871521 L 266.491211 128.821533 L 267.671204 129.711517 L 268.371185 134.65152 L 268.861206 135.331512 L 270.031189 135.41153 L 271.971191 134.541534 L 273.201202 134.741516 L 274.25119 133.631531 L 275.081207 133.471527 L 276.361206 134.131531 L 277.291199 136.681519 L 278.221191 137.381531 L 278.221191 137.381531 L 278.341187 138.481537 L 277.00119 139.601532 L 276.671204 140.91153 L 274.911194 141.761536 L 274.941193 144.231537 L 273.891205 147.89151 L 273.641205 148.231537 L 272.841187 147.981537 L 272.181213 148.751526 L 272.481201 150.751526 L 271.951202 152.281525 L 274.77121 157.031525 L 275.411194 157.251526 L 276.681213 156.64151 L 278.651215 158.621521 L 279.191193 158.881531 L 280.101196 158.341522 L 281.231201 161.311523 L 282.931213 162.451538 L 283.181213 163.211517 L 282.77121 163.621521 L 280.971191 164.081512 L 280.331207 164.791534 L 280.991211 166.751526 L 287.121185 169.421509 L 294.461212 170.621521 L 295.0112 171.921509 L 295.211212 175.501511 L 294.77121 177.771515 L 291.75119 179.841522 L 291.541199 183.201523 L 289.671204 184.691513 L 288.951202 192.961517 L 287.52121 198.961517 L 285.741211 204.101517 L 284.481201 209.851517 L 281.881195 215.061523 L 282.621185 219.841522 L 278.831207 232.691513 L 276.971191 237.021515 L 275.75119 238.371521 L 276.201202 239.161514 L 277.091187 239.531509 L 281.361206 237.721512 L 282.571198 237.981522 L 282.131195 240.331512 L 278.861206 243.781509 L 278.831207 245.071518 L 279.421204 246.031509 L 278.231201 247.001511 L 278.371185 247.831512 L 281.841187 248.781509 L 288.491211 251.701523 L 289.211212 252.771515 L 290.441193 258.051514 L 291.381195 260.191528 L 291.981201 261.171509 L 295.101196 263.181519 L 295.721191 264.071503 L 295.121185 265.16153 L 292.601196 265.731506 L 291.921204 266.271515 L 290.941193 268.521515 L 290.401215 271.89151 L 290.541199 272.711517 L 291.27121 273.111511 L 294.431213 273.14151 L 296.841187 274.221527 L 296.741211 274.871521 L 294.431213 277.121521 L 293.411194 279.781525 L 293.791199 282.531525 L 292.711212 284.65152 L 292.961212 287.271515 L 294.961212 290.191528 L 295.941193 292.521515 L 295.331207 297.471527 L 293.421204 300.461517 L 292.741211 302.551514 L 292.691193 304.471527 L 295.621185 310.761505 L 297.071198 312.851501 L 297.921204 316.341522 L 300.401215 318.701508 L 300.661194 320.731506 L 299.971191 322.481506 L 300.061188 323.41153 L 301.50119 324.321503 L 304.77121 324.65152 L 308.171204 325.781525 L 309.25119 324.871521 L 309.111206 322.281525 L 309.731201 321.181519 L 309.221191 320.571503 L 309.461212 320.011505 L 314.931213 319.931519 L 314.931213 319.931519 L 315.161194 321.941528 L 314.561188 325.311523 L 316.581207 325.861511 L 322.0112 324.971527 L 322.671204 325.361511 L 322.741211 326.241516 L 321.171204 331.931519 L 320.361206 333.261505 L 318.381195 335.381531 L 315.681213 336.521515 L 315.75119 337.181519 L 316.661194 337.681519 L 317.071198 338.741516 L 315.311188 342.711517 L 315.311188 342.711517 L 311.111206 339.941528 L 308.411194 339.301514 L 302.371185 336.261505 L 301.921204 335.16153 L 299.851196 334.971527 L 295.791199 332.211517 L 285.791199 327.881531 L 284.801208 327.15152 L 284.711212 326.501526 L 283.00119 326.501526 L 271.821198 321.801514 L 270.831207 320.971527 L 267.221191 320.241516 L 264.341187 320.611511 L 263.711212 320.051514 L 261.27121 320.051514 L 260.101196 321.90152 L 259.02121 322.451508 L 257.941193 321.531525 L 252.621201 320.15152 L 250.551193 321.071503 L 248.031204 319.131531 L 245.861206 318.40152 L 241.901199 318.491516 L 239.921204 317.66153 L 238.561203 318.301514 L 237.301193 317.291504 L 236.311203 317.941528 L 235.051193 318.031525 L 233.521194 317.66153 L 231.711197 317.66153 L 230.451202 317.291504 L 228.201202 318.40152 L 224.151199 317.201508 L 222.611206 317.751526 L 220.091202 317.291504 L 218.561203 317.011505 L 213.691193 315.731506 L 211.891205 316.371521 L 210.271194 316.65152 L 202.701202 315.821503 L 201.621201 316.191528 L 201.341202 316.741516 L 198.101196 317.481506 L 194.671204 317.66153 L 192.241196 316.65152 L 189.271194 314.991516 L 187.831207 314.991516 L 184.941193 314.90152 L 182.331207 313.701508 L 180.081207 313.421509 L 178.361206 313.061523 L 176.291199 312.591522 L 171.961197 312.41153 L 171.691193 311.771515 L 170.791199 311.491516 L 170.341202 311.861511 L 168.631195 311.671509 L 167.641205 310.571503 L 164.391205 309.351501 L 164.391205 309.351501 L 170.7612 304.40152 L 175.991196 297.65152 L 182.681198 291.311523 L 183.641205 289.511505 L 184.711197 282.64151 L 185.671204 279.771515 L 188.501205 276.501526 L 190.201202 273.751526 L 193.571198 271.66153 L 195.961197 268.771515 L 196.281204 266.271515 L 194.811203 251.241516 L 195.331207 248.251511 L 196.941193 247.01152 L 198.641205 246.411514 L 207.841202 245.131516 L 208.911194 241.531509 L 211.031204 240.65152 L 212.041199 238.39151 L 213.921204 236.721512 L 215.961197 236.221512 L 216.561203 237.061523 L 217.901199 237.311523 L 218.701202 236.471512 L 219.221207 234.571518 L 221.651199 234.081512 L 223.321198 230.40152 L 223.091202 227.40152 L 222.391205 226.591522 L 220.831207 226.411514 L 218.031204 225.111511 L 218.031204 225.111511 L 217.831207 221.301514 L 216.251205 219.90152 L 214.971207 216.571518 L 216.971207 214.531509 L 218.651199 214.041519 L 220.001205 213.001511 L 220.571198 211.041519 L 220.191193 209.691513 L 220.841202 209.291519 L 220.471207 208.271515 L 221.631195 204.39151 L 220.141205 199.821518 L 220.931198 198.861511 L 220.351196 193.931519 L 217.921204 186.461517 L 219.231201 184.271515 L 218.501205 182.39151 L 219.911194 180.501511 L 220.291199 178.64151 L 221.401199 177.471512 L 222.381195 177.991516 L 222.811203 177.731522 L 223.891205 175.251511 L 225.271194 175.061523 L 225.931198 173.801514 L 228.931198 173.471527 L 235.181198 167.981537 L 238.211197 167.291534 L 239.441193 166.16153 L 239.411194 164.321533 L 238.241196 162.191528 L 238.551193 159.481537 L 237.741196 157.011536 L 239.331207 153.311523 L 240.871201 153.221527 L 241.351196 151.811523 L 242.541199 150.961517 L 242.381195 148.341522 L 240.691193 147.181519 L 240.481201 146.551514 L 242.121201 143.40152 L 242.201202 142.111511 Z"/>
    <path id="SV-MO" fill="#42639e" stroke="none" d="M 656.831177 154.091522 L 659.931213 156.181519 L 668.121216 156.731537 L 668.231201 163.16153 L 670.411194 166.39151 L 671.971191 167.781525 L 674.321228 172.011536 L 685.061218 187.271515 L 686.621216 193.281509 L 703.571228 183.581512 L 705.291199 185.26152 L 705.291199 185.26152 L 702.751221 191.661514 L 702.271179 195.411514 L 702.321228 197.931519 L 703.791199 206.26152 L 704.191223 215.411514 L 701.541199 227.211517 L 702.251221 228.251511 L 706.841187 227.661514 L 707.691223 228.341522 L 708.321228 233.101517 L 709.801208 236.371521 L 709.181213 243.251511 L 707.451172 246.981522 L 704.801208 255.89151 L 695.531189 275.971527 L 695.991211 279.571503 L 692.881226 288.031525 L 689.971191 292.131531 L 683.001221 295.16153 L 681.851196 296.241516 L 681.851196 296.241516 L 679.371216 295.831512 L 676.741211 296.091522 L 664.381226 300.601501 L 657.611206 302.311523 L 656.041199 301.461517 L 652.721191 294.231506 L 645.541199 291.521515 L 644.701172 290.631531 L 645.181213 288.301514 L 646.861206 286.311523 L 646.291199 284.041504 L 646.941223 283.021515 L 645.471191 282.131531 L 645.451172 281.16153 L 644.411194 280.191528 L 644.721191 278.321503 L 638.271179 278.461517 L 631.951172 279.761505 L 628.431213 280.011505 L 626.481201 280.65152 L 622.321228 283.501526 L 620.381226 283.871521 L 622.061218 280.451508 L 624.181213 278.571503 L 623.871216 277.491516 L 617.481201 272.861511 L 617.221191 271.751526 L 617.861206 268.981506 L 617.251221 267.331512 L 613.051208 264.801514 L 611.041199 261.41153 L 603.391174 254.721512 L 602.501221 252.311523 L 602.321228 247.171509 L 603.211182 243.461517 L 604.361206 241.571518 L 608.481201 238.441513 L 617.161194 233.001511 L 617.651184 231.90152 L 617.291199 227.601517 L 604.751221 218.061523 L 602.731201 212.961517 L 601.991211 206.941513 L 606.51123 199.801514 L 606.681213 194.181519 L 608.181213 193.061523 L 610.381226 193.51152 L 611.021179 193.211517 L 609.871216 189.591522 L 606.181213 187.871521 L 606.341187 185.781509 L 605.611206 184.431519 L 605.611206 184.431519 L 607.401184 183.631516 L 620.241211 172.581512 L 619.771179 165.621521 L 621.01123 161.011536 L 621.381226 155.701538 L 623.281189 155.671509 L 623.971191 154.701538 L 627.281189 154.721527 L 627.461182 155.861511 L 628.531189 156.66153 L 630.391174 157.121521 L 632.931213 156.871521 L 634.161194 156.811523 L 635.141174 158.721527 L 636.191223 158.831512 L 637.411194 158.241516 L 638.301208 158.481537 L 638.971191 159.101532 L 640.391174 158.811523 L 642.191223 158.671509 L 643.331177 156.931519 L 644.901184 157.311523 L 645.541199 156.671509 L 647.51123 157.501526 L 651.151184 156.371521 L 654.451172 154.341522 Z"/>
    <path id="SV-PA" fill="#42639e" stroke="none" d="M 399.431213 378.051514 L 401.50119 378.971527 L 402.311188 380.721527 L 396.901215 379.431519 L 395.731201 378.601501 L 395.911194 378.051514 L 399.431213 378.051514 Z M 388.711212 372.531525 L 389.341187 372.90152 L 389.611206 374.001526 L 388.711212 373.631531 L 388.711212 372.531525 Z M 387.361206 372.251526 L 388.2612 373.631531 L 385.741211 373.081512 L 385.831207 372.441528 L 387.361206 372.251526 Z M 400.731201 260.65152 L 400.071198 269.231506 L 402.27121 274.341522 L 400.071198 282.951508 L 402.331207 284.15152 L 406.721191 285.131531 L 414.311188 284.66153 L 418.891205 283.371521 L 419.791199 283.831512 L 419.181213 287.171509 L 420.301208 289.361511 L 420.381195 291.221527 L 426.351196 304.601501 L 426.931213 306.90152 L 426.701202 310.811523 L 424.971191 316.271515 L 424.531189 319.971527 L 423.25119 322.011505 L 423.341187 323.66153 L 424.361206 326.591522 L 424.171204 330.15152 L 425.361206 332.65152 L 425.161194 335.121521 L 426.171204 336.501526 L 429.421204 337.91153 L 430.621185 341.39151 L 433.601196 344.251526 L 436.531189 345.581512 L 438.241211 348.40152 L 437.961212 349.761505 L 435.801208 352.531525 L 435.661194 355.441528 L 435.191193 356.621521 L 434.201202 357.611511 L 431.5112 358.071503 L 430.121185 359.431519 L 430.02121 360.431519 L 431.481201 362.41153 L 430.281189 365.631531 L 430.631195 368.271515 L 430.171204 370.011505 L 431.091187 372.061523 L 433.211212 374.681519 L 433.421204 376.66153 L 430.25119 379.861511 L 427.571198 380.071503 L 426.161194 380.701508 L 424.811188 382.691528 L 423.451202 383.701508 L 423.041199 384.521515 L 423.451202 385.711517 L 423.161194 386.381531 L 421.661194 387.761505 L 420.5112 390.191528 L 420.7612 391.471527 L 420.25119 392.90152 L 420.27121 395.371521 L 420.27121 395.371521 L 410.711212 390.041504 L 406.291199 388.751526 L 404.7612 387.091522 L 404.941193 385.16153 L 405.50119 385.531525 L 405.75119 386.821503 L 407.191193 387.921509 L 407.911194 387.921509 L 411.061188 385.441528 L 411.541199 385.531525 L 412.591187 386.271515 L 412.861206 387.471527 L 413.581207 387.66153 L 412.77121 386.001526 L 411.421204 385.081512 L 411.781189 383.15152 L 415.561188 382.511505 L 415.921204 381.221527 L 415.471191 380.211517 L 416.201202 379.281525 L 415.481201 379.561523 L 415.031189 380.39151 L 415.651215 381.181519 L 415.5112 381.881531 L 411.25119 382.881531 L 410.891205 384.811523 L 409.991211 385.91153 L 409.421204 386.381531 L 408.101196 386.461517 L 407.471191 384.801514 L 408.371185 383.601501 L 406.931213 384.251526 L 405.041199 382.041504 L 404.50119 381.861511 L 403.871185 381.771515 L 402.791199 380.211517 L 403.601196 379.841522 L 403.691193 379.291504 L 403.331207 379.381531 L 402.791199 378.371521 L 400.991211 376.90152 L 397.201202 376.811523 L 396.211212 375.981506 L 396.301208 376.721527 L 395.311188 376.721527 L 394.861206 377.64151 L 394.141205 377.551514 L 393.801208 376.991516 L 393.241211 377.451508 L 392.431213 377.361511 L 390.991211 375.801514 L 389.551208 372.671509 L 387.391205 371.471527 L 386.401215 371.931519 L 384.451202 371.701508 L 383.5112 369.441528 L 383.241211 369.90152 L 383.901215 371.121521 L 383.871185 371.741516 L 385.311188 372.291504 L 385.401215 372.841522 L 382.431213 373.581512 L 380.52121 371.721527 L 376.071198 371.001526 L 375.041199 369.171509 L 374.141205 369.451508 L 372.881195 368.811523 L 370.721191 368.531525 L 369.551208 367.611511 L 369.101196 366.601501 L 368.381195 366.691528 L 369.551208 367.89151 L 369.371185 368.351501 L 369.911194 368.991516 L 373.611206 369.731506 L 376.7612 371.851501 L 379.371185 371.851501 L 382.791199 374.15152 L 386.131195 373.781525 L 388.921204 374.881531 L 392.351196 378.471527 L 398.391205 381.231506 L 401.091187 381.511505 L 402.891205 383.351501 L 403.431213 384.731506 L 401.991211 385.191528 L 399.201202 384.361511 L 385.321198 376.91153 L 367.301208 368.721527 L 365.681213 368.441528 L 355.051208 364.211517 L 354.601196 362.921509 L 353.881195 362.741516 L 353.701202 363.291504 L 352.171204 363.011505 L 347.75119 361.171509 L 340.451202 356.751526 L 315.361206 342.761505 L 315.361206 342.761505 L 317.121185 338.801514 L 316.701202 337.741516 L 315.791199 337.241516 L 315.721191 336.581512 L 318.421204 335.451508 L 320.401215 333.331512 L 321.211212 332.011505 L 322.781189 326.321503 L 322.711212 325.441528 L 322.041199 325.051514 L 316.621185 325.941528 L 314.591187 325.39151 L 315.201202 322.021515 L 314.961212 320.021515 L 314.961212 320.021515 L 316.77121 314.841522 L 319.191193 313.291504 L 319.661194 311.221527 L 320.891205 309.491516 L 320.701202 305.791504 L 323.081207 303.301514 L 323.671204 301.481506 L 322.831207 298.64151 L 322.861206 295.14151 L 322.411194 293.41153 L 318.651215 288.65152 L 317.781189 284.941528 L 316.461212 282.831512 L 316.841187 281.741516 L 319.671204 280.64151 L 332.111206 279.691528 L 333.661194 278.421509 L 337.301208 272.171509 L 339.821198 269.571503 L 344.811188 271.241516 L 346.351196 270.681519 L 346.561188 269.291504 L 347.52121 269.241516 L 349.581207 269.91153 L 352.621185 272.251526 L 354.691193 272.541504 L 355.75119 271.921509 L 357.801208 269.431519 L 359.041199 269.321503 L 359.991211 268.131531 L 362.311188 266.991516 L 365.291199 266.971527 L 366.691193 263.851501 L 365.901215 263.761505 L 364.481201 261.91153 L 364.481201 261.91153 L 371.961212 263.791504 L 377.671204 268.121521 L 381.931213 270.051514 L 383.721191 271.331512 L 387.441193 268.331512 L 387.971191 265.221527 L 388.941193 263.711517 L 391.451202 263.131531 L 394.561188 261.64151 L 400.731201 260.65152 Z"/>
    <path id="SV-SA" fill="#42639e" stroke="none" d="M 241.391205 6.991516 L 242.981201 6.131531 L 243.941193 6.321533 L 248.561203 9.951508 L 250.101196 10.331512 L 251.841202 9.41153 L 251.841202 9.41153 L 252.901199 9.91153 L 266.301208 24.261505 L 270.401215 30.731506 L 283.231201 40.001526 L 284.861206 41.541534 L 285.231201 42.631531 L 284.601196 44.351532 L 283.161194 46.041534 L 283.591187 48.571533 L 282.851196 50.211517 L 282.721191 52.521515 L 281.421204 55.16153 L 279.7612 56.951508 L 279.581207 60.121521 L 280.071198 61.321533 L 279.50119 61.991516 L 279.701202 63.211517 L 277.601196 66.111511 L 272.691193 69.101532 L 270.461212 68.081512 L 269.491211 68.491516 L 268.25119 68.181519 L 265.961212 69.881531 L 263.701202 69.551514 L 262.141205 70.541534 L 262.00119 72.291534 L 262.821198 73.721527 L 262.871185 75.14151 L 264.211212 76.791534 L 264.531189 77.931519 L 263.081207 81.981506 L 264.311188 85.851532 L 263.461212 91.271515 L 260.711212 93.251526 L 257.431213 93.121521 L 256.371185 94.16153 L 254.571198 94.591522 L 252.921204 94.341522 L 248.131195 94.941528 L 246.991196 96.811523 L 246.921204 99.321533 L 245.501205 99.871521 L 245.361206 101.321533 L 239.601196 106.461517 L 235.651199 107.15152 L 234.751205 109.281525 L 233.421204 110.531525 L 233.201202 111.281525 L 234.431198 112.191528 L 235.151199 114.251526 L 235.391205 117.441528 L 234.361206 118.90152 L 231.521194 119.841522 L 231.631195 121.581512 L 229.731201 122.91153 L 229.051193 124.451508 L 227.791199 125.421509 L 227.471207 127.261505 L 228.191193 130.361511 L 227.101196 131.761536 L 227.951202 134.621521 L 227.441193 138.341522 L 228.231201 139.351532 L 231.091202 139.571533 L 233.831207 141.431519 L 238.121201 140.701538 L 241.781204 141.591522 L 241.781204 141.591522 L 242.201202 142.111511 L 242.121201 143.40152 L 240.481201 146.551514 L 240.691193 147.181519 L 242.381195 148.341522 L 242.541199 150.961517 L 241.351196 151.811523 L 240.871201 153.221527 L 239.331207 153.311523 L 237.741196 157.011536 L 238.551193 159.481537 L 238.241196 162.191528 L 239.411194 164.321533 L 239.441193 166.16153 L 238.211197 167.291534 L 235.181198 167.981537 L 228.931198 173.471527 L 225.931198 173.801514 L 225.271194 175.061523 L 223.891205 175.251511 L 222.811203 177.731522 L 222.381195 177.991516 L 221.401199 177.471512 L 220.291199 178.64151 L 219.911194 180.501511 L 218.501205 182.39151 L 219.231201 184.271515 L 217.921204 186.461517 L 220.351196 193.931519 L 220.931198 198.861511 L 220.141205 199.821518 L 221.631195 204.39151 L 220.471207 208.271515 L 220.841202 209.291519 L 220.191193 209.691513 L 220.571198 211.041519 L 220.001205 213.001511 L 218.651199 214.041519 L 216.971207 214.531509 L 214.971207 216.571518 L 216.251205 219.90152 L 217.831207 221.301514 L 218.031204 225.111511 L 218.031204 225.111511 L 213.531204 223.361511 L 211.021194 223.461517 L 209.321198 224.351517 L 207.271194 223.941513 L 204.731201 224.441513 L 202.251205 223.801514 L 199.401199 221.561523 L 197.421204 220.791519 L 193.041199 217.951523 L 193.501205 215.001511 L 193.191193 213.291519 L 190.541199 210.801514 L 188.5112 209.601517 L 187.131195 209.571518 L 186.431198 208.691513 L 186.791199 207.781509 L 188.111206 207.351517 L 188.191193 206.721512 L 186.561203 206.64151 L 183.471207 205.341522 L 181.331207 205.341522 L 178.321198 207.081512 L 173.321198 208.40152 L 172.601196 214.051514 L 171.631195 214.991516 L 169.111206 216.201523 L 168.5112 217.89151 L 167.441193 218.581512 L 165.281204 215.831512 L 166.151199 213.40152 L 165.241196 211.521515 L 163.801193 210.65152 L 159.981201 209.64151 L 157.141205 210.881516 L 155.991196 209.931519 L 156.431198 208.491516 L 162.861206 202.811523 L 163.161194 201.961517 L 162.651199 200.631516 L 163.071198 198.791519 L 162.851196 197.991516 L 160.971207 197.051514 L 154.161194 196.781509 L 154.401199 195.691513 L 153.151199 192.531509 L 154.101196 191.361511 L 153.831207 189.801514 L 154.381195 188.26152 L 153.291199 187.371521 L 154.831207 186.121521 L 154.951202 185.26152 L 153.771194 185.671509 L 152.631195 185.451523 L 151.681198 186.451523 L 150.731201 186.071518 L 148.641205 186.791519 L 146.341202 184.851517 L 143.451202 183.971512 L 142.211197 183.971512 L 141.231201 184.921509 L 140.201202 184.691513 L 137.651199 185.461517 L 133.001205 183.671509 L 131.071198 183.931519 L 129.741196 185.211517 L 127.521202 184.061523 L 127.521202 184.061523 L 129.331207 183.621521 L 133.031204 178.101517 L 133.421204 176.561523 L 133.221207 173.951538 L 135.231201 170.481537 L 136.051193 165.001526 L 141.071198 158.091522 L 141.601196 151.601532 L 141.051193 150.101532 L 140.071198 149.091522 L 133.621201 145.701538 L 132.991196 144.861511 L 131.861206 139.40152 L 130.121201 139.541534 L 129.061203 138.41153 L 126.341202 138.301514 L 126.341202 138.301514 L 126.111198 137.15152 L 128.0112 137.561523 L 128.401199 135.561523 L 126.3312 134.39151 L 125.621201 131.691528 L 126.501198 129.591522 L 125.051201 127.671509 L 128.501205 120.421509 L 129.2612 116.881531 L 132.731201 107.91153 L 135.5112 102.811523 L 151.091202 88.931519 L 151.031204 88.211517 L 160.491196 83.031525 L 162.731201 82.481506 L 165.441193 82.331512 L 172.861206 83.381531 L 181.431198 82.40152 L 188.331207 78.781525 L 193.271194 77.331512 L 195.971207 75.90152 L 197.161194 74.881531 L 197.941193 71.611511 L 199.201202 70.601532 L 199.271194 69.481506 L 198.051193 68.91153 L 198.061203 69.741516 L 197.571198 70.201508 L 194.021194 61.131531 L 189.861206 55.471527 L 188.731201 51.951508 L 190.211197 53.011505 L 190.771194 52.591522 L 191.411194 50.991516 L 190.771194 48.841522 L 188.971207 47.101532 L 187.361206 46.681519 L 187.431198 45.621521 L 186.771194 45.361511 L 185.951202 43.771515 L 184.921204 43.321533 L 180.591202 43.241516 L 179.031204 42.681519 L 176.951202 44.501526 L 175.941193 44.611511 L 175.751205 44.061523 L 176.021194 38.931519 L 177.351196 34.991516 L 178.881195 34.311523 L 181.281204 34.491516 L 182.141205 33.721527 L 182.271194 31.441528 L 184.721207 30.931519 L 184.221207 28.991516 L 180.611206 25.831512 L 181.061203 24.351532 L 179.631195 17.851532 L 180.021194 12.701508 L 181.491196 9.801514 L 192.101196 9.451508 L 191.611206 10.831512 L 194.921204 16.301514 L 193.531204 20.241516 L 196.101196 21.061523 L 196.691193 20.331512 L 198.531204 20.40152 L 200.551193 17.571533 L 208.581207 10.361511 L 210.101196 10.331512 L 212.001205 9.241516 L 214.171204 6.961517 L 216.451202 8.121521 L 218.601196 8.421509 L 221.091202 9.811523 L 223.721207 10.501526 L 223.991196 12.071533 L 225.621201 12.951508 L 227.651199 12.671509 L 232.061203 9.221527 L 234.351196 6.271515 L 235.591202 5.541534 L 236.241196 2.961517 L 237.401199 1.181519 L 239.571198 0.721527 L 240.481201 -0.308472 L 241.711197 0.721527 Z"/>
    <path id="SV-SM" fill="#42639e" stroke="none" d="M 605.611206 184.431519 L 606.341187 185.781509 L 606.181213 187.871521 L 609.871216 189.591522 L 611.021179 193.211517 L 610.381226 193.51152 L 608.181213 193.061523 L 606.681213 194.181519 L 606.51123 199.801514 L 601.991211 206.941513 L 602.731201 212.961517 L 604.751221 218.061523 L 617.291199 227.601517 L 617.651184 231.90152 L 617.161194 233.001511 L 608.481201 238.441513 L 604.361206 241.571518 L 603.211182 243.461517 L 602.321228 247.171509 L 602.501221 252.311523 L 603.391174 254.721512 L 611.041199 261.41153 L 613.051208 264.801514 L 617.251221 267.331512 L 617.861206 268.981506 L 617.221191 271.751526 L 617.481201 272.861511 L 623.871216 277.491516 L 624.181213 278.571503 L 622.061218 280.451508 L 620.381226 283.871521 L 622.321228 283.501526 L 626.481201 280.65152 L 628.431213 280.011505 L 631.951172 279.761505 L 638.271179 278.461517 L 644.721191 278.321503 L 644.411194 280.191528 L 645.451172 281.16153 L 645.471191 282.131531 L 646.941223 283.021515 L 646.291199 284.041504 L 646.861206 286.311523 L 645.181213 288.301514 L 644.701172 290.631531 L 645.541199 291.521515 L 652.721191 294.231506 L 656.041199 301.461517 L 657.611206 302.311523 L 664.381226 300.601501 L 676.741211 296.091522 L 679.371216 295.831512 L 681.851196 296.241516 L 681.851196 296.241516 L 680.561218 298.361511 L 680.821228 300.91153 L 679.881226 304.331512 L 681.461182 307.701508 L 684.001221 319.491516 L 683.491211 320.581512 L 678.921204 321.551514 L 677.311218 322.541504 L 675.291199 330.941528 L 674.961182 336.231506 L 675.951172 341.601501 L 677.911194 345.191528 L 681.01123 346.561523 L 682.041199 347.541504 L 683.731201 347.90152 L 683.251221 349.65152 L 681.471191 352.711517 L 679.621216 359.291504 L 678.571228 360.041504 L 676.821228 360.311523 L 676.341187 361.121521 L 677.171204 362.361511 L 679.111206 363.66153 L 680.831177 367.461517 L 679.231201 373.681519 L 677.201172 378.601501 L 679.411194 385.061523 L 680.081177 399.491516 L 679.051208 400.301514 L 668.821228 399.231506 L 666.961182 399.631531 L 663.891174 406.121521 L 661.211182 414.15152 L 660.041199 424.051514 L 660.041199 424.051514 L 659.911194 424.421509 L 653.311218 423.961517 L 651.691223 424.231506 L 651.781189 425.251526 L 650.961182 425.741516 L 650.961182 425.741516 L 647.341187 420.14151 L 639.291199 409.741516 L 637.151184 404.861511 L 624.931213 403.381531 L 620.901184 405.781525 L 619.371216 405.41153 L 617.901184 404.091522 L 617.221191 402.701508 L 617.381226 401.061523 L 618.101196 399.751526 L 623.181213 395.381531 L 623.371216 394.66153 L 621.521179 391.581512 L 619.301208 390.081512 L 618.001221 388.581512 L 616.631226 388.301514 L 614.861206 389.111511 L 614.321228 388.731506 L 616.331177 382.451508 L 615.221191 380.841522 L 614.591187 380.951508 L 614.121216 382.101501 L 613.041199 381.871521 L 612.501221 383.051514 L 611.461182 381.971527 L 607.521179 383.001526 L 606.681213 381.64151 L 605.571228 381.291504 L 606.681213 380.701508 L 606.181213 380.261505 L 603.921204 380.051514 L 602.571228 379.191528 L 602.191223 380.571503 L 601.201172 379.941528 L 600.481201 382.531525 L 599.991211 382.571503 L 599.121216 381.681519 L 598.161194 382.081512 L 596.281189 389.14151 L 596.371216 391.611511 L 599.811218 396.421509 L 599.631226 397.331512 L 596.591187 398.39151 L 592.901184 398.761505 L 590.981201 399.691528 L 589.371216 399.351501 L 588.601196 398.511505 L 588.201172 397.321503 L 588.601196 392.291504 L 587.251221 390.281525 L 587.211182 389.361511 L 590.141174 385.941528 L 595.801208 383.341522 L 596.691223 381.881531 L 595.891174 378.021515 L 593.921204 374.031525 L 594.311218 370.751526 L 593.521179 370.451508 L 587.751221 371.15152 L 584.76123 370.451508 L 578.051208 370.631531 L 576.701172 370.111511 L 576.651184 366.471527 L 575.981201 364.89151 L 574.841187 364.65152 L 574.111206 363.15152 L 573.161194 362.831512 L 572.021179 361.281525 L 568.561218 359.741516 L 567.331177 357.89151 L 567.371216 356.421509 L 568.661194 353.531525 L 567.911194 347.121521 L 569.421204 343.531525 L 569.321228 340.721527 L 567.471191 339.15152 L 566.911194 335.271515 L 566.331177 334.281525 L 564.461182 334.191528 L 562.581177 335.081512 L 561.651184 334.441528 L 562.351196 327.061523 L 563.181213 326.561523 L 566.211182 327.341522 L 567.981201 326.571503 L 568.26123 324.471527 L 567.521179 320.751526 L 568.431213 319.441528 L 570.661194 317.731506 L 571.381226 315.301514 L 570.291199 299.251526 L 566.571228 297.291504 L 565.101196 296.051514 L 566.811218 291.241516 L 565.831177 287.341522 L 566.101196 285.241516 L 567.281189 284.731506 L 568.591187 285.121521 L 570.681213 287.481506 L 571.26123 287.431519 L 571.651184 286.741516 L 570.861206 283.381531 L 571.001221 282.381531 L 571.931213 281.181519 L 571.961182 280.171509 L 571.571228 279.381531 L 569.081177 278.021515 L 568.361206 276.451508 L 568.411194 273.841522 L 569.581177 270.781525 L 568.151184 263.171509 L 567.111206 262.281525 L 565.551208 262.301514 L 564.321228 262.831512 L 562.791199 264.421509 L 560.371216 264.761505 L 556.911194 262.861511 L 555.081177 262.931519 L 554.271179 261.39151 L 552.501221 260.051514 L 551.901184 259.031525 L 549.901184 258.501526 L 545.811218 253.111511 L 543.441223 251.841522 L 542.711182 251.811523 L 541.611206 253.291519 L 539.931213 253.01152 L 539.101196 253.351517 L 538.481201 252.991516 L 537.891174 253.551514 L 536.061218 252.071518 L 534.161194 252.341522 L 531.871216 251.89151 L 531.871216 251.89151 L 530.571228 250.801514 L 527.351196 249.601517 L 527.051208 248.331512 L 527.431213 245.071518 L 526.351196 242.971512 L 524.781189 242.811523 L 522.421204 244.041519 L 521.431213 243.921509 L 519.821228 236.441513 L 519.821228 236.441513 L 520.611206 236.071518 L 520.841187 234.671509 L 519.061218 231.341522 L 519.161194 229.251511 L 520.271179 226.841522 L 522.241211 225.90152 L 522.771179 224.301514 L 524.341187 222.211517 L 524.731201 219.981522 L 523.651184 217.321518 L 523.671204 216.15152 L 524.581177 214.64151 L 528.621216 210.341522 L 528.291199 206.301514 L 529.76123 203.441513 L 529.451172 200.171509 L 530.991211 196.791519 L 530.991211 196.791519 L 533.571228 196.941513 L 538.781189 199.26152 L 539.751221 197.371521 L 539.751221 195.301514 L 545.711182 195.791519 L 547.661194 195.481522 L 551.181213 190.741516 L 554.171204 189.711517 L 567.851196 188.611511 L 575.51123 194.271515 L 587.241211 190.001511 Z"/>
    <path id="SV-SO" fill="#42639e" stroke="none" d="M 57.061195 260.991516 L 59.881195 259.66153 L 61.191196 257.211517 L 63.431194 255.951508 L 67.291199 249.181519 L 69.221199 248.851517 L 71.111198 247.071518 L 72.291199 246.971512 L 79.451195 253.191513 L 81.121193 255.421509 L 85.591194 257.071503 L 88.221199 258.601501 L 91.821198 261.981506 L 93.721199 262.201508 L 98.361198 261.541504 L 99.911194 258.621521 L 102.151199 249.521515 L 103.961197 246.15152 L 103.891197 242.89151 L 106.411201 237.111511 L 106.791199 232.131516 L 107.7612 231.221512 L 111.971199 230.801514 L 110.051201 225.291519 L 108.671204 219.091522 L 108.711197 217.121521 L 109.851196 212.551514 L 111.171204 210.821518 L 114.461197 208.041519 L 117.731201 202.39151 L 117.421204 201.021515 L 114.961197 196.611511 L 112.751198 187.551514 L 113.921204 186.291519 L 117.291199 185.951523 L 120.351196 184.421509 L 122.861198 180.76152 L 123.591202 181.871521 L 126.5112 182.681519 L 127.521202 184.061523 L 127.521202 184.061523 L 129.741196 185.211517 L 131.071198 183.931519 L 133.001205 183.671509 L 137.651199 185.461517 L 140.201202 184.691513 L 141.231201 184.921509 L 142.211197 183.971512 L 143.451202 183.971512 L 146.341202 184.851517 L 148.641205 186.791519 L 150.731201 186.071518 L 151.681198 186.451523 L 152.631195 185.451523 L 153.771194 185.671509 L 154.951202 185.26152 L 154.831207 186.121521 L 153.291199 187.371521 L 154.381195 188.26152 L 153.831207 189.801514 L 154.101196 191.361511 L 153.151199 192.531509 L 154.401199 195.691513 L 154.161194 196.781509 L 160.971207 197.051514 L 162.851196 197.991516 L 163.071198 198.791519 L 162.651199 200.631516 L 163.161194 201.961517 L 162.861206 202.811523 L 156.431198 208.491516 L 155.991196 209.931519 L 157.141205 210.881516 L 159.981201 209.64151 L 163.801193 210.65152 L 165.241196 211.521515 L 166.151199 213.40152 L 165.281204 215.831512 L 167.441193 218.581512 L 168.5112 217.89151 L 169.111206 216.201523 L 171.631195 214.991516 L 172.601196 214.051514 L 173.321198 208.40152 L 178.321198 207.081512 L 181.331207 205.341522 L 183.471207 205.341522 L 186.561203 206.64151 L 188.191193 206.721512 L 188.111206 207.351517 L 186.791199 207.781509 L 186.431198 208.691513 L 187.131195 209.571518 L 188.5112 209.601517 L 190.541199 210.801514 L 193.191193 213.291519 L 193.501205 215.001511 L 193.041199 217.951523 L 197.421204 220.791519 L 199.401199 221.561523 L 202.251205 223.801514 L 204.731201 224.441513 L 207.271194 223.941513 L 209.321198 224.351517 L 211.021194 223.461517 L 213.531204 223.361511 L 218.031204 225.111511 L 218.031204 225.111511 L 220.831207 226.411514 L 222.391205 226.591522 L 223.091202 227.40152 L 223.321198 230.40152 L 221.651199 234.081512 L 219.221207 234.571518 L 218.701202 236.471512 L 217.901199 237.311523 L 216.561203 237.061523 L 215.961197 236.221512 L 213.921204 236.721512 L 212.041199 238.39151 L 211.031204 240.65152 L 208.911194 241.531509 L 207.841202 245.131516 L 198.641205 246.411514 L 196.941193 247.01152 L 195.331207 248.251511 L 194.811203 251.241516 L 196.281204 266.271515 L 195.961197 268.771515 L 193.571198 271.66153 L 190.201202 273.751526 L 188.501205 276.501526 L 185.671204 279.771515 L 184.711197 282.64151 L 183.641205 289.511505 L 182.681198 291.311523 L 175.991196 297.65152 L 170.7612 304.40152 L 164.391205 309.351501 L 164.391205 309.351501 L 161.601196 308.171509 L 155.831207 306.881531 L 154.481201 305.961517 L 150.151199 305.41153 L 144.841202 304.491516 L 139.251205 304.951508 L 138.981201 304.40152 L 138.2612 304.311523 L 135.0112 306.061523 L 134.291199 306.061523 L 133.931198 305.501526 L 130.151199 306.061523 L 122.491203 305.781525 L 116.991203 304.861511 L 114.731201 305.591522 L 111.7612 305.871521 L 110.861198 307.531525 L 109.871201 306.521515 L 108.431198 307.811523 L 108.791199 308.631531 L 108.521202 309.281525 L 107.4412 309.281525 L 107.621201 307.90152 L 107.2612 307.441528 L 105.271202 307.16153 L 103.921204 308.271515 L 103.651199 309.461517 L 103.111198 309.461517 L 102.841202 308.271515 L 103.021202 307.071503 L 102.121201 306.331512 L 101.131203 306.701508 L 101.041199 305.691528 L 99.221199 304.771515 L 98.3312 304.951508 L 98.241196 304.121521 L 99.231194 303.751526 L 99.231194 302.921509 L 97.701195 302.551514 L 97.251198 301.541504 L 97.611198 300.811523 L 96.621193 298.131531 L 96.801193 296.111511 L 96.171196 294.261505 L 95.451195 293.961517 L 95.181198 291.321503 L 93.471199 291.41153 L 92.301193 290.211517 L 92.751198 289.66153 L 93.021194 290.301514 L 94.191193 289.931519 L 94.551193 290.491516 L 95.001198 290.301514 L 94.641197 287.721527 L 94.101196 287.541504 L 94.911194 285.241516 L 93.201195 282.381531 L 91.211197 280.90152 L 89.771194 280.081512 L 84.541199 276.851501 L 78.421196 272.89151 L 62.561195 263.951508 L 61.201195 263.031525 L 61.471195 262.291504 L 60.661198 261.551514 L 60.301197 262.291504 L 59.761196 262.291504 Z"/>
    <path id="SV-SS" fill="#42639e" stroke="none" d="M 278.221191 137.381531 L 279.671204 135.601532 L 281.101196 136.121521 L 284.401215 135.251526 L 284.991211 133.481537 L 286.431213 132.871521 L 292.091187 133.821533 L 295.161194 135.941528 L 296.281189 135.771515 L 299.291199 134.601532 L 301.541199 132.181519 L 304.331207 130.711517 L 305.141205 130.751526 L 306.561188 131.941528 L 306.981201 133.581512 L 306.471191 135.481537 L 308.781189 137.581512 L 309.211212 138.791534 L 311.131195 138.121521 L 313.181213 138.051514 L 314.941193 134.821533 L 317.081207 133.971527 L 317.821198 131.981537 L 319.361206 131.291534 L 318.981201 133.101532 L 319.871185 132.781525 L 319.871185 132.781525 L 318.531189 137.061523 L 316.131195 139.971527 L 316.061188 142.881531 L 317.281189 144.291534 L 317.871185 147.571533 L 317.341187 153.271515 L 314.781189 160.451538 L 311.881195 162.431519 L 311.291199 164.461517 L 314.391205 169.91153 L 316.52121 174.821533 L 317.781189 176.521515 L 319.02121 180.481522 L 321.691193 183.221512 L 324.961212 184.251511 L 327.341187 186.461517 L 327.441193 187.111511 L 321.721191 192.191513 L 317.50119 193.801514 L 316.741211 194.911514 L 316.741211 195.851517 L 319.051208 196.911514 L 319.741211 200.781509 L 320.52121 201.751511 L 322.461212 201.931519 L 325.491211 201.221512 L 326.681213 201.631516 L 328.121185 202.911514 L 329.181213 204.621521 L 330.971191 209.681519 L 332.931213 211.911514 L 335.331207 216.121521 L 344.441193 217.941513 L 344.901215 221.821518 L 349.221191 228.241516 L 351.701202 234.931519 L 358.431213 248.661514 L 358.121185 250.201523 L 360.671204 249.14151 L 362.781189 250.101517 L 363.471191 251.061523 L 364.451202 251.201523 L 366.02121 249.591522 L 368.471191 248.201523 L 369.681213 255.471527 L 363.291199 258.451508 L 363.121185 258.961517 L 364.421204 261.821503 L 364.421204 261.821503 L 365.841187 263.66153 L 366.631195 263.751526 L 365.241211 266.871521 L 362.2612 266.89151 L 359.941193 268.031525 L 358.991211 269.221527 L 357.75119 269.321503 L 355.701202 271.821503 L 354.641205 272.431519 L 352.571198 272.15152 L 349.52121 269.801514 L 347.461212 269.131531 L 346.50119 269.181519 L 346.291199 270.581512 L 344.75119 271.14151 L 339.7612 269.481506 L 337.241211 272.081512 L 333.601196 278.331512 L 332.061188 279.601501 L 319.621185 280.551514 L 316.801208 281.65152 L 316.411194 282.741516 L 317.741211 284.851501 L 318.611206 288.561523 L 322.371185 293.321503 L 322.821198 295.051514 L 322.801208 298.551514 L 323.631195 301.39151 L 323.051208 303.211517 L 320.661194 305.701508 L 320.851196 309.40152 L 319.621185 311.14151 L 319.151215 313.201508 L 316.731201 314.761505 L 314.931213 319.931519 L 314.931213 319.931519 L 309.461212 320.011505 L 309.221191 320.571503 L 309.731201 321.181519 L 309.111206 322.281525 L 309.25119 324.871521 L 308.171204 325.781525 L 304.77121 324.65152 L 301.50119 324.321503 L 300.061188 323.41153 L 299.971191 322.481506 L 300.661194 320.731506 L 300.401215 318.701508 L 297.921204 316.341522 L 297.071198 312.851501 L 295.621185 310.761505 L 292.691193 304.471527 L 292.741211 302.551514 L 293.421204 300.461517 L 295.331207 297.471527 L 295.941193 292.521515 L 294.961212 290.191528 L 292.961212 287.271515 L 292.711212 284.65152 L 293.791199 282.531525 L 293.411194 279.781525 L 294.431213 277.121521 L 296.741211 274.871521 L 296.841187 274.221527 L 294.431213 273.14151 L 291.27121 273.111511 L 290.541199 272.711517 L 290.401215 271.89151 L 290.941193 268.521515 L 291.921204 266.271515 L 292.601196 265.731506 L 295.121185 265.16153 L 295.721191 264.071503 L 295.101196 263.181519 L 291.981201 261.171509 L 291.381195 260.191528 L 290.441193 258.051514 L 289.211212 252.771515 L 288.491211 251.701523 L 281.841187 248.781509 L 278.371185 247.831512 L 278.231201 247.001511 L 279.421204 246.031509 L 278.831207 245.071518 L 278.861206 243.781509 L 282.131195 240.331512 L 282.571198 237.981522 L 281.361206 237.721512 L 277.091187 239.531509 L 276.201202 239.161514 L 275.75119 238.371521 L 276.971191 237.021515 L 278.831207 232.691513 L 282.621185 219.841522 L 281.881195 215.061523 L 284.481201 209.851517 L 285.741211 204.101517 L 287.52121 198.961517 L 288.951202 192.961517 L 289.671204 184.691513 L 291.541199 183.201523 L 291.75119 179.841522 L 294.77121 177.771515 L 295.211212 175.501511 L 295.0112 171.921509 L 294.461212 170.621521 L 287.121185 169.421509 L 280.991211 166.751526 L 280.331207 164.791534 L 280.971191 164.081512 L 282.77121 163.621521 L 283.181213 163.211517 L 282.931213 162.451538 L 281.231201 161.311523 L 280.101196 158.341522 L 279.191193 158.881531 L 278.651215 158.621521 L 276.681213 156.64151 L 275.411194 157.251526 L 274.77121 157.031525 L 271.951202 152.281525 L 272.481201 150.751526 L 272.181213 148.751526 L 272.841187 147.981537 L 273.641205 148.231537 L 273.891205 147.89151 L 274.941193 144.231537 L 274.911194 141.761536 L 276.671204 140.91153 L 277.00119 139.601532 L 278.341187 138.481537 Z"/>
    <path id="SV-SV" fill="#42639e" stroke="none" d="M 410.141205 229.301514 L 410.921204 229.14151 L 414.061188 225.241516 L 415.481201 224.26152 L 421.181213 223.681519 L 423.481201 224.51152 L 425.331207 224.321518 L 429.341187 225.091522 L 432.711212 224.911514 L 440.491211 220.39151 L 442.951202 219.731522 L 445.181213 220.331512 L 446.171204 218.691513 L 447.571198 218.131516 L 449.891205 218.941513 L 451.301208 218.791519 L 453.701202 219.771515 L 454.321198 219.591522 L 454.931213 218.531509 L 456.491211 221.64151 L 457.401215 222.191513 L 459.081207 221.351517 L 461.27121 222.051514 L 466.411194 220.461517 L 468.391205 221.881516 L 473.321198 221.881516 L 475.621185 219.801514 L 476.431213 219.601517 L 479.291199 220.65152 L 479.651215 222.441513 L 482.231201 224.101517 L 486.831207 224.461517 L 490.041199 226.781509 L 492.7612 227.831512 L 496.831207 227.801514 L 496.291199 231.621521 L 497.721191 233.071518 L 498.801208 233.501511 L 499.7612 236.421509 L 505.641205 236.361511 L 506.941193 235.611511 L 508.75119 236.351517 L 511.651215 236.201523 L 514.031189 235.311523 L 515.491211 235.411514 L 517.431213 234.541519 L 518.381226 234.671509 L 519.821228 236.441513 L 519.821228 236.441513 L 521.431213 243.921509 L 522.421204 244.041519 L 524.781189 242.811523 L 526.351196 242.971512 L 527.431213 245.071518 L 527.051208 248.331512 L 527.351196 249.601517 L 530.571228 250.801514 L 531.871216 251.89151 L 531.871216 251.89151 L 532.821228 254.201523 L 529.981201 259.131531 L 528.301208 260.361511 L 523.551208 261.761505 L 521.251221 263.021515 L 519.301208 265.801514 L 516.791199 266.971527 L 514.701172 268.591522 L 511.50119 272.521515 L 510.321198 276.881531 L 507.231201 279.16153 L 505.27121 284.281525 L 504.481201 284.921509 L 500.911194 286.061523 L 493.841187 286.461517 L 487.551208 288.331512 L 486.081207 289.89151 L 485.041199 292.521515 L 483.661194 293.861511 L 480.50119 300.261505 L 479.541199 300.821503 L 476.811188 300.571503 L 475.031189 301.991516 L 474.331207 304.221527 L 475.031189 308.441528 L 473.841187 310.921509 L 473.181213 317.421509 L 471.7612 321.781525 L 471.52121 329.131531 L 470.061188 331.531525 L 467.7612 333.501526 L 464.191193 342.961517 L 459.161194 350.511505 L 454.121185 360.781525 L 454.311188 364.731506 L 455.281189 366.691528 L 457.391205 368.031525 L 457.641205 369.771515 L 457.25119 370.861511 L 452.971191 372.551514 L 450.7612 375.221527 L 448.701202 379.421509 L 446.851196 380.621521 L 441.721191 385.791504 L 438.101196 387.451508 L 435.5112 389.721527 L 433.241211 390.051514 L 431.361206 390.941528 L 429.971191 392.511505 L 429.541199 394.601501 L 431.611206 396.721527 L 434.131195 398.171509 L 440.041199 400.131531 L 441.071198 401.461517 L 441.25119 403.081512 L 441.25119 403.081512 L 429.081207 399.301514 L 422.411194 395.631531 L 421.5112 396.091522 L 420.2612 395.341522 L 420.2612 395.341522 L 420.241211 392.881531 L 420.75119 391.451508 L 420.50119 390.171509 L 421.651215 387.751526 L 423.151215 386.371521 L 423.431213 385.701508 L 423.02121 384.501526 L 423.431213 383.681519 L 424.791199 382.671509 L 426.141205 380.671509 L 427.551208 380.051514 L 430.231201 379.841522 L 433.401215 376.64151 L 433.201202 374.66153 L 431.081207 372.041504 L 430.151215 369.981506 L 430.621185 368.241516 L 430.27121 365.601501 L 431.471191 362.371521 L 430.0112 360.39151 L 430.111206 359.39151 L 431.50119 358.031525 L 434.201202 357.571503 L 435.191193 356.591522 L 435.661194 355.41153 L 435.801208 352.501526 L 437.961212 349.731506 L 438.241211 348.371521 L 436.531189 345.551514 L 433.591187 344.231506 L 430.621185 341.361511 L 429.421204 337.881531 L 426.171204 336.471527 L 425.161194 335.091522 L 425.361206 332.621521 L 424.171204 330.121521 L 424.361206 326.561523 L 423.341187 323.631531 L 423.2612 321.991516 L 424.531189 319.951508 L 424.981201 316.251526 L 426.711212 310.791504 L 426.941193 306.881531 L 426.351196 304.581512 L 420.391205 291.201508 L 420.301208 289.341522 L 419.181213 287.15152 L 419.791199 283.811523 L 418.891205 283.351501 L 414.311188 284.64151 L 406.721191 285.121521 L 402.331207 284.14151 L 400.071198 282.941528 L 402.27121 274.341522 L 400.071198 269.221527 L 400.731201 260.65152 L 400.731201 260.65152 L 403.701202 257.021515 L 409.871185 253.521515 L 410.0112 251.881516 L 408.241211 249.301514 L 408.411194 246.031509 L 407.311188 243.311523 L 407.631195 242.191513 L 409.671204 240.931519 L 409.711212 238.251511 L 411.561188 236.701523 L 410.561188 229.89151 Z"/>
    <path id="SV-UN" fill="#42639e" stroke="none" d="M 792.101196 422.871521 L 792.641174 424.051514 L 792.641174 426.261505 L 791.741211 425.431519 L 791.291199 423.961517 L 792.101196 422.871521 Z M 781.281189 408.961517 L 781.551208 409.691528 L 783.621216 409.511505 L 786.161194 410.221527 L 786.601196 412.551514 L 788.131226 415.031525 L 788.491211 416.691528 L 788.671204 417.791504 L 789.01123 419.701508 L 788.401184 420.921509 L 789.471191 422.011505 L 789.391174 423.501526 L 790.561218 424.14151 L 790.181213 425.521515 L 789.301208 425.521515 L 788.221191 426.621521 L 786.51123 426.071503 L 785.341187 427.731506 L 784.711182 427.091522 L 785.341187 425.711517 L 783.831177 424.681519 L 782.821228 424.881531 L 782.461182 425.711517 L 781.471191 426.171509 L 779.681213 426.261505 L 779.671204 424.981506 L 780.221191 424.14151 L 780.131226 421.861511 L 779.501221 421.121521 L 778.421204 420.941528 L 778.781189 420.111511 L 777.971191 419.101501 L 778.421204 418.091522 L 777.881226 416.341522 L 778.961182 414.751526 L 778.241211 411.841522 L 780.041199 409.361511 L 781.281189 408.961517 Z M 765.231201 398.581512 L 768.111206 399.41153 L 769.471191 400.771515 L 769.741211 402.981506 L 770.821228 402.89151 L 771.271179 403.351501 L 770.911194 404.181519 L 771.181213 405.831512 L 770.731201 406.66153 L 769.76123 406.001526 L 769.291199 406.201508 L 768.661194 407.40152 L 768.661194 409.15152 L 767.311218 410.251526 L 766.321228 410.251526 L 762.991211 408.41153 L 762.361206 406.571503 L 762.551208 405.101501 L 761.911194 404.64151 L 761.901184 403.631531 L 761.181213 402.531525 L 761.271179 401.961517 L 762.081177 401.611511 L 761.451172 400.691528 L 761.811218 399.681519 L 762.981201 398.761505 L 765.231201 398.581512 Z M 773.991211 385.121521 L 775.701172 385.781525 L 776.51123 387.801514 L 775.971191 388.351501 L 775.061218 388.16153 L 774.441223 388.90152 L 773.541199 388.721527 L 772.911194 389.271515 L 771.931213 387.791504 L 773.991211 385.121521 Z M 773.441223 381.271515 L 773.711182 381.821503 L 772.441223 382.731506 L 772.361206 382.011505 L 773.441223 381.271515 Z M 773.441223 375.381531 L 773.801208 376.851501 L 772.271179 378.421509 L 770.461182 378.971527 L 770.741211 379.961517 L 769.751221 380.721527 L 770.741211 381.921509 L 770.291199 383.021515 L 770.921204 383.761505 L 768.941223 384.861511 L 766.701172 384.39151 L 764.881226 384.65152 L 765.691223 383.021515 L 765.241211 381.271515 L 765.331177 378.881531 L 764.791199 377.961517 L 765.061218 376.491516 L 766.051208 376.591522 L 766.051208 375.941528 L 766.951172 375.481506 L 766.951172 376.311523 L 767.51123 376.861511 L 768.941223 376.041504 L 770.561218 376.961517 L 771.551208 375.951508 L 773.441223 375.381531 Z M 739.381226 351.591522 L 739.641174 353.751526 L 738.391174 355.771515 L 736.321228 355.961517 L 733.971191 358.261505 L 733.341187 357.331512 L 731.901184 356.701508 L 732.081177 355.691528 L 733.521179 354.951508 L 734.801208 352.461517 L 738.211182 352.561523 L 739.381226 351.591522 Z M 728.041199 182.981522 L 731.091187 185.121521 L 733.151184 185.051514 L 735.061218 186.041519 L 738.801208 185.811523 L 745.441223 188.111511 L 748.571228 188.271515 L 755.061218 186.371521 L 763.131226 192.801514 L 769.931213 195.601517 L 771.141174 196.561523 L 772.131226 198.561523 L 772.821228 205.15152 L 774.061218 206.911514 L 776.121216 208.131516 L 778.101196 210.121521 L 781.081177 210.51152 L 784.131226 212.421509 L 784.591187 215.321518 L 783.881226 223.961517 L 780.441223 229.531509 L 777.691223 232.121521 L 776.321228 235.211517 L 776.461182 237.351517 L 778.461182 238.931519 L 778.711182 240.721512 L 776.741211 245.89151 L 771.441223 251.161514 L 770.151184 253.581512 L 769.701172 256.761505 L 770.681213 264.051514 L 769.821228 271.081512 L 769.111206 272.90152 L 769.041199 282.201508 L 766.831177 284.191528 L 763.271179 289.291504 L 762.561218 292.471527 L 759.481201 293.611511 L 759.51123 294.39151 L 761.26123 295.381531 L 759.661194 296.831512 L 759.021179 298.241516 L 759.351196 300.621521 L 758.51123 303.611511 L 759.931213 306.681519 L 757.861206 309.301514 L 757.991211 310.39151 L 760.431213 311.851501 L 760.911194 314.121521 L 762.731201 313.721527 L 766.181213 315.121521 L 767.211182 314.721527 L 770.141174 312.131531 L 770.871216 312.271515 L 771.661194 314.581512 L 772.591187 314.66153 L 774.251221 313.471527 L 775.831177 313.671509 L 780.211182 315.65152 L 780.451172 317.781525 L 779.401184 320.551514 L 781.541199 328.521515 L 780.001221 332.691528 L 779.861206 335.221527 L 779.151184 336.071503 L 774.361206 335.951508 L 771.171204 338.721527 L 769.941223 338.601501 L 769.031189 337.791504 L 764.26123 341.251526 L 763.51123 342.91153 L 759.331177 343.171509 L 756.601196 347.341522 L 751.131226 347.551514 L 749.151184 345.531525 L 746.361206 344.221527 L 741.851196 343.321503 L 741.041199 342.311523 L 743.201172 337.431519 L 743.291199 336.14151 L 742.661194 335.501526 L 742.391174 334.211517 L 742.751221 333.66153 L 743.921204 333.571503 L 746.351196 334.951508 L 747.981201 334.771515 L 749.851196 332.361511 L 750.311218 330.261505 L 752.201172 328.791504 L 751.751221 328.611511 L 750.221191 329.811523 L 748.421204 330.271515 L 748.241211 331.561523 L 748.691223 332.861511 L 747.781189 334.321503 L 745.991211 334.321503 L 744.731201 333.121521 L 743.651184 332.751526 L 742.031189 333.40152 L 741.951172 336.441528 L 740.231201 337.731506 L 738.611206 340.771515 L 736.26123 343.071503 L 735.901184 344.531525 L 734.461182 346.39151 L 733.931213 348.311523 L 732.461182 350.081512 L 732.561218 353.851501 L 732.201172 354.491516 L 731.481201 354.681519 L 730.131226 353.581512 L 729.861206 353.861511 L 731.391174 355.331512 L 731.481201 356.801514 L 733.01123 357.811523 L 732.561218 360.571503 L 733.101196 362.691528 L 733.821228 363.611511 L 736.431213 364.90152 L 737.601196 364.261505 L 738.331177 364.421509 L 738.591187 365.15152 L 737.971191 366.021515 L 738.781189 367.211517 L 740.481201 367.301514 L 741.571228 368.871521 L 743.271179 369.331512 L 743.991211 369.051514 L 745.701172 370.061523 L 747.301208 370.241516 L 748.871216 372.181519 L 750.561218 372.171509 L 751.191223 373.181519 L 750.291199 374.101501 L 751.281189 376.031525 L 754.531189 377.211517 L 756.871216 379.90152 L 758.041199 379.621521 L 758.691223 380.061523 L 760.021179 382.011505 L 760.021179 382.751526 L 761.641174 383.581512 L 761.731201 384.591522 L 761.01123 384.591522 L 760.291199 383.951508 L 759.211182 384.41153 L 759.031189 386.89151 L 758.401184 387.071503 L 757.681213 388.731506 L 757.411194 390.201508 L 756.151184 391.491516 L 755.341187 391.861511 L 754.991211 392.781525 L 751.831177 394.90152 L 751.741211 396.461517 L 750.751221 396.741516 L 749.491211 399.041504 L 747.421204 399.231506 L 745.171204 402.081512 L 743.461182 402.65152 L 742.921204 403.831512 L 741.381226 403.91153 L 740.671204 404.39151 L 737.711182 404.131531 L 736.161194 404.65152 L 734.721191 406.241516 L 734.361206 407.441528 L 731.381226 408.451508 L 731.121216 409.361511 L 730.121216 410.101501 L 729.131226 410.841522 L 728.501221 411.301514 L 728.051208 411.121521 L 728.141174 410.091522 L 727.151184 410.011505 L 724.101196 411.221527 L 723.741211 412.15152 L 722.741211 412.131531 L 721.391174 413.691528 L 719.591187 413.601501 L 719.141174 413.14151 L 716.801208 415.531525 L 715.901184 415.991516 L 713.831177 417.461517 L 713.111206 418.66153 L 713.291199 419.211517 L 712.661194 419.861511 L 711.76123 419.681519 L 711.041199 420.14151 L 711.041199 420.511505 L 712.121216 420.691528 L 714.191223 420.41153 L 714.371216 419.581512 L 716.981201 417.741516 L 717.791199 415.621521 L 718.331177 415.251526 L 718.331177 417.001526 L 717.341187 419.021515 L 717.611206 423.16153 L 718.871216 424.451508 L 720.851196 424.921509 L 721.211182 425.461517 L 723.021179 425.551514 L 724.361206 428.591522 L 723.281189 430.521515 L 719.861206 430.241516 L 718.601196 430.701508 L 717.431213 429.14151 L 716.091187 428.761505 L 714.731201 429.14151 L 715.631226 430.241516 L 715.181213 430.611511 L 712.661194 428.701508 L 709.411194 427.951508 L 706.171204 428.871521 L 703.551208 427.851501 L 702.741211 428.231506 L 701.751221 427.861511 L 701.481201 429.331512 L 699.951172 429.331512 L 698.421204 428.131531 L 698.781189 427.491516 L 698.51123 426.66153 L 696.981201 426.571503 L 696.891174 427.311523 L 697.431213 427.681519 L 696.711182 427.861511 L 688.431213 426.64151 L 669.401184 425.191528 L 669.041199 424.551514 L 669.931213 423.441528 L 671.581177 423.611511 L 670.301208 422.89151 L 669.76123 422.89151 L 669.321228 423.791504 L 667.601196 425.191528 L 660.101196 424.181519 L 660.101196 424.181519 L 661.271179 414.281525 L 663.941223 406.261505 L 667.01123 399.771515 L 668.871216 399.371521 L 679.111206 400.441528 L 680.141174 399.631531 L 679.471191 385.201508 L 677.26123 378.741516 L 679.291199 373.821503 L 680.891174 367.591522 L 679.171204 363.791504 L 677.231201 362.491516 L 676.401184 361.251526 L 676.881226 360.441528 L 678.631226 360.171509 L 679.681213 359.421509 L 681.531189 352.841522 L 683.311218 349.781525 L 683.791199 348.041504 L 682.101196 347.681519 L 681.071228 346.701508 L 677.971191 345.331512 L 676.01123 341.741516 L 675.021179 336.371521 L 675.361206 331.081512 L 677.371216 322.691528 L 678.991211 321.701508 L 683.551208 320.731506 L 684.071228 319.65152 L 681.521179 307.851501 L 679.941223 304.481506 L 680.881226 301.071503 L 680.621216 298.521515 L 681.911194 296.40152 L 681.911194 296.40152 L 683.061218 295.321503 L 690.031189 292.291504 L 692.941223 288.191528 L 696.051208 279.731506 L 695.591187 276.131531 L 704.861206 256.051514 L 707.501221 247.14151 L 709.231201 243.411514 L 709.861206 236.531509 L 708.371216 233.271515 L 707.741211 228.51152 L 706.891174 227.821518 L 702.301208 228.411514 L 701.591187 227.371521 L 704.241211 215.581512 L 703.841187 206.421509 L 702.371216 198.101517 L 702.321228 195.581512 L 702.791199 191.831512 L 705.331177 185.431519 L 705.331177 185.431519 L 706.091187 186.031509 L 707.311218 185.191513 L 708.531189 185.191513 L 713.031189 187.40152 L 718.76123 183.51152 L 720.211182 183.281509 L 723.421204 184.271515 L 725.401184 184.271515 L 728.041199 182.981522 Z"/>
    <path id="SV-US" fill="#42639e" stroke="none" d="M 539.571228 412.371521 L 540.651184 413.291504 L 540.201172 413.931519 L 540.291199 414.301514 L 540.831177 414.021515 L 540.471191 414.941528 L 539.301208 414.481506 L 538.941223 414.851501 L 537.951172 414.211517 L 538.581177 413.751526 L 538.491211 413.011505 L 539.571228 412.371521 Z M 527.951172 404.091522 L 529.201172 404.451508 L 529.571228 405.841522 L 530.291199 406.39151 L 533.541199 404.371521 L 535.701172 406.211517 L 536.151184 408.051514 L 537.771179 409.611511 L 539.931213 409.431519 L 541.281189 407.681519 L 543.531189 407.861511 L 543.171204 408.961517 L 544.161194 410.431519 L 541.551208 410.521515 L 539.121216 411.531525 L 536.771179 410.981506 L 536.231201 411.621521 L 537.131226 412.821503 L 536.951172 413.281525 L 535.781189 412.081512 L 534.341187 411.991516 L 530.291199 409.871521 L 527.051208 409.961517 L 526.51123 410.421509 L 524.081177 410.791504 L 519.751221 409.781525 L 517.771179 408.40152 L 518.041199 406.381531 L 518.76123 405.65152 L 527.951172 404.091522 Z M 480.091187 400.41153 L 480.631195 401.051514 L 479.911194 401.511505 L 478.381195 401.051514 L 478.471191 400.591522 L 480.091187 400.41153 Z M 464.051208 395.171509 L 466.121185 396.271515 L 466.121185 397.741516 L 465.401215 398.381531 L 464.231201 397.741516 L 464.231201 396.541504 L 463.691193 395.801514 L 463.691193 395.16153 L 464.051208 395.16153 Z M 467.661194 394.711517 L 469.551208 395.451508 L 470.641205 394.971527 L 471.181213 396.191528 L 474.5112 397.66153 L 477.301208 396.921509 L 478.651215 397.751526 L 476.221191 398.581512 L 474.151215 398.671509 L 472.601196 399.41153 L 471.00119 396.561523 L 469.561188 396.101501 L 467.131195 396.281525 L 466.591187 395.181519 L 467.661194 394.711517 Z M 475.951202 394.15152 L 476.221191 394.791504 L 475.861206 395.441528 L 475.411194 395.90152 L 474.601196 395.621521 L 475.321198 394.331512 L 475.951202 394.15152 Z M 533.811218 394.061523 L 535.791199 394.521515 L 535.791199 397.371521 L 536.241211 398.571503 L 537.951172 399.40152 L 541.01123 402.251526 L 542.631226 404.181519 L 542.631226 405.101501 L 543.351196 405.561523 L 542.631226 406.571503 L 540.021179 407.031525 L 539.481201 408.591522 L 537.321228 408.501526 L 536.151184 405.65152 L 533.421204 403.941528 L 530.291199 405.881531 L 529.661194 404.64151 L 528.851196 403.721527 L 528.76123 402.991516 L 531.291199 398.801514 L 530.891174 396.241516 L 531.001221 394.621521 L 531.871216 394.281525 L 533.811218 394.061523 Z M 492.621185 393.691528 L 493.071198 394.701508 L 491.811188 395.251526 L 491.091187 394.511505 L 491.181213 394.051514 L 492.621185 393.691528 Z M 509.75119 392.591522 L 511.371185 393.331512 L 512.181213 395.721527 L 517.591187 401.241516 L 517.771179 401.981506 L 516.601196 403.451508 L 515.791199 403.451508 L 513.181213 400.871521 L 511.831207 400.501526 L 510.481201 399.301514 L 510.571198 398.751526 L 509.401215 398.291504 L 507.421204 394.521515 L 509.75119 392.591522 Z M 531.871216 251.89151 L 534.161194 252.341522 L 536.061218 252.071518 L 537.891174 253.551514 L 538.481201 252.991516 L 539.101196 253.351517 L 539.931213 253.01152 L 541.611206 253.291519 L 542.711182 251.811523 L 543.441223 251.831512 L 545.811218 253.101517 L 549.901184 258.491516 L 551.901184 259.021515 L 552.501221 260.041504 L 554.271179 261.381531 L 555.081177 262.921509 L 556.911194 262.851501 L 560.371216 264.751526 L 562.791199 264.41153 L 564.321228 262.811523 L 565.551208 262.291504 L 567.111206 262.261505 L 568.151184 263.15152 L 569.571228 270.761505 L 568.401184 273.821503 L 568.351196 276.431519 L 569.071228 278.011505 L 571.561218 279.361511 L 571.951172 280.15152 L 571.921204 281.16153 L 570.991211 282.361511 L 570.861206 283.361511 L 571.641174 286.721527 L 571.251221 287.41153 L 570.671204 287.461517 L 568.591187 285.101501 L 567.281189 284.721527 L 566.101196 285.231506 L 565.831177 287.331512 L 566.811218 291.231506 L 565.101196 296.031525 L 566.571228 297.281525 L 570.291199 299.231506 L 571.381226 315.281525 L 570.661194 317.711517 L 568.431213 319.421509 L 567.531189 320.731506 L 568.271179 324.461517 L 567.991211 326.561523 L 566.221191 327.321503 L 563.191223 326.551514 L 562.361206 327.051514 L 561.661194 334.431519 L 562.601196 335.071503 L 564.481201 334.191528 L 566.341187 334.281525 L 566.921204 335.271515 L 567.481201 339.15152 L 569.321228 340.721527 L 569.421204 343.531525 L 567.911194 347.121521 L 568.661194 353.531525 L 567.371216 356.421509 L 567.321228 357.89151 L 568.551208 359.731506 L 572.021179 361.281525 L 573.161194 362.831512 L 574.111206 363.14151 L 574.831177 364.64151 L 575.971191 364.881531 L 576.641174 366.451508 L 576.691223 370.091522 L 578.041199 370.611511 L 584.751221 370.431519 L 587.741211 371.131531 L 593.51123 370.441528 L 594.301208 370.741516 L 593.911194 374.021515 L 595.881226 378.011505 L 596.681213 381.871521 L 595.791199 383.331512 L 590.131226 385.931519 L 587.201172 389.351501 L 587.231201 390.271515 L 588.581177 392.281525 L 588.181213 397.311523 L 588.581177 398.501526 L 589.351196 399.341522 L 590.971191 399.681519 L 592.891174 398.751526 L 596.581177 398.381531 L 599.621216 397.311523 L 599.801208 396.41153 L 596.361206 391.601501 L 596.271179 389.131531 L 598.161194 382.081512 L 599.111206 381.681519 L 599.991211 382.571503 L 600.481201 382.531525 L 601.201172 379.941528 L 602.181213 380.571503 L 602.561218 379.191528 L 603.911194 380.051514 L 606.171204 380.261505 L 606.671204 380.701508 L 605.561218 381.291504 L 606.671204 381.64151 L 607.51123 383.001526 L 611.451172 381.971527 L 612.491211 383.041504 L 613.021179 381.861511 L 614.101196 382.091522 L 614.571228 380.941528 L 615.201172 380.831512 L 616.311218 382.441528 L 614.291199 388.721527 L 614.841187 389.101501 L 616.611206 388.291504 L 617.981201 388.571503 L 619.281189 390.071503 L 621.51123 391.571503 L 623.361206 394.65152 L 623.171204 395.371521 L 618.091187 399.741516 L 617.371216 401.051514 L 617.221191 402.691528 L 617.911194 404.081512 L 619.381226 405.40152 L 620.901184 405.771515 L 624.931213 403.371521 L 637.151184 404.851501 L 639.291199 409.731506 L 647.341187 420.121521 L 650.961182 425.731506 L 650.961182 425.731506 L 650.781189 426.15152 L 649.611206 425.781525 L 649.791199 426.521515 L 648.891174 426.981506 L 647.271179 425.971527 L 641.411194 425.241516 L 639.611206 425.15152 L 639.431213 425.89151 L 639.071228 425.89151 L 637.451172 425.061523 L 635.921204 426.351501 L 635.111206 426.351501 L 634.751221 425.621521 L 629.251221 425.441528 L 628.351196 426.821503 L 627.001221 426.731506 L 626.461182 426.001526 L 625.741211 425.91153 L 625.561218 426.551514 L 624.481201 426.371521 L 623.851196 427.571503 L 622.771179 427.021515 L 622.411194 428.221527 L 619.981201 427.761505 L 619.801208 428.501526 L 619.351196 428.591522 L 618.991211 427.671509 L 618.001221 427.581512 L 617.641174 428.591522 L 617.101196 428.591522 L 616.741211 427.951508 L 615.661194 427.491516 L 610.431213 426.751526 L 608.721191 425.371521 L 606.741211 426.291504 L 604.581177 426.201508 L 593.311218 424.201508 L 576.821228 423.351501 L 575.651184 422.621521 L 575.831177 421.701508 L 579.081177 419.861511 L 581.431213 419.681519 L 583.051208 418.671509 L 583.951172 420.14151 L 584.76123 420.511505 L 584.941223 421.061523 L 584.491211 421.611511 L 585.121216 422.16153 L 585.391174 420.321503 L 584.581177 419.771515 L 584.041199 418.481506 L 582.871216 418.39151 L 581.971191 419.031525 L 581.161194 418.66153 L 582.331177 416.731506 L 584.401184 417.191528 L 584.941223 416.64151 L 584.311218 416.921509 L 582.51123 416.191528 L 582.061218 413.981506 L 581.251221 413.341522 L 579.901184 413.16153 L 577.651184 411.511505 L 576.211182 407.741516 L 576.121216 406.181519 L 574.951172 405.351501 L 574.951172 406.001526 L 575.581177 406.551514 L 575.581177 407.011505 L 575.131226 407.001526 L 573.331177 405.291504 L 573.331177 404.89151 L 572.341187 404.611511 L 575.681213 407.831512 L 575.861206 410.221527 L 577.571228 412.701508 L 578.471191 413.621521 L 581.171204 414.361511 L 581.891174 415.281525 L 581.711182 416.201508 L 578.281189 418.681519 L 577.651184 418.591522 L 576.031189 418.041504 L 575.041199 416.571503 L 570.351196 415.65152 L 568.641174 414.271515 L 568.01123 413.081512 L 568.01123 411.981506 L 567.561218 411.701508 L 567.561218 413.081512 L 568.191223 414.371521 L 569.901184 416.121521 L 573.421204 417.781525 L 573.151184 418.521515 L 570.541199 418.89151 L 569.01123 420.181519 L 568.291199 419.811523 L 566.581177 420.361511 L 561.26123 419.991516 L 559.641174 420.631531 L 558.021179 422.65152 L 561.001221 421.271515 L 562.801208 422.011505 L 564.421204 421.371521 L 564.961182 422.271515 L 565.681213 422.291504 L 566.671204 423.211517 L 568.021179 422.291504 L 568.111206 423.39151 L 569.01123 423.761505 L 570.271179 423.301514 L 570.901184 422.291504 L 571.081177 423.581512 L 569.281189 424.591522 L 567.481201 424.311523 L 563.241211 425.14151 L 562.341187 424.861511 L 558.461182 426.241516 L 552.331177 426.15152 L 550.081177 424.861511 L 548.371216 423.211517 L 545.031189 418.061523 L 545.211182 416.501526 L 546.561218 413.931519 L 547.641174 413.011505 L 548.811218 413.101501 L 554.671204 416.501526 L 559.181213 416.321503 L 556.661194 415.681519 L 553.781189 415.961517 L 550.361206 413.39151 L 550.091187 412.751526 L 550.451172 412.381531 L 552.701172 411.831512 L 554.861206 411.921509 L 555.941223 410.821503 L 554.411194 411.39151 L 548.911194 411.65152 L 547.831177 408.621521 L 546.391174 407.331512 L 543.151184 402.731506 L 536.571228 397.581512 L 536.301208 394.821503 L 535.501221 394.081512 L 532.691223 393.90152 L 530.891174 394.541504 L 530.441223 395.741516 L 530.891174 397.581512 L 530.531189 399.791504 L 527.921204 403.65152 L 525.941223 403.931519 L 524.231201 403.381531 L 523.781189 403.931519 L 520.721191 404.021515 L 520.541199 403.011505 L 519.01123 402.551514 L 516.671204 398.41153 L 515.141174 397.311523 L 513.341187 395.101501 L 512.441223 394.731506 L 512.26123 393.071503 L 511.361206 393.071503 L 510.101196 392.061523 L 504.601196 391.601501 L 503.431213 390.131531 L 502.2612 390.311523 L 502.081207 390.961517 L 500.641205 391.051514 L 499.471191 390.131531 L 498.301208 390.131531 L 497.851196 390.591522 L 497.401215 389.491516 L 496.951202 389.40152 L 492.351196 389.40152 L 491.901215 389.121521 L 491.991211 388.571503 L 493.791199 388.66153 L 494.421204 387.921509 L 494.331207 386.91153 L 492.711212 385.90152 L 492.801208 385.351501 L 491.991211 386.451508 L 492.991211 386.40152 L 493.711212 386.881531 L 493.961212 387.91153 L 492.2612 388.011505 L 489.291199 389.301514 L 488.391205 387.64151 L 488.301208 386.171509 L 487.311188 385.16153 L 485.691193 384.981506 L 484.52121 383.601501 L 483.981201 381.941528 L 482.451202 381.201508 L 482.181213 381.751526 L 483.531189 382.121521 L 484.971191 385.341522 L 487.221191 386.351501 L 487.221191 387.271515 L 485.421204 388.011505 L 484.691193 387.181519 L 483.451202 387.071503 L 482.811188 387.741516 L 482.811188 388.751526 L 483.2612 388.931519 L 482.901215 389.39151 L 481.101196 388.931519 L 481.281189 387.64151 L 480.651215 386.90152 L 478.041199 386.90152 L 477.411194 387.091522 L 477.411194 385.701508 L 476.961212 385.241516 L 475.611206 386.071503 L 476.241211 386.441528 L 476.961212 385.701508 L 476.961212 387.171509 L 477.77121 387.631531 L 478.401215 387.261505 L 480.02121 387.631531 L 480.561188 389.191528 L 482.181213 389.831512 L 484.071198 389.831512 L 484.971191 389.371521 L 481.911194 393.881531 L 479.391205 393.511505 L 478.131195 393.791504 L 477.321198 393.241516 L 474.981201 393.15152 L 474.171204 394.16153 L 472.911194 394.341522 L 470.481201 392.871521 L 467.601196 392.501526 L 465.711212 394.061523 L 465.981201 395.16153 L 465.081207 395.251526 L 463.0112 393.961517 L 460.211212 393.321503 L 458.951202 393.961517 L 457.961212 393.41153 L 458.051208 394.15152 L 459.491211 394.611511 L 461.02121 393.881531 L 462.0112 394.89151 L 461.921204 396.181519 L 460.481201 396.271515 L 460.301208 396.821503 L 459.311188 397.281525 L 460.391205 397.281525 L 461.201202 396.731506 L 461.741211 397.371521 L 461.651215 399.211517 L 462.0112 399.39151 L 462.731201 399.021515 L 463.361206 397.731506 L 465.25119 399.201508 L 466.421204 399.201508 L 467.591187 397.731506 L 468.941193 397.361511 L 470.111206 399.481506 L 473.361206 401.41153 L 475.341187 401.321503 L 475.881195 400.40152 L 476.961212 400.031525 L 477.951202 400.671509 L 478.7612 402.231506 L 479.931213 402.41153 L 481.101196 401.40152 L 480.831207 399.931519 L 483.631195 398.741516 L 484.981201 396.721527 L 485.701202 396.631531 L 485.881195 397.371521 L 486.5112 397.371521 L 488.041199 396.821503 L 487.951202 396.361511 L 488.491211 396.181519 L 490.921204 396.64151 L 496.241211 394.341522 L 497.411194 394.341522 L 499.391205 396.271515 L 501.641205 396.551514 L 502.541199 397.841522 L 502.361206 399.221527 L 503.171204 399.131531 L 504.791199 400.421509 L 507.041199 403.271515 L 508.841187 404.561523 L 512.991211 409.801514 L 512.451172 410.441528 L 511.731201 410.331512 L 510.02121 409.15152 L 508.7612 408.971527 L 506.421204 408.971527 L 502.631195 409.801514 L 499.661194 408.421509 L 498.851196 406.861511 L 497.77121 406.40152 L 495.611206 406.581512 L 493.451202 408.051514 L 497.331207 406.761505 L 500.571198 409.801514 L 502.731201 410.631531 L 507.151215 410.631531 L 509.131195 411.831512 L 512.291199 412.381531 L 516.611206 412.011505 L 518.681213 413.481506 L 519.401184 414.681519 L 521.021179 415.331512 L 521.741211 416.531525 L 523.901184 415.89151 L 525.881226 416.351501 L 526.421204 416.90152 L 529.121216 416.721527 L 530.021179 417.551514 L 530.831177 417.551514 L 531.911194 418.65152 L 531.641174 419.021515 L 530.831177 418.741516 L 531.01123 419.66153 L 533.621216 422.881531 L 534.791199 422.701508 L 534.881226 421.871521 L 534.431213 421.501526 L 534.791199 420.951508 L 537.941223 419.941528 L 538.481201 423.251526 L 538.841187 423.711517 L 539.651184 423.531525 L 539.651184 424.271515 L 535.231201 424.271515 L 524.51123 420.501526 L 506.581207 416.731506 L 490.541199 412.781525 L 465.7612 408.091522 L 452.241211 406.621521 L 441.331207 403.221527 L 441.331207 403.221527 L 441.161194 401.601501 L 440.121185 400.271515 L 434.211212 398.311523 L 431.691193 396.871521 L 429.621185 394.741516 L 430.041199 392.66153 L 431.441193 391.081512 L 433.321198 390.201508 L 435.591187 389.871521 L 438.191193 387.601501 L 441.801208 385.941528 L 446.941193 380.781525 L 448.791199 379.571503 L 450.841187 375.371521 L 453.061188 372.711517 L 457.331207 371.011505 L 457.721191 369.921509 L 457.471191 368.181519 L 455.361206 366.851501 L 454.391205 364.89151 L 454.211212 360.941528 L 459.241211 350.671509 L 464.27121 343.121521 L 467.841187 333.66153 L 470.141205 331.691528 L 471.611206 329.291504 L 471.851196 321.941528 L 473.2612 317.581512 L 473.921204 311.081512 L 475.111206 308.601501 L 474.411194 304.381531 L 475.111206 302.16153 L 476.891205 300.741516 L 479.621185 300.991516 L 480.581207 300.431519 L 483.75119 294.021515 L 485.131195 292.681519 L 486.171204 290.051514 L 487.641205 288.501526 L 493.931213 286.631531 L 501.00119 286.231506 L 504.571198 285.091522 L 505.361206 284.451508 L 507.321198 279.341522 L 510.411194 277.051514 L 511.591187 272.691528 L 514.791199 268.761505 L 516.891174 267.14151 L 519.401184 265.971527 L 521.351196 263.191528 L 523.661194 261.931519 L 528.401184 260.531525 L 530.081177 259.301514 L 532.921204 254.361511 L 531.871216 251.89151 Z"/>
</svg>
