<?xml version="1.0" encoding="UTF-8"?>
<!-- Generated by Pixelmator Pro 3.1.1 -->
<svg width="1200" height="1200" viewBox="0 0 1200 1200" xmlns="http://www.w3.org/2000/svg" xmlns:xlink="http://www.w3.org/1999/xlink">
    <path id="Path" fill="#42639e" stroke="none" d="M 1123.343994 862.517029 C 1123.321045 862.578003 1123.296997 862.632996 1123.272949 862.689026 C 1123.417969 863.257019 1123.506958 863.893005 1123.436035 864.609985 C 1123.224976 866.778992 1121.564941 868.585999 1119.406006 869.153992 L 1119.272949 870.133972 C 1119.07605 871.603027 1118.05896 872.830017 1116.654053 873.296997 C 1116.093994 873.481018 1115.509033 873.536987 1114.94397 873.463989 C 1114.140015 874.070007 1112.909058 874.835022 1111.253052 874.835022 C 1111.114014 874.835022 1110.972046 874.830017 1110.82605 874.817017 C 1108.139038 874.609985 1106.78894 872.590027 1106.140015 871.617981 C 1106.112061 871.578003 1106.08606 871.534973 1106.057983 871.494019 C 1105.535034 871.327026 1104.814941 871.007019 1104.156006 870.35498 C 1103.000977 869.229004 1102.817993 867.846008 1102.749023 867.315002 C 1102.687012 866.848022 1102.542969 866.23999 1102.390015 865.559998 C 1101.715942 862.546021 1100.875977 858.796997 1102.432007 855.979004 C 1103.098999 854.775024 1104.213989 853.929016 1105.60498 852.952026 C 1105.781982 852.828003 1105.937988 852.719971 1106.046021 852.635986 C 1106.899048 851.375977 1108.447021 849.802979 1111.796997 850.310974 C 1113.26001 850.536011 1115.078003 850.815979 1116.824951 851.689026 C 1119.137939 852.843018 1120.796021 854.85498 1121.31604 857.119019 C 1122.139038 857.585999 1122.807007 858.29303 1123.208984 859.140991 C 1123.720947 860.218994 1123.769043 861.416016 1123.343994 862.517029 Z M 1147.969971 883.119995 L 1148.072021 882.750977 C 1148.274048 882.054016 1148.54895 881.10199 1148.495972 879.939026 C 1148.397949 877.661987 1147.149048 876.075989 1146.321045 875.026001 C 1146.103027 874.747986 1145.770996 874.327026 1145.729004 874.268982 C 1145.694946 874.085022 1145.699951 873.890015 1145.692993 873.695984 C 1145.652954 872.737 1145.58606 871.125977 1144.546021 869.614014 C 1142.197998 866.208008 1133.703003 865.468994 1133.620972 865.463989 C 1129.482056 865.27002 1126.416016 867.554016 1125.521973 871.690002 C 1124.640991 875.776978 1125.421021 879.736023 1126.109009 883.22699 C 1126.55603 885.497009 1126.978027 887.643005 1126.935059 889.606995 C 1126.935059 889.609985 1126.935059 889.609985 1126.935059 889.612 C 1126.918945 890.354004 1126.892944 891.593994 1127.473999 892.893982 C 1128.456055 895.090027 1130.713013 896.335022 1132.983032 895.94397 C 1133.464966 895.861023 1133.895996 895.711975 1134.276978 895.526978 C 1135.437012 896.440979 1137.144043 897.10498 1139.656982 897.10498 C 1140.16394 897.10498 1140.706055 897.080017 1141.282959 897.021973 C 1141.947998 896.955994 1143.187012 896.835022 1144.396973 896.067993 C 1145.095947 895.620972 1145.589966 895.080994 1146 894.560974 C 1146.937012 894.372009 1148.415039 893.874023 1149.35498 892.276001 C 1150.099976 891.010986 1150.57605 888.948975 1148.608032 886.302979 C 1147.953003 885.427002 1147.703979 884.174988 1147.969971 883.119995 Z M 1130.286987 838.387024 C 1130.261963 836.609985 1129.439941 834.906006 1128.032959 833.708984 C 1126.624023 832.515015 1124.807983 831.987 1123.051025 832.242004 C 1122.755981 832.286987 1122.473999 832.362976 1122.207031 832.46698 C 1122.108032 832.47998 1122.009033 832.512024 1121.910034 832.53302 C 1122.123047 831.669983 1122.084961 830.900024 1121.932983 830.31897 C 1123.44104 829.263977 1124.688965 827.85498 1125.61499 826.117981 C 1126.620972 825.382996 1127.238037 824.187012 1127.203003 822.883972 L 1127.180054 822.036011 C 1127.149048 820.843994 1126.569946 819.736023 1125.61499 819.023987 C 1124.781006 818.411011 1121.870972 816.721985 1117.962036 819.783997 C 1116.685059 818.986023 1114.087036 817.567017 1110.838013 819.314026 C 1107.239014 821.244995 1106.819946 825.440002 1106.874023 828.929993 C 1106.659058 828.674988 1106.420044 828.440002 1106.140991 828.245972 L 1099.152954 823.370972 C 1098.91394 823.203979 1098.469971 822.893982 1098.354004 822.721985 C 1098.102051 822.187012 1097.631958 821.195007 1096.572998 820.401978 C 1095.61499 819.684998 1094.630005 819.474976 1093.905029 819.362 C 1093.675049 819.010986 1093.355957 818.289001 1093.134033 817.783997 C 1092.438965 816.208984 1091.572998 814.247009 1089.75 812.812988 C 1087.994995 811.434998 1086.06897 811.093994 1084.521973 810.81897 C 1084.012939 810.731018 1083.5 810.651978 1083.015015 810.492981 C 1082.000977 810.161987 1080.899048 809.247986 1079.730957 808.283997 C 1077.879028 806.752014 1075.779053 805.015015 1072.82605 804.416016 C 1072.51001 804.349976 1072.188965 804.302002 1071.86499 804.257019 C 1071.725952 804.237 1071.584961 804.223999 1071.447021 804.198975 C 1071.375977 804.125977 1071.312988 804.052979 1071.255981 803.992004 C 1070.920044 803.559998 1070.562012 802.252991 1070.532959 801.471985 C 1070.706055 801.351013 1071.012939 801.177002 1071.484985 800.997009 L 1072.125977 800.76001 C 1073.704956 800.184021 1075.865967 799.398987 1077.406006 797.424988 C 1078.849976 795.573975 1079.17395 792.857971 1078.21106 790.666992 C 1077.357056 788.723022 1075.630981 787.466003 1073.602051 787.302002 C 1072.811035 787.241028 1072.093994 787.335022 1071.456055 787.533997 L 1071.718994 785.372986 L 1071.814941 785.309998 C 1074.380005 783.572998 1075.942993 781.083984 1077.045044 778.692993 C 1077.453979 779.520996 1078.156982 780.205017 1079.072021 780.573975 C 1085.412964 783.133972 1091.983032 784.117981 1098.078003 783.406982 C 1102.942017 782.843994 1106.198975 780.508972 1107.037964 776.994995 C 1107.634033 776.98999 1108.234985 776.893982 1108.823975 776.702026 C 1110.748047 776.078003 1112.532959 774.419983 1113.598022 772.260986 L 1113.765991 771.919983 C 1113.935059 771.577026 1114.182983 771.06897 1114.391968 770.721008 C 1114.823975 770.745972 1115.395996 770.758972 1116.030029 770.65802 C 1116.983032 771.625 1118.266968 772.184998 1119.677979 772.228027 C 1122.32605 772.286011 1124.621948 770.58197 1125.760986 769.080017 L 1126.036011 768.708984 C 1126.14502 768.562988 1126.281982 768.377991 1126.421997 768.195984 C 1126.454956 768.213989 1126.488037 768.229004 1126.52002 768.247009 C 1128.859009 769.395996 1131.671021 769.434021 1134.03894 768.349976 C 1134.437988 768.16803 1134.802979 767.921021 1135.119995 767.617981 C 1138.06604 764.784973 1137.892944 760.958008 1137.767944 758.161011 C 1137.724976 757.19397 1137.682983 756.280029 1137.759033 755.538025 L 1137.824951 755.02301 C 1137.939941 754.187012 1138.095947 753.041016 1137.834961 751.736023 C 1137.630981 750.721008 1137.227051 749.906006 1136.823975 749.094971 C 1135.31897 745.98999 1135.23999 742.098999 1136.616943 738.939026 C 1137.338989 737.28302 1136.821045 735.346985 1135.369995 734.273987 C 1133.588013 732.953979 1131.369995 731.309998 1128.52002 730.70697 C 1127.052979 730.393982 1125.58606 730.421997 1124.238037 730.75 C 1124.062988 730.538025 1123.876953 730.333008 1123.68103 730.137024 C 1121.871948 728.312012 1119.45105 727.372986 1117.026001 727.541992 C 1115.420044 727.65802 1114.055054 728.755981 1113.593018 730.296021 C 1113.564941 730.388977 1113.536011 730.47998 1113.505981 730.565979 C 1113.081055 730.307983 1112.63501 730.091003 1112.176025 729.914978 C 1112.161987 729.796021 1112.140991 729.677979 1112.11499 729.559021 C 1111.802979 728.150024 1110.738037 727.031982 1109.347046 726.653015 C 1108.847046 726.517029 1108.360962 726.43103 1107.901978 726.369995 C 1109.015015 724.820007 1109.375 722.70697 1108.73999 720.937012 C 1108.504028 720.278015 1108.137939 719.695007 1107.677002 719.215027 C 1107.262939 716.58197 1108.285034 713.802002 1110.128052 710.124023 C 1110.383057 709.617004 1110.522949 709.065979 1110.545044 708.513 C 1111.878052 707.484985 1112.79895 705.791992 1113.292969 703.448975 C 1114.03894 699.916992 1115.06897 697.882019 1116.446045 697.223022 L 1116.739014 697.09198 C 1117.234009 696.877014 1117.982056 696.552002 1118.715942 695.958008 C 1121.17395 693.973999 1121.300049 690.857971 1121.354004 689.530029 C 1121.858032 677.310974 1121.702026 664.937988 1120.891968 652.71698 C 1125.915039 648.323975 1129.078979 644.091003 1131.046021 639.182983 C 1131.406982 638.283997 1131.734009 637.367981 1132.079956 636.395996 L 1132.682007 634.697021 C 1132.922974 634.02002 1133.370972 632.755981 1133.123047 631.232971 C 1132.859009 629.64502 1131.968018 628.565002 1131.48999 627.984009 L 1130.519043 626.807983 C 1131.418945 626.164001 1132.031006 625.143982 1132.128052 623.973022 C 1132.215942 622.91803 1132.357056 621.859985 1132.547974 620.809998 C 1136.026978 618.866028 1138.631958 615.067017 1139.999023 609.853027 C 1141.274048 604.997986 1141.531006 599.809998 1140.740967 594.843994 C 1140.613037 594.046021 1140.437012 593.187988 1140.010986 592.291992 C 1138.802979 589.757019 1136.416992 588.643982 1134.988037 587.97699 C 1131.964966 586.567993 1128.918945 585.104004 1125.906982 583.61499 C 1125.879028 582.726013 1125.839966 581.862976 1125.800049 581 C 1125.730957 579.505005 1125.660034 578.007996 1125.668945 576.367004 C 1125.672974 575.763977 1125.680054 574.505981 1124.932983 573.242004 C 1124.10498 571.835999 1122.822021 571.22998 1122.071045 570.875977 C 1121.281982 570.48999 1120.463989 569.53302 1119.598999 568.520996 C 1118.979004 567.796021 1118.276001 566.973022 1117.463013 566.216003 C 1114.730957 563.669006 1111.100952 562.208984 1107.401001 562.067993 C 1106.667969 560.765015 1105.509033 559.560974 1103.974976 558.575989 L 1103.521973 558.288025 C 1103.108032 558.025024 1102.473022 557.624023 1102.123047 557.328979 C 1102.198975 557.166992 1102.32605 556.927979 1102.541992 556.586975 C 1104.866943 552.93103 1102.954956 548.586975 1101.689941 545.710999 C 1101.491943 545.262024 1101.302979 544.835022 1101.145996 544.440979 C 1100.557983 542.963989 1099.130005 541.997009 1097.542969 541.997009 C 1097.527954 541.997009 1097.512939 541.997009 1097.499023 541.997009 C 1093.85498 542.039978 1090.176025 542.289978 1086.571045 542.739014 C 1083.609985 543.10498 1080.531006 543.745972 1078.078003 545.916992 C 1075.876953 547.866028 1074.849976 550.502014 1074.235962 552.747986 C 1072.56604 553.301025 1072.116943 553.038025 1072.016968 552.950012 C 1071.655029 552.624023 1071.047974 552.078979 1070.107056 551.700012 C 1067.921021 550.828979 1066.01001 551.700012 1065.090942 552.122009 C 1065.034058 552.146973 1064.975952 552.174988 1064.927979 552.197998 C 1064.744995 552.14502 1064.562988 552.067017 1064.379028 551.999023 C 1064.045044 551.880005 1063.709961 551.762024 1063.381958 551.663025 C 1062.199951 551.304016 1061.051025 551.18103 1060.128052 551.080017 L 1051.860962 550.176025 C 1050.890015 550.070007 1048.607056 549.828003 1046.723999 551.471008 C 1046.140015 551.981018 1045.739014 552.546997 1045.454956 553.083984 C 1044.203979 552.877014 1042.484009 552.900024 1040.970947 554.28302 C 1040.45105 554.757996 1040.069946 555.369019 1039.869995 556.044983 L 1039.744995 556.46698 L 1036.732056 554.408997 C 1036.238037 554.072998 1035.321045 553.447021 1034.042969 553.26001 C 1032.509033 553.03302 1031.267944 553.539978 1030.602051 553.812988 L 1030.503052 553.895996 C 1030.430054 553.882996 1029.732056 553.734009 1028.047974 551.932007 C 1026.672974 550.458008 1024.405029 550.288025 1022.820984 551.526001 C 1022.078979 552.109009 1021.603027 552.911987 1021.419983 553.77301 C 1021.221008 553.807983 1021.015015 553.817993 1020.812012 553.835999 C 1019.786011 553.924011 1018.237 554.060974 1016.750977 555.065002 C 1015.768005 555.734009 1015.155029 556.570007 1014.749023 557.122986 C 1014.719971 557.163025 1014.692017 557.203979 1014.669006 557.239014 C 1014.541016 557.252014 1014.413025 557.257019 1014.28302 557.267029 C 1013.546021 557.333008 1012.536011 557.421021 1011.471008 557.835022 C 1009.892029 558.450989 1008.843994 559.518982 1007.924988 560.455994 C 1007.203003 561.190979 1006.442017 561.88501 1005.63501 562.541016 C 1005.586975 561.728027 1005.497009 560.914978 1005.364014 560.106995 C 1005.263 559.499023 1005.023987 558.067017 1003.877991 556.844971 C 1002.685974 555.580017 1001.239014 555.284973 1000.460022 555.125977 L 1000.310974 555.112976 C 1000.088013 554.984009 999.564026 554.372986 999.338989 554.111023 C 996.888 551.250977 994.354004 548.291992 993.153015 545 L 993.018982 544.624023 C 992.637024 543.538025 992.116028 542.062012 990.872986 540.802002 C 990.869019 540.33197 990.820007 539.757019 990.632996 539.132996 C 990.112 537.398987 988.848022 536.383972 988.241028 535.893982 L 984.552979 532.924988 C 984.468018 532.495972 984.374023 532.083984 984.284973 531.695984 C 984.127014 531.008972 983.97699 530.359985 983.945007 529.885986 C 983.877014 528.835999 983.781982 527.398987 983.187988 525.947998 C 982.755981 524.893005 982.163025 524.072021 981.687012 523.411011 L 981.413025 523.026978 C 979.739014 520.619019 978.992004 517.570984 979.364014 514.663025 C 979.463989 513.880005 979.698975 512.047974 978.370972 510.380981 C 977.283997 509.030029 975.843994 508.702026 975.221985 508.557983 L 960.539001 505.223022 C 957.927002 504.61499 954.643982 505.89502 952.984009 507.464966 C 952.655029 507.778015 952.341003 508.115967 952.031006 508.454956 C 951.807983 508.700012 951.468994 509.071045 951.46698 509.101013 C 951.284973 509.151978 950.716003 509.145996 950.338989 509.134033 C 949.414978 509.125977 948.223022 509.101013 946.960022 509.464966 C 945.783997 508.596985 944.29303 508.129028 942.778015 508.245972 C 940.848022 508.375 939.14801 509.415039 938.22998 511.02002 C 938.14801 511.164001 938.073975 511.309998 937.999023 511.471985 C 936.729004 511.997009 935.159973 512.213989 933.578003 512.377991 C 932.687012 511.754028 931.815979 511.333008 931.041992 510.957031 C 930.437012 510.661987 929.914978 510.408997 929.515015 510.120972 C 928.187012 509.171997 926.820007 508.841003 925.471985 509.153992 C 924.59198 509.348022 923.927979 509.761963 923.440979 510.188965 C 923.291992 510.062988 923.143982 509.93103 922.994995 509.802979 C 921.78302 508.73999 919.953003 507.13501 917.288025 507.039001 C 915.413025 506.973022 914.01001 507.662964 912.955994 508.161987 C 912.758972 508.255005 912.497009 508.379028 912.296997 508.462036 C 912.078979 508.325989 911.781006 508.104004 911.546997 507.932007 C 910.34198 507.041016 908.895996 506.05603 907.013977 505.661987 C 904.231995 505.075989 901.382019 506.141968 899.914001 508.312988 C 898.95697 509.731995 898.799011 511.254028 898.705994 512.163025 C 898.458984 514.578979 898.177002 517.317993 898.60498 520.135986 C 899.148987 523.721008 900.804993 526.747986 903.268005 528.661011 C 903.66803 528.971985 904.10498 529.263977 904.544006 529.557007 C 904.737976 529.682983 904.987976 529.849976 905.195007 529.999023 C 904.942993 531.005981 904.627991 532.002991 904.257019 532.978027 C 899.054993 533.52301 893.309021 534.51001 888.245972 535.434021 C 887.098999 535.643982 886.107971 536.35498 885.544983 537.377991 C 884.982971 538.39801 884.909973 539.617004 885.346008 540.697998 C 886.072021 542.500977 885.416992 544.856018 883.984985 546.221985 C 881.166016 544.29303 877.122986 544.671997 873.687012 547.262024 C 873.192993 547.632996 872.710999 548.034973 872.22998 548.437988 C 871.343994 549.182983 870.426025 549.953003 869.781982 550.083984 L 869.492981 550.133972 C 868.648987 550.27301 867.075989 550.53302 865.788025 551.853027 C 864.677979 552.992004 864.369019 554.356995 864.218994 555.010986 L 864.054993 555.736023 C 861.187988 555.205994 858.133972 555.153015 855.31897 555.10199 C 854.028992 555.078979 852.791016 555.057007 851.671021 554.982971 C 850.27002 554.88501 848.905029 555.575989 848.14502 556.77301 C 846.932983 558.677002 846.658997 560.705994 846.481018 562.39502 C 846.030029 561.35199 845.132019 560.536987 843.999023 560.208984 C 843.473999 560.057983 842.940979 559.940979 842.405029 559.857971 C 841.505005 558.692017 839.974976 558.088013 838.45697 558.447021 C 834.20697 559.429016 829.890015 560.289978 825.620972 560.999023 C 825.234985 561.065002 824.955994 561.094971 824.757996 561.107971 C 824.179016 560.096008 822.653992 557.677002 819.570007 557.97998 C 817.97998 558.130981 816.590027 559.280029 816.153015 560.815002 C 814.919983 560.744019 813.741028 561.200989 812.932007 562.117981 C 811.651978 563.572021 810.166016 565.536011 808.987 567.874023 C 808.76001 567.810974 808.523987 567.76001 808.280029 567.718018 C 806.585999 567.437988 804.780029 567.916992 803.396973 568.97998 L 801.799988 568.302979 C 800.692993 567.838013 799.437988 567.908997 798.393005 568.497009 C 797.348999 569.085022 796.63501 570.122986 796.458008 571.307007 L 796.370972 571.89801 C 794.737976 571.268982 793.039978 570.809998 791.312988 570.536987 C 792.515015 566.812988 790.757996 563.237976 789.794006 561.281982 L 784.971008 551.47699 C 784.752991 551.034973 784.330994 550.179016 783.494995 549.442017 C 784.65802 545.669983 784.892029 541.588013 784.174988 537.705017 C 785.859009 536.169983 787.072021 534.40802 787.094971 534.369995 C 788.585999 531.919006 789.383972 528.994995 789.463989 525.672974 C 789.474976 525.176025 789.505981 523.853027 788.708008 522.562988 C 787.729004 520.97998 786.161011 520.463013 785.487 520.23999 C 783.791992 519.682007 782.166992 518.78302 780.786987 517.64502 C 780.478027 517.390015 780.176025 517.119995 779.875977 516.85498 C 778.932983 516.017029 777.86499 515.070007 776.487 514.320007 C 773.893005 512.914001 771.119019 512.70697 768.888 512.539978 C 768.135986 512.487 766.15802 512.341003 764.51001 513.844971 C 764.439026 513.911011 764.374023 513.973999 764.310974 514.039001 C 764.182983 513.994019 764.057983 513.950989 763.948975 513.909973 C 761.440002 513.013977 758.684998 512.890015 756.096008 513.466003 C 755.007019 510.93396 753.20697 508.547974 750.825989 506.549011 C 746.807007 503.174011 741.984009 501.593018 737.591003 502.229004 L 737.072998 502.309998 C 736.890991 502.339966 736.708984 502.380981 736.528992 502.401001 C 736.421997 502.304993 736.320984 502.198975 736.218994 502.101013 L 728.84198 495.035034 C 727.945007 494.177002 726.692017 493.799988 725.458984 494.02002 C 724.307983 494.231995 723.317993 494.952026 722.758972 495.968994 C 722.179993 496.239014 720.59198 496.343018 719.807007 496.393005 C 718.335022 496.484009 717.575012 496.401001 717.203979 496.322021 C 716.823975 495.514038 716.171021 494.85498 715.351013 494.466003 C 714.325012 493.979004 713.138977 493.968994 712.103027 494.436035 C 709.236023 495.726013 708.960022 498.651978 708.841003 499.898987 C 708.825012 500.067993 708.812012 500.231995 708.788025 500.390991 C 708.749023 500.645996 708.122986 501.229004 707.223022 501.416016 C 706.588013 501.549988 705.877014 501.546997 705.127991 501.479004 C 705.143982 501.084961 705.16803 500.674011 705.195007 500.234009 C 705.242004 499.43103 705.289978 498.603027 705.299988 497.713989 C 705.348999 493.359009 704.039001 489.900024 701.510986 487.708984 C 698.19397 484.838989 694.020996 484.997986 690.669006 485.139038 C 688.387024 485.22998 686.237 485.317993 685.189026 484.483032 C 684.963013 484.301025 684.737 484.092041 684.505981 483.881958 C 683.715027 483.161987 682.41803 481.984009 680.752014 481.455994 C 679.856995 479.52002 679.619995 478.18396 680.049011 477.47699 C 680.197998 477.231995 680.526001 476.884033 680.872986 476.515015 C 681.127991 476.244995 681.382019 475.974976 681.624023 475.692017 C 686.176025 470.426025 686.146973 463.483032 685.726013 456.821045 C 685.656982 455.733032 685.130981 454.721008 684.278992 454.039001 C 683.648987 453.533997 682.888 452.85199 682.124023 452.171021 C 681.25 451.393005 680.374023 450.615967 679.655029 450.040039 C 677.994019 448.707031 675.567993 448.964966 674.224976 450.618042 L 671.442017 454.033997 C 669.241028 453.627991 666.940979 453.924988 664.905029 454.900024 C 664.002014 455.332031 663.205017 455.862 662.5 456.330994 C 662.05603 456.624023 661.427979 457.042969 661.038025 457.224976 C 660.809998 457.005005 660.48999 456.634033 660.258972 456.367004 C 659.315979 455.269043 658.025024 453.766968 655.937988 453.067017 C 653.132996 452.109985 650.504028 453.167969 648.939026 453.789001 C 646.086975 454.920044 643.174988 455.988037 640.262024 456.967041 C 639.632996 453.303955 637.953003 449.869995 635.414978 447.120972 C 634.429016 446.05603 633.312988 445.286011 632.166992 444.828979 L 631.984985 441.817017 C 631.854004 439.618042 630.987 438.045044 629.39502 437.139038 C 629.013977 436.921997 628.638 436.781006 628.288025 436.684998 C 628.310974 436.563965 628.333008 436.440002 628.356995 436.31604 C 628.479004 435.670044 628.593018 435.02301 628.640015 434.367004 C 628.874023 431.094971 627.5 427.644043 624.872009 424.89502 C 622.810974 422.744019 620.333984 421.295044 618.151978 420.02002 L 612.372986 416.640015 C 611.517029 416.138 610.606995 415.922974 609.711975 415.849976 C 609.192017 414.103027 608.112976 412.467041 606.552979 411.238037 C 603.861023 409.109985 600.619995 408.686035 598.416016 408.552002 C 597.309021 408.484009 594.348999 408.304993 592.072021 410.31897 C 591.325012 410.97998 590.861023 411.697021 590.52301 412.219971 C 590.482971 412.281006 590.442993 412.343994 590.40802 412.401978 C 590.310974 412.296021 590.077026 412.384033 589.849976 412.323975 C 589.354004 412.195007 588.767029 411.945007 588.145996 411.679993 C 587.401978 411.362 586.656006 411.051025 585.883972 410.812012 C 584.353027 410.339966 582.851013 410.176025 581.526978 410.031982 C 580.492981 409.917969 579.515991 409.812012 578.710022 409.578003 C 577.906006 409.346008 577.309998 408.807983 577.221985 408.807983 L 577.221008 408.807983 C 577.245972 408.666992 577.296997 408.530029 577.338013 408.390991 C 577.505981 407.830994 577.737 407.061035 577.767029 406.115967 C 577.85199 403.348999 576.182983 401.359985 575.288025 400.289001 L 564.697021 387.651001 C 563.057007 385.692017 560.312988 382.415039 556.101013 381.910034 C 555.085022 381.794006 554.133972 381.843994 553.294006 381.886963 C 553.09198 381.896973 552.846985 381.911987 552.614014 381.920044 C 552.612976 381.778992 552.614014 381.636963 552.614014 381.515991 C 552.617004 381.167969 552.617981 380.778992 552.601013 380.362 C 553.601013 379.127991 554.396973 377.200989 554.372009 374.197021 L 554.283997 363.709961 C 554.270996 362.233032 553.421021 360.890015 552.088989 360.249023 C 551.052979 359.749023 550.057983 359.638 549.273987 359.613037 L 549.29303 359.212036 C 549.372986 357.717041 549.491028 355.458008 548.133972 353.39502 C 545.617004 349.559998 540.776978 350.286987 537.882996 350.716003 C 537.505981 350.771973 537.143005 350.827026 536.807007 350.867004 C 533.898987 351.219971 530.853027 350.726013 528.174011 349.499023 C 528.02301 348.39801 527.651001 347.329956 527.080017 346.369019 C 529.799011 342.606995 529.530029 337.370972 527.908997 333.64502 C 526.664001 330.780029 524.825989 328.513 523.047974 326.31897 C 522.458984 325.592041 521.867004 324.86499 521.307007 324.118042 L 521.143982 323.89801 C 520.057983 322.44397 518.570984 320.448975 515.979004 319.619019 C 513.95697 318.964966 511.691986 319.200012 509.270996 320.302979 C 508.656006 320.580994 507.852997 320.984985 507.101013 321.648987 C 505.701996 322.885986 505.112 324.407959 504.681 325.519043 L 504.502991 325.971008 C 503.867004 327.523987 502.78299 329.018005 501.63501 330.598999 L 494.644012 340.23999 C 491.375 337.343994 486.968994 337.109985 483.460999 337.243042 L 482.796997 337.270996 C 480.32901 337.377014 477.998993 337.474976 476.487 336.588989 C 476.109985 336.372009 475.753998 336.098999 475.394012 335.833984 C 474.07901 334.86499 472.277008 333.536987 469.781006 333.446045 C 469.733002 333.442993 469.68399 333.442993 469.63501 333.442993 L 468.235992 328.304993 C 467.923004 327.158997 467.101013 326.217041 466.006012 325.752991 C 464.910004 325.294006 463.661987 325.356995 462.621002 325.929993 C 460.86499 326.901978 458.859009 327.420044 456.828003 327.389038 C 453.303986 325.204956 449.299988 324.317017 445.416992 323.458008 C 441.519989 322.594971 437.841003 321.778992 435.377014 319.749023 C 434.966003 319.411011 434.554993 319.040039 434.139008 318.662964 C 431.822998 316.579956 428.643005 313.734985 424.263 314.653992 C 423.212006 314.874023 422.367004 315.280029 421.688995 315.603027 C 421.428009 315.729004 421.17099 315.868042 420.881989 315.955994 C 420.178009 316.176025 418.760986 315.796997 417.726013 315.521973 L 408.580994 313.091003 C 404.734985 312.06897 400.756989 311.010986 397.98999 308.638 L 397.591003 308.291992 C 396.200989 307.083008 393.877014 305.061035 391.010986 304.981995 C 390.798004 304.028015 390.618011 303.062988 390.472992 302.096008 C 390.290985 300.886963 389.549011 299.830994 388.471008 299.252991 C 385.428986 297.625 381.545013 298.301025 379.23999 300.874023 C 378.184998 302.049988 377.55899 303.515015 377.377991 305.031982 L 376.536011 305.213989 C 374.536987 305.64801 373.221985 307.405029 373.528015 309.427979 C 373.46701 309.631958 372.976013 310.286011 371.90799 310.905029 C 371.51001 311.131958 371.098999 311.346985 370.687012 311.563965 C 369.269012 312.30896 367.575012 313.197021 366.17099 314.656982 C 362.223999 312.577026 357.812988 310.822021 353.825012 309.237 L 352.179993 308.580994 C 351.462006 308.292969 350.259003 307.807983 348.835999 307.768005 C 346.109009 307.631958 344.164001 309.130981 342.743988 310.188965 C 342.270996 310.541992 341.553986 311.075012 341.286987 311.138 L 340.988007 311.161011 C 340.117004 311.213989 338.303009 311.329956 336.859985 312.809998 C 335.734985 313.963989 335.441986 315.317017 335.358002 316.291016 C 334.118011 315.833984 332.703003 316.031006 331.619995 316.879028 C 330.153015 318.032959 326.371002 321.002014 326.657013 325.415039 C 326.424988 325.609009 326.181 325.833984 325.944 326.104004 C 326.005005 323.229004 324.069 321.309998 322.898987 320.148987 C 322.760986 320.013 322.589996 319.843994 322.436005 319.682007 C 322.627014 318.898987 322.743988 317.733032 322.174988 316.483032 C 321.644989 315.323975 320.444 313.890015 317.718994 313.638 L 307.643005 312.739014 C 306.813995 312.662964 304.877014 312.494019 303.175995 313.754028 C 301.537994 314.955994 301.093994 316.72998 300.904999 317.488037 C 299.514008 323.041992 298.71701 328.765015 298.536011 334.504028 C 298.493011 335.937988 298.506012 337.606995 299.233002 339.30603 C 299.731995 340.467041 300.432007 341.325989 300.998993 342.02002 L 302.091003 343.353027 C 301.40799 344.052002 300.862 344.844971 300.468994 345.696045 C 298.562988 346.208008 296.77301 347.13501 295.253998 348.411987 C 294.537994 349.015015 294.063995 349.859009 293.920013 350.782959 C 293.140991 355.803955 293.088013 360.898987 293.761993 365.927979 C 293.779999 366.084961 293.802002 366.240967 293.834015 366.400024 C 294.239014 368.458008 296.213013 369.81604 298.279999 369.474976 C 299.545013 369.263 300.56601 368.458008 301.104004 367.391968 C 301.148987 367.400024 301.194 367.405029 301.239014 367.411987 C 302.591003 367.609009 304.614014 367.919006 306.662994 366.877014 C 308.770996 368.424988 310.622986 370.280029 312.171997 372.401001 C 312.381989 372.686035 312.937988 373.448975 313.049011 373.932983 C 313.187988 374.533997 312.885986 375.692993 312.644012 376.624023 L 311.699005 380.252014 C 311.468994 381.143005 311.083008 382.630005 311.536987 384.313965 C 311.963989 385.896973 312.947998 386.954956 313.537994 387.585999 L 325.777008 400.698975 C 325.833008 401.609985 324.817993 403.515991 324.235992 403.789001 C 324.020996 403.799011 323.802002 403.789001 323.584991 403.781006 C 322.524994 403.760986 320.934998 403.697998 319.325012 404.583984 C 318.513 403.85199 317.338989 403.117004 315.718994 403.096985 C 314.588989 403.036011 313.438995 403.593994 312.691986 404.493042 C 310.915985 406.624023 309.173004 408.559998 307.364014 408.849976 L 306.915985 408.911011 C 305.931 409.026978 304.442993 409.205994 303.040985 410.259033 C 302.416992 410.729004 301.981995 411.250977 301.670013 411.660034 C 293.921997 412.007996 286.049988 412.053955 278.257996 411.794006 C 276.947998 411.393005 275.092987 411.630005 272.539001 413.544006 C 271.60199 414.209961 271.022003 415.02301 270.636993 415.561035 L 270.404999 415.879028 C 269.731995 416.724976 268.209015 417.292969 266.593994 417.890991 C 264.380005 418.713989 261.871002 419.64801 259.869995 421.781006 C 258.993988 422.718018 258.394012 423.702026 257.867004 424.572998 C 257.658997 424.914001 257.453003 425.256958 257.226013 425.584961 C 256.14801 427.143005 254.427002 428.463013 252.606995 429.859009 C 250.283997 431.640991 247.651001 433.664001 245.860001 436.622009 C 245.610001 437.036011 245.380005 437.464966 245.151993 437.894043 C 244.843002 438.47699 244.522003 439.080994 244.263 439.329956 C 244.022003 439.565002 243.459 439.858032 242.914993 440.140015 C 242.449005 440.38501 241.985001 440.630005 241.537003 440.901978 C 237.654007 443.275024 235.498001 447.218018 233.744995 451.127014 C 228.945999 461.825989 225.669998 473.140991 224.009003 484.754028 C 223.804993 486.182983 223.636993 487.692993 223.886993 489.281006 C 223.438995 489.379028 222.992996 489.478027 222.550003 489.575989 C 220.115005 490.119019 217.813995 490.630981 215.563004 490.885986 C 215.356003 490.908997 215.069 490.942017 214.794006 490.963989 C 214.738007 490.285034 214.544998 489.468994 214.018997 488.661987 C 213.192993 487.401978 212.044006 486.875 211.121994 486.612 C 210.901993 486.167969 210.597 485.625 210.139999 485.096985 C 208.893005 483.655029 207.324997 483.192993 206.287994 482.890991 L 205.804993 482.742004 C 204.826996 482.401001 203.779007 481.414001 202.669006 480.370972 L 202.309006 480.032959 C 200.348999 478.195007 198.121002 476.432983 195.121994 475.966003 C 192.923004 475.61499 190.565002 476.229004 188.809006 477.573975 C 188.535004 477.783997 188.279999 478.005981 188.044006 478.245972 C 186.582001 478.249023 185.223007 478.631958 184.149002 478.934998 C 183.503006 479.117004 182.419998 479.416992 182.078995 479.356995 C 181.968002 479.327026 181.858002 479.283997 181.746994 479.245972 C 180.934006 478.963013 179.578003 478.495972 177.906006 478.900024 C 174.026993 479.856995 173.673996 483.723999 173.578995 485.406006 C 172.630005 485.408997 171.427002 485.572998 170.272003 486.334961 C 170.162003 486.406006 170.054993 486.484009 169.947998 486.565002 L 163.100998 486.052979 C 162.365997 485.830994 161.425995 485.73999 160.281006 486.01001 C 158.283005 486.474976 155.628998 488.057007 154.641998 490.079956 C 153.934006 491.533997 153.869003 492.950012 153.822006 493.985962 L 153.787003 494.596985 C 153.641998 496.348999 152.662003 498.221985 151.608002 499.971985 C 149.408997 500.651001 147.270996 501.535034 145.231995 502.603027 C 143.061996 503.739014 141.772995 505.244019 141.393005 507.077026 C 140.147003 507.903015 139.511002 509.109009 139.134003 509.823975 C 138.085999 511.802979 136.164993 513.297974 133.781006 513.879028 C 133.110992 514.038025 132.097 514.278015 131.100006 514.97998 C 129.684006 515.969971 129.069 517.297974 128.662994 518.176025 C 128.589996 518.33197 128.522003 518.494019 128.438004 518.638 C 128.167007 519.109985 127.249001 519.718994 126.516998 520.205994 C 124.669998 521.427979 122.927002 522.58197 121.129997 523.182983 L 120.461998 523.390015 C 119.174004 523.781006 117.410004 524.31897 115.948997 525.744995 C 115.540001 526.143982 115.172997 526.606018 114.822998 527.080017 C 114.223 527.002014 113.441002 526.940979 112.560997 527.099976 C 110.155998 527.544006 108.769997 529.276001 107.944 530.310974 L 107.727997 530.575989 C 106.509003 532.065002 104.806999 533.130981 102.935997 533.578003 C 101.828003 533.843018 100.890999 534.583008 100.376999 535.599976 C 100.082001 536.18103 99.943001 536.822021 99.959999 537.458008 C 99.776001 537.718018 99.526001 538.036011 99.335999 538.276001 C 98.502998 539.338989 97.57 540.528015 97.18 542.025024 C 96.661003 542.20697 96.115997 542.502014 95.599998 542.968994 C 94.064003 544.372986 94.040001 546.226013 94.030998 546.838989 L 93.931 554.823975 C 93.667 554.921997 93.390999 555.041016 93.112 555.192993 L 90.112 555.377014 C 89.105003 555.434998 88.178001 555.882019 87.510002 556.593994 C 85.475998 556.411987 83.457001 557.153992 81.894997 558.629028 C 81.383003 559.114014 80.947998 559.653992 80.596001 560.22998 C 78.526001 560.421997 76.087997 561.19397 74.593002 563.632996 C 73.730003 565.036987 73.568001 566.445007 73.450996 567.474976 C 73.420998 567.737976 73.399002 568.002991 73.341003 568.252991 C 73.192001 568.898987 72.539001 569.747986 71.848 570.645996 C 71.098 571.619995 70.247002 572.723999 69.606003 574.083984 C 69.038002 575.288025 68.728996 576.494995 68.455002 577.559998 C 68.189003 578.598022 67.913002 579.66803 67.537003 580.033997 C 67.292 580.273987 66.617996 580.577026 66.024002 580.843994 C 65.581001 581.041016 65.139 581.242981 64.711998 581.463013 C 61.785999 582.973022 60.091 585.388977 60.058998 588.093018 C 60.035999 590.190979 61.032001 591.750977 61.691002 592.786011 C 61.862999 593.05603 62.123001 593.465027 62.160999 593.494995 C 62.122002 593.866028 61.448002 594.906006 61.046001 595.526978 C 60.391998 596.533997 59.652 597.677979 59.154999 599.028992 C 58.5 600.804016 58.422001 602.560974 58.358002 603.969971 C 58.043999 610.981018 61 613.546021 63.198002 614.47998 C 63.323002 614.838013 63.500999 615.221985 63.761002 615.607971 C 64.156998 616.19397 64.627998 616.617981 65.114998 616.926025 C 64.995003 617.950989 65.120003 619.169983 65.954002 620.317017 C 65.615997 621.008972 65.396004 621.791016 65.318001 622.63501 C 64.994003 622.783997 64.692001 622.976013 64.422997 623.205994 C 63.889999 622.86499 63.376999 622.492004 62.882999 622.088013 C 61.233002 620.734985 58.805 620.971985 57.445 622.606018 C 57.172001 622.934021 56.598 623.119019 56.132 623.062988 C 55.830002 622.948975 55.527 622.835999 55.223 622.721985 C 53.313999 622.013 51.18 622.903992 50.341999 624.762024 C 49.502998 626.617981 50.243999 628.80603 52.036999 629.77301 C 52.633999 630.093994 53.258999 630.338013 53.900002 630.513 C 62.48 633.825012 70.334 638.054016 78.624001 642.517029 L 79.043999 642.744019 C 80.744003 643.659973 82.861 644.802002 85.387001 645.033997 C 86.777 645.15802 88.128998 645.010986 89.319 644.880005 C 90.056999 644.799011 91.137001 644.677979 91.628998 644.749023 C 91.662003 644.804993 91.693001 644.859985 91.725998 644.916016 C 92.043999 645.448975 92.525002 646.252014 93.356003 646.963013 C 94.338997 647.801025 95.392998 648.156982 96.110001 648.396973 C 102.964996 650.702026 109.483002 653.926025 115.481003 657.97998 C 119.793999 660.893005 124.600998 663.070007 129.25 665.172974 C 132.108002 666.466003 134.807999 667.684998 137.375 669.05603 C 138.087997 669.437012 138.899002 669.575989 139.690002 669.482971 C 141.764008 671.429016 144.365997 672.588013 146.589996 673.580017 L 147.287994 673.890991 C 151.417999 675.754028 155.285004 678.10199 159.391006 680.593994 L 183.541 695.257019 C 183.751999 695.385986 183.917999 695.494019 184.048004 695.583008 C 183.960999 695.861023 183.880005 696.140991 183.813995 696.426025 C 183.276001 698.809021 183.880997 700.963013 184.320999 702.53302 L 187.397003 713.484985 C 188.240005 716.487 189.112 719.588989 190.106995 722.638977 C 190.332993 723.330994 190.751999 724.622986 191.854004 725.718994 C 192.802002 726.656006 193.875 727.077026 194.679993 727.346985 C 194.757004 727.632019 194.860001 727.950012 195.009003 728.283997 C 195.621994 729.661987 198.225006 733.921021 205.998001 730.60199 C 209.453995 729.119995 213.406006 728.625 217.119995 729.197998 C 217.550003 729.263977 217.979996 729.343994 218.410004 729.424988 C 219.944 729.705017 221.681 730.026001 223.580002 729.89502 C 224.406998 729.836975 225.225006 729.687988 226.039993 729.526001 C 226.675003 729.401978 227.274994 729.286011 227.731003 729.276001 C 228.595993 729.119019 229.669998 729.593994 230.901001 729.982971 C 232.158997 730.379028 233.585007 730.830994 235.169998 730.994995 C 238.876007 731.370972 242.197998 730.317993 245.126007 729.379028 C 247.498993 728.619019 249.746002 727.896973 251.860001 728.044006 C 257.667999 728.422974 264.251007 728.854004 270.109009 730.932007 C 270.812988 731.182007 271.51001 731.455017 272.207001 731.72699 C 273.415009 732.198975 274.623993 732.669006 275.859009 733.049988 C 277.210999 733.468994 278.59201 733.784973 279.972992 734.098022 C 281.596008 734.46698 283.130005 734.812012 284.519012 735.340027 C 285.299011 735.632996 286.058014 735.991028 286.819 736.344971 C 288.559998 737.153015 290.53299 738.06897 292.80899 738.447998 C 294.459015 738.716003 296.036987 738.659973 297.428986 738.619995 L 298.229004 738.596985 C 304.880005 738.414978 311.553986 739.924988 317.51001 742.895996 L 318.437012 743.370972 C 320.303009 744.330017 322.416992 745.41803 324.917999 745.807007 C 327.94101 746.296997 330.933014 745.567017 333.11499 743.844971 C 333.601013 743.460999 334.041992 743.025024 334.476013 742.583008 C 334.667999 742.385986 334.855988 742.184021 335.062988 742.012024 C 336.553986 740.775024 339.720001 741.416016 342.622986 742.208984 C 345.434998 742.976013 348.457001 743.296997 351.381012 743.60498 C 354.700989 743.958008 357.835999 744.289001 360.384003 745.210999 C 360.730011 745.335022 361.067993 745.486023 361.406006 745.63501 C 362.315002 746.033997 363.445007 746.528992 364.761993 746.750977 C 366.335999 747.020996 367.794006 746.843994 368.962006 746.700989 L 369.497009 746.638 C 372.658997 746.284973 375.936005 746.539978 379.406006 746.815002 C 383.170013 747.10498 387.067993 747.413025 391.06601 746.935974 L 391.869995 746.830017 C 392.580994 746.737 393.235992 746.676025 393.798004 746.653015 C 394.759003 746.66803 395.886993 746.986023 397.079987 747.325012 L 413.988007 752.112 C 414.511993 752.263 415.743011 752.612 417.148987 752.190002 C 419.209015 751.586975 420.101013 749.903015 420.545013 749.067017 C 420.803009 748.590027 421.359985 748.195984 422.036011 748.017029 C 422.713989 747.828003 423.394012 747.901001 423.85199 748.179016 C 427.76001 750.585022 431.769989 752.033997 436.860992 752.880005 L 437.46701 752.976013 C 438.024994 753.062012 438.60199 753.14801 438.895996 753.273987 C 439.20401 753.40802 439.679993 753.783997 440.140991 754.146973 L 440.367004 754.323975 C 446.333008 759.017029 453.11499 762.073975 459.671997 765.031006 L 482.458008 775.314026 C 486.256989 777.028015 490.187012 778.802979 493.889008 780.739014 C 497.282013 782.518982 500.674988 784.538025 504.097992 786.575989 L 540.010986 807.96698 C 540.661987 808.356018 541.754028 809.007019 543.184021 809.185974 C 543.453003 809.221008 543.723999 809.239014 544.026978 809.231018 C 544.538025 810.200012 545.445984 810.924988 546.544006 811.192993 C 554.58197 813.142029 562.638 816.620972 571.895996 822.140015 C 572.969971 822.778992 574.031982 823.440002 575.094971 824.10199 C 577.79303 825.78302 580.58197 827.52002 583.607971 828.942017 C 585.802979 829.974976 588.015991 830.791992 590.153015 831.583008 L 603.174988 836.400024 C 605.630981 837.310974 607.950989 838.169983 609.89801 839.445007 C 610.745972 839.997986 611.539001 840.637024 612.333984 841.268005 C 613.632019 842.301025 614.973022 843.367981 616.588989 844.26001 C 617.78302 844.919006 618.960022 845.388 620.096985 845.844971 C 620.664001 846.072021 621.232971 846.296997 621.786987 846.549011 C 624.679993 847.856995 627.408997 849.981995 630.046021 852.039978 C 630.330994 852.262024 631.085022 852.849976 631.190979 852.984009 L 631.286011 853.455994 C 632.213989 858.408997 635.159973 858.890991 636.830994 858.742004 C 638.70697 858.567993 639.846985 857.374023 640.427002 856.765015 C 640.724976 856.461975 641.427002 856.370972 641.981995 856.719971 C 642.541992 857.085999 643.481995 857.702026 644.812012 857.866028 C 645.770996 857.971985 646.747009 857.799988 647.60498 857.379028 C 650.682007 858.29303 653.60498 859.895996 656.666992 861.577026 C 660.594971 863.732971 664.658997 865.965027 669.471985 866.984985 C 672.320007 867.591003 675.137024 867.784973 677.861023 867.971985 C 678.97699 868.049988 680.093018 868.125977 681.203979 868.231995 C 686.635986 868.752014 691.929993 869.984009 697.533997 871.286987 C 702.575989 872.460999 707.789978 873.672974 713.112976 874.31897 C 716.007019 874.669983 718.908997 874.848999 721.715027 875.02301 C 724.411011 875.190002 726.95697 875.346008 729.513 875.643982 C 736.455994 876.448975 743.466003 878.322998 750.247009 880.13501 C 765.450012 884.200012 781.169983 888.400024 795.982971 894.187012 C 797.671021 894.848022 799.981995 895.752014 802.620972 895.189026 C 804.61499 894.771973 806.432007 893.380981 807.362 891.560974 C 807.763 890.776978 807.976013 889.940979 808.020996 889.106995 L 817.429993 897.096985 C 818.005981 897.586975 819.077026 898.495972 820.633972 898.804016 C 821.02002 898.882019 821.390991 898.914978 821.744995 898.914978 C 822.823975 898.914978 823.747986 898.61499 824.478027 898.380005 C 826.18103 897.84198 828.262024 897.791992 830.466003 897.739014 C 834.377991 897.643005 838.810974 897.534973 842.526001 894.572998 C 844.593994 892.921997 845.325989 890.482971 844.393005 888.362976 C 844.234009 887.999023 844.004028 887.583008 843.677002 887.189026 C 845.640991 886.46698 847.310974 885.302002 848.575012 883.848022 C 847.469971 885.106018 846.992981 886.942993 847.044983 888.348022 C 847.120972 890.38501 848.200989 891.491028 848.830017 891.960999 C 850.314026 893.078979 851.940002 893.159973 852.81897 893.205994 C 862.432983 893.687988 872.156006 894.052002 881.715027 894.289001 C 883.427002 894.333984 885.367004 894.382019 886.487976 895.06897 C 886.700989 895.200012 886.901001 895.35199 887.104004 895.497986 C 887.685974 895.924988 888.411987 896.452026 889.356995 896.859009 C 890.822998 897.484985 892.263977 897.570984 893.317017 897.630981 C 895.198975 897.742004 897.184998 897.963989 899.213989 898.190979 C 906.034973 898.953003 913.763 899.814026 920.361023 896.924011 C 920.724976 896.765015 921.573975 896.390991 921.770996 896.370972 C 921.935974 896.416016 922.093018 896.492004 922.252991 896.557983 C 922.651978 896.724976 923.054993 896.883972 923.479004 897.01001 C 925.590027 897.633972 927.687012 897.231995 929.163025 895.914001 C 930.663025 896.111023 932.054016 895.987 933.231018 895.883972 C 934.36499 895.784973 935.34198 895.697021 936.041992 895.906982 C 936.379028 896.005005 936.703003 896.148987 937.031982 896.286011 C 937.974976 896.679993 939.148987 897.169983 940.598999 897.286011 C 941.843994 897.387024 942.927979 897.174988 943.995972 896.969971 C 947.216003 896.356995 950.502014 896.23999 953.765015 896.624023 L 954.116028 896.664001 C 955.336975 896.812988 956.85498 896.997009 958.52301 896.620972 C 959.20697 896.465027 959.862 896.215027 960.513977 895.948975 C 960.734009 895.857971 960.953003 895.765015 961.185974 895.689026 C 961.864014 895.471985 962.862 895.448975 963.827026 895.429016 L 977.554016 895.129028 C 979.65802 895.080994 981.481018 894.416992 982.825012 893.263 L 1015.624023 897.893005 C 1015.968994 897.940979 1016.544006 898.021973 1016.705994 898.094971 C 1016.838989 898.172974 1016.955994 898.273987 1017.078003 898.367981 C 1017.439026 898.643005 1017.804993 898.913025 1018.182007 899.138 C 1021.112 900.89502 1025.061035 900.489014 1027.54895 898.189026 C 1027.850952 898 1028.80603 897.888977 1031.630981 898.419006 C 1032.370972 898.557983 1033.10498 898.729004 1033.838989 898.903992 C 1035.144043 899.208984 1036.482056 899.52301 1037.909058 899.697021 C 1039.805054 901.057983 1042.177979 901.080017 1043.11499 901.044983 C 1046.654053 901.094971 1050.203003 901.221985 1053.70105 901.60498 C 1053.842041 901.619995 1053.984009 901.627991 1054.125 901.627991 C 1055.343018 901.627991 1056.500977 901.052002 1057.237061 900.062988 C 1058.984009 897.710022 1059.041016 894.39502 1057.381958 891.617981 C 1056.223022 889.679016 1054.567993 888.447021 1053.238037 887.45697 L 1049.577026 884.72998 C 1049.44104 883.765991 1049.698975 882.715027 1050.277954 881.932983 L 1050.47998 881.66803 C 1050.927979 881.09198 1051.619019 880.203979 1051.973022 878.97699 C 1053.775024 878.140991 1054.797974 876.627014 1055.374023 875.664978 L 1057.979004 874.643005 C 1058.331055 874.504028 1058.729004 874.348022 1058.942993 874.312012 C 1059.229004 874.255981 1059.814941 874.302002 1060.333984 874.336975 C 1061.956055 874.455994 1064.399048 874.612 1066.560059 872.940979 C 1067.637939 872.107971 1068.274048 871.080017 1068.739014 870.330994 C 1068.744995 870.320984 1068.753052 870.307983 1068.759033 870.297974 C 1069.649048 870.294983 1071.01001 870.219971 1072.286011 869.29303 C 1073.411011 868.478027 1073.926025 867.419983 1074.265015 866.58197 C 1075.357056 866.377991 1075.949951 866.335022 1077.329956 866.245972 L 1077.694946 866.226013 C 1078.725952 866.16803 1080.010986 866.096985 1081.371948 865.570007 C 1083.93103 864.575012 1085.395996 862.534973 1086.573975 860.900024 C 1087.011963 860.289001 1087.744019 859.268982 1087.994019 859.122986 L 1088.287964 859.107971 C 1088.972046 859.083008 1090.118042 859.039978 1091.319946 858.398987 C 1093.094971 857.450012 1093.828979 855.814026 1094.224976 854.934998 L 1094.345947 854.669983 C 1094.901001 853.499023 1096.16394 852.375 1097.500977 851.185974 C 1099.5 849.408997 1101.766968 847.393982 1102.876953 844.276001 L 1103.069946 843.700012 C 1103.074951 843.687012 1103.078979 843.671997 1103.083984 843.659973 C 1103.206055 843.60199 1103.328003 843.539001 1103.447998 843.471008 C 1106.411987 841.768982 1106.287964 838.474976 1106.234985 837.070984 C 1106.227051 836.869019 1106.217041 836.669983 1106.219971 836.47998 C 1106.229004 835.580994 1106.468994 834.573975 1106.647949 834.184998 C 1106.796997 834.036987 1106.920044 833.870972 1107.041992 833.703003 C 1107.133057 834.276001 1107.338989 834.960022 1107.827026 835.646973 C 1108.880005 837.116028 1110.415039 837.434021 1110.912964 837.538025 L 1115.379028 838.469971 C 1115.572998 838.51001 1115.767944 838.52002 1115.962036 838.531006 C 1115.55896 840.952026 1116.510986 843.429993 1118.560059 844.773987 C 1119.197998 845.192993 1119.937012 845.409973 1120.687012 845.409973 C 1120.982056 845.409973 1121.280029 845.377014 1121.572998 845.307007 C 1122.06897 845.190979 1122.531006 844.979004 1122.937988 844.690979 C 1123.029053 844.705994 1123.119995 844.718994 1123.21106 844.729004 C 1124.980957 844.955994 1126.776001 844.367981 1128.152954 843.132996 C 1129.532959 841.890991 1130.310059 840.166992 1130.286987 838.387024 Z"/>
</svg>
