<?xml version="1.0" encoding="utf-8"?>
<!-- Generator: Adobe Illustrator 24.0.3, SVG Export Plug-In . SVG Version: 6.00 Build 0)  -->
<svg version="1.1" id="Capa_1" xmlns="http://www.w3.org/2000/svg" xmlns:xlink="http://www.w3.org/1999/xlink" x="0px" y="0px"
	 viewBox="0 0 307.37 315" style="enable-background:new 0 0 307.37 315;" xml:space="preserve">
<style type="text/css">
	.st0{fill:#75B841;}
</style>
<polygon class="st0" points="304.12,160.5 304.99,160.19 302.42,159.11 299.16,156.34 298.38,156.01 295.88,153.82 288.26,150.37 
	284.39,147.23 282.85,146.37 280.7,144.19 279.84,143.69 277.74,142.81 276.61,142.17 275.55,143.38 276.46,144.47 279.64,146.2 
	280.15,146.83 280.64,147.67 281.21,148.41 282.57,149.02 283.53,149.71 285.24,151.25 284.19,151.65 282.03,151.25 281.16,151.8 
	280.7,151.8 280.67,151.57 280.7,150.79 280.15,150.79 280.22,151.94 280.79,153.7 280.7,154.83 280.27,155.48 279.57,156.11 
	278.92,156.93 278.63,158.11 278.33,158.77 277.67,158.88 276.98,158.8 276.61,158.91 276.61,159.47 276.85,159.81 277.09,160.07 
	277.12,160.38 277.29,160.46 277.38,161.01 277.14,161.64 276.34,161.94 274.34,161.94 274.19,161.44 275.1,158.11 267.65,153.58 
	265.97,153.32 265.69,151.77 263.18,150.34 259.91,149.63 257.35,150.24 254.84,148.22 253.82,147.77 250.95,148.81 244.41,147.17 
	242.04,147.19 239.94,147.53 234.28,147.28 232.93,147.83 232.26,147.86 231.39,148.14 230.69,148.48 230.53,148.72 229.92,147.75 
	229.93,147.52 229.95,146.8 231.32,112.32 233.99,44.76 235.36,10.24 235.54,5.81 235.54,5.81 235.53,5.81 102.37,5.69 100.84,6.09 
	100.25,6.73 100.25,6.73 100.17,47.38 100.16,47.38 67.74,47.16 67.59,47.18 67.19,47.25 67.18,47.26 66.87,48.41 68.59,49.17 
	70.87,49.62 72.01,50.21 72.61,51.98 74.11,52.23 76.09,51.92 78.11,52.02 78.92,52.69 79.56,53.86 79.98,55.19 80.13,56.34 
	80.42,56.81 81.93,57.19 82.61,57.58 82.92,58.09 83.3,59.4 83.62,60.14 84.3,61.17 86.92,63.93 87.66,64.22 89.44,64.04 
	90.22,64.18 90.62,64.64 91,66.05 91.28,66.7 93.89,69.73 94.31,70.51 94.63,72.04 95.52,72.8 98.34,73.77 98.77,74.11 99.7,75.08 
	100.09,75.28 100.8,74.98 100.81,74.97 100.74,74.3 100.47,73.62 100.59,73.32 100.59,73.31 101.88,73.31 102.89,73.48 
	103.07,74.06 103.06,74.07 102.01,75.15 101.88,75.28 103.41,76 105.56,78.1 106.92,78.86 112.01,80.38 112.89,80.39 113.57,79.82 
	114.58,80.38 114.58,80.88 114.33,81.75 115.42,82.63 118.07,83.91 119.14,84.73 124.14,91.68 125.15,94.33 124.17,96.06 
	124.17,96.52 124.79,96.42 125.18,96.3 125.42,96.06 125.43,96.05 125.63,95.57 125.64,95.56 126.65,96.14 126.4,97.19 
	125.92,98.45 126.19,99.64 125.58,100.77 126.22,101.04 127.35,101.11 128.21,101.62 128.25,102.39 128.24,102.4 127.74,102.94 
	127.08,103.48 127.07,103.49 126.7,104.18 127.61,103.93 128.8,103.98 129.83,104.18 130.27,104.41 130.67,104.23 132.59,103.68 
	133.3,103.68 133.65,105.26 134.1,105.92 135.88,105.09 136.7,105.32 137.4,105.8 137.84,106.2 138.23,107.02 138.13,107.65 
	138.32,108.07 140.64,108.36 141.4,108.69 141.95,109.03 142.38,109.23 143.22,109.12 143.88,108.83 144.3,108.93 144.45,109.99 
	144.46,110.96 144.56,111.38 145.41,112.76 145.39,112.76 144.29,112.46 143.27,112.39 142.58,112.77 142.58,112.78 142.38,113.82 
	142.89,113.82 142.89,113.27 143.39,113.27 144.01,114.22 143.58,115.41 143.57,115.42 142.48,116.42 141.12,116.84 140.61,117.11 
	140.61,117.12 141.36,117.65 142.43,118.03 142.89,117.86 142.89,118.63 142.88,118.64 142.43,118.82 141.82,118.65 141.37,118.36 
	141.37,118.37 141.3,118.56 141.3,118.75 141.29,118.76 141.21,118.86 140.87,118.82 140.88,118.83 141.15,119.21 141.6,120.03 
	141.88,120.43 141.86,120.42 140.92,120.3 140.69,120.18 140.37,119.87 139.53,120.76 139.53,120.77 139.65,121.5 140.38,122.06 
	141.37,122.44 141.36,122.45 140.51,122.84 139.6,123.52 139.59,123.53 139.07,124.53 139.36,125.93 141.5,127.11 141.99,127.85 
	141.98,127.86 140.37,128.5 140.37,128.96 141.31,129.83 141.3,129.84 139.53,131.28 139.53,131.28 139.81,132.54 140.37,132.54 
	140.63,132.28 140.77,132.21 140.95,132.16 141.37,131.99 141.16,132.6 140.66,133.65 140.65,133.66 140.37,134.05 139.03,134.52 
	137.59,134.69 100.03,134.74 46.08,134.83 44.89,135.4 44.01,136.49 44,136.5 43.65,137.09 23.02,171.56 17.87,180.18 10.54,192.42 
	10.05,193.71 10.08,195.1 10.64,196.29 20.21,208.37 19.03,211.01 18.75,211.65 17.99,212.5 17.02,212.9 16.07,213.01 15.15,213.27 
	14.27,214.12 14.27,214.13 14.02,216.55 14.24,221.15 13.39,223.36 13.39,223.37 11.86,225.11 11.85,225.12 11.5,226 11.56,227.55 
	11.72,228.17 12.41,229.99 12.45,230.57 12.35,231.65 12.41,232.18 13.71,235.82 13.78,237.21 13.49,238.34 13.49,238.35 
	12.98,239.27 11.91,241.2 10.29,245.56 10.28,245.57 10.28,245.58 8.95,247.13 7.53,247.37 7.53,247.37 7.53,247.37 13.72,251.73 
	22.06,257.58 32.51,266.77 49.72,277.36 50.9,278.48 52.55,280.02 54.71,280.77 58.85,283.51 60.57,284.18 76.04,290.22 
	87.39,293.16 93.2,293.8 112.23,292.69 126.19,292.59 127.16,292.8 130.35,293.47 132.3,293.65 136.16,294.49 144.05,297.09 
	156.02,302.36 163.62,305.71 166.19,306.27 166.19,306.27 165.04,302.79 165,301.63 165,301.62 165.19,300.42 165.58,299.26 
	166.17,298.18 167.05,297.3 169.08,296.25 169.99,295.54 170.68,294.5 171.16,293.43 171.79,292.39 172.88,291.45 179.99,286.61 
	181.56,285.08 182.35,284.57 185.62,283.36 186.71,283.29 188.05,283.63 189.97,285.08 191.06,285.51 192.14,284.95 192.17,284.54 
	192.17,284.53 192.11,284.41 191.63,283.34 191.56,282.77 191.56,282.77 191.77,282.17 194.93,276.74 196.41,275.16 198.27,273.77 
	200.22,272.91 208.15,271.06 208.63,270.6 208.62,269.44 208.38,269.15 207.45,268.69 207.12,268.38 206.99,267.9 206.85,266.77 
	206.75,266.42 206.32,265.63 206.11,265.35 205.69,264.96 205.17,264.73 203.63,264.53 203.17,263.49 203.17,263.49 203.61,262.87 
	204.35,262.35 204.82,261.63 204.82,261.62 204.61,260.77 204.07,260.04 203.75,259.21 203.75,259.2 204.23,258.03 205.27,257.28 
	206.36,257.37 207.17,258.17 207.39,259.53 208.39,258.83 210.22,256.68 210.75,256.46 211.53,256.14 212.7,256.29 213.54,256.72 
	214.37,257.02 215.53,256.78 217.22,255.09 217.97,254.81 218.07,256.24 218.45,255.67 218.53,255.51 220.67,257.02 220.51,254.72 
	220.51,254.72 220.64,253.55 221.12,252.59 221.88,252.11 223.52,251.7 224.13,251.07 224.86,249.79 225.9,248.71 228.21,246.76 
	228.88,245.96 229.24,245.38 229.8,245.01 231.06,244.86 231.96,245.01 233.82,245.64 234.67,245.57 235.54,244.77 235.89,243.55 
	235.93,242.23 235.93,242.23 235.62,238.51 235.62,238.51 235.88,238.04 236.66,237.22 236.85,236.64 236.72,235.38 236.61,235.22 
	236.27,234.72 235.6,234.14 234.79,233.13 233.4,229.86 232.7,228.74 231.22,227 230.57,226.05 230.22,225.02 230.29,223.62 
	230.87,222.76 232.7,221.22 233.44,220.21 233.98,219.46 234.89,217.37 234.9,215.42 234.9,215.42 233.46,214.1 234.63,210.7 
	235.51,209.37 236.28,208.76 236.55,208.54 236.67,208.44 237.01,208.17 239.28,207.06 246.78,204.62 249.36,203.44 284.35,177.17 
	284.35,177.16 291.82,171.48 295.25,168.22 297.49,164.5 297.9,163.96 299.46,163.93 300.64,163.51 301.72,162.92 302.99,162.4 
	303.45,162.95 303.94,161.97 303.89,161.17 303.89,161.17 "/>
</svg>
