<?xml version="1.0" encoding="utf-8"?>
<!-- Generator: Adobe Illustrator 24.0.3, SVG Export Plug-In . SVG Version: 6.00 Build 0)  -->
<svg version="1.2" baseProfile="tiny" id="Capa_1" xmlns="http://www.w3.org/2000/svg" xmlns:xlink="http://www.w3.org/1999/xlink"
	 x="0px" y="0px" viewBox="0 0 348 348" xml:space="preserve">
<g id="Background">
</g>
<g id="copyright">
</g>
<linearGradient id="SVGID_1_" gradientUnits="userSpaceOnUse" x1="179.308" y1="-78.1465" x2="179.308" y2="423.0673">
	<stop  offset="0" style="stop-color:#8C9AB3"/>
	<stop  offset="0.0566" style="stop-color:#7F93AD"/>
	<stop  offset="0.2163" style="stop-color:#61849F"/>
	<stop  offset="0.3845" style="stop-color:#497893"/>
	<stop  offset="0.5624" style="stop-color:#386F8B"/>
	<stop  offset="0.757" style="stop-color:#2E6A87"/>
	<stop  offset="0.9993" style="stop-color:#2B6885"/>
</linearGradient>
<polygon fill="url(#SVGID_1_)" points="342.94,177.33 343.91,176.98 341.07,175.8 337.46,172.73 336.59,172.36 333.83,169.94 
	325.4,166.12 321.11,162.65 319.4,161.69 317.02,159.28 316.08,158.72 313.76,157.75 312.51,157.05 311.33,158.38 312.34,159.6 
	315.86,161.51 316.42,162.2 316.96,163.14 317.6,163.95 319.1,164.62 320.16,165.39 322.05,167.1 320.89,167.53 318.5,167.09 
	317.53,167.71 317.02,167.71 316.99,167.44 317.02,166.59 316.42,166.59 316.5,167.86 317.12,169.8 317.02,171.06 316.55,171.77 
	315.78,172.48 315.06,173.37 314.74,174.69 314.41,175.41 313.68,175.54 312.91,175.45 312.51,175.58 312.5,176.19 312.76,176.57 
	313.04,176.86 313.06,177.2 313.25,177.29 313.35,177.9 313.09,178.6 312.2,178.92 309.99,178.92 309.82,178.38 310.83,174.69 
	302.58,169.67 300.73,169.38 300.42,167.66 297.63,166.08 294.01,165.3 291.18,165.98 288.41,163.74 287.27,163.24 284.11,164.39 
	276.87,162.58 274.25,162.6 271.92,162.98 265.66,162.7 264.16,163.3 263.42,163.34 262.46,163.65 261.69,164.03 261.5,164.29 
	260.82,163.22 260.84,162.97 260.87,162.17 262.38,124.01 265.34,49.24 266.85,11.04 267.05,6.14 267.05,6.14 267.04,6.14 119.67,6 
	117.98,6.45 117.32,7.15 117.32,7.15 117.23,52.14 117.22,52.14 81.34,51.89 81.18,51.92 80.73,52 80.73,52.01 80.38,53.28 
	82.29,54.12 84.81,54.62 86.07,55.28 86.73,57.23 88.4,57.5 90.59,57.17 92.82,57.28 93.72,58.01 94.43,59.31 94.89,60.79 
	95.06,62.05 95.38,62.58 97.05,63 97.8,63.42 98.14,63.99 98.56,65.44 98.92,66.27 99.67,67.4 102.57,70.46 103.39,70.78 
	105.36,70.58 106.23,70.74 106.66,71.24 107.08,72.8 107.4,73.53 110.29,76.88 110.75,77.74 111.11,79.44 112.09,80.27 
	115.21,81.34 115.69,81.72 116.71,82.8 117.14,83.02 117.94,82.68 117.95,82.68 117.86,81.93 117.56,81.18 117.69,80.85 
	117.7,80.84 119.13,80.84 120.24,81.03 120.44,81.67 120.43,81.68 119.27,82.87 119.12,83.02 120.82,83.81 123.2,86.13 
	124.71,86.98 130.34,88.66 131.31,88.67 132.07,88.05 133.19,88.66 133.19,89.22 132.91,90.18 134.12,91.15 137.04,92.57 
	138.23,93.48 143.76,101.17 144.88,104.1 143.8,106.02 143.8,106.53 144.49,106.41 144.91,106.28 145.18,106.01 145.19,106 
	145.42,105.48 145.42,105.46 146.53,106.11 146.27,107.27 145.74,108.66 146.03,109.98 145.36,111.23 146.07,111.53 147.32,111.6 
	148.27,112.16 148.31,113.02 148.31,113.03 147.74,113.63 147.01,114.23 147.01,114.24 146.59,115.01 147.6,114.73 148.92,114.78 
	150.06,115 150.55,115.26 150.99,115.05 153.11,114.44 153.9,114.45 154.28,116.19 154.79,116.92 156.75,116.01 157.66,116.26 
	158.44,116.79 158.93,117.24 159.35,118.14 159.24,118.85 159.45,119.31 162.03,119.63 162.86,119.99 163.48,120.37 163.95,120.59 
	164.88,120.47 165.6,120.14 166.07,120.25 166.24,121.43 166.25,122.5 166.37,122.97 167.3,124.5 167.28,124.49 166.06,124.16 
	164.94,124.09 164.17,124.51 164.16,124.51 163.95,125.67 164.51,125.67 164.51,125.06 165.07,125.06 165.75,126.11 165.28,127.43 
	165.26,127.44 164.06,128.55 162.56,129.02 161.99,129.32 161.99,129.32 162.82,129.9 164.01,130.33 164.51,130.14 164.51,131 
	164.5,131 164,131.21 163.33,131.02 162.84,130.69 162.83,130.71 162.75,130.92 162.75,131.13 162.74,131.14 162.65,131.25 
	162.28,131.2 162.29,131.22 162.59,131.64 163.08,132.54 163.4,132.98 163.37,132.98 162.33,132.84 162.08,132.71 161.72,132.37 
	160.8,133.36 160.8,133.36 160.93,134.17 161.73,134.79 162.84,135.21 162.82,135.22 161.88,135.66 160.87,136.41 160.86,136.41 
	160.29,137.52 160.6,139.07 162.98,140.38 163.52,141.2 163.5,141.2 161.72,141.92 161.72,142.42 162.77,143.39 162.76,143.4 
	160.79,144.99 160.79,145 161.11,146.38 161.72,146.38 162.02,146.1 162.16,146.02 162.37,145.97 162.84,145.77 162.6,146.46 
	162.04,147.62 162.04,147.63 161.72,148.06 160.25,148.58 158.64,148.76 117.08,148.83 57.38,148.92 56.06,149.55 55.08,150.76 
	55.07,150.76 54.68,151.42 31.86,189.57 26.15,199.11 18.04,212.66 17.5,214.09 17.53,215.62 18.15,216.94 28.74,230.31 
	27.44,233.23 27.12,233.93 26.29,234.88 25.21,235.33 24.16,235.45 23.14,235.73 22.17,236.67 22.17,236.68 21.89,239.36 
	22.13,244.46 21.2,246.9 21.19,246.91 19.5,248.84 19.5,248.85 19.1,249.81 19.17,251.53 19.35,252.22 20.11,254.23 20.16,254.87 
	20.05,256.07 20.11,256.66 21.55,260.69 21.63,262.23 21.31,263.48 21.3,263.49 20.74,264.51 19.56,266.64 17.76,271.47 
	17.76,271.48 17.75,271.49 16.28,273.2 14.71,273.47 14.71,273.47 14.71,273.47 21.56,278.29 30.79,284.77 42.36,294.93 
	61.4,306.66 62.71,307.9 64.53,309.61 66.92,310.43 71.5,313.47 73.41,314.21 90.53,320.89 103.09,324.14 109.52,324.85 
	130.59,323.62 146.03,323.52 147.11,323.75 150.64,324.49 152.79,324.69 157.07,325.62 165.79,328.49 179.05,334.33 187.45,338.03 
	190.3,338.65 190.3,338.65 189.02,334.8 188.99,333.52 188.99,333.51 189.19,332.18 189.62,330.89 190.27,329.71 191.25,328.72 
	193.5,327.56 194.5,326.78 195.26,325.63 195.8,324.44 196.5,323.29 197.7,322.25 205.57,316.89 207.31,315.2 208.18,314.64 
	211.8,313.3 213.01,313.22 214.49,313.6 216.62,315.21 217.82,315.68 219.02,315.05 219.05,314.61 219.05,314.6 218.99,314.47 
	218.46,313.28 218.38,312.65 218.38,312.65 218.61,311.98 222.11,305.97 223.74,304.23 225.81,302.69 227.96,301.73 236.74,299.69 
	237.27,299.18 237.26,297.9 237,297.57 235.96,297.07 235.6,296.72 235.45,296.19 235.3,294.94 235.19,294.56 234.72,293.68 
	234.48,293.36 234.01,292.93 233.44,292.69 231.73,292.46 231.23,291.31 231.23,291.31 231.71,290.62 232.54,290.05 233.05,289.25 
	233.05,289.24 232.82,288.3 232.22,287.49 231.87,286.57 231.87,286.57 232.4,285.27 233.55,284.44 234.76,284.53 235.65,285.42 
	235.89,286.93 237,286.15 239.02,283.78 239.61,283.53 240.48,283.18 241.77,283.35 242.7,283.82 243.62,284.15 244.91,283.89 
	246.77,282.02 247.6,281.7 247.71,283.29 248.13,282.66 248.22,282.47 250.59,284.15 250.41,281.61 250.41,281.61 250.56,280.31 
	251.09,279.25 251.93,278.71 253.75,278.26 254.42,277.57 255.23,276.14 256.38,274.95 258.93,272.8 259.68,271.91 260.08,271.27 
	260.7,270.86 262.09,270.69 263.09,270.86 265.15,271.55 266.09,271.48 267.05,270.59 267.43,269.24 267.48,267.79 267.48,267.78 
	267.13,263.67 267.13,263.66 267.42,263.15 268.29,262.23 268.5,261.59 268.35,260.2 268.23,260.02 267.86,259.46 267.11,258.82 
	266.22,257.71 264.68,254.09 263.91,252.85 262.27,250.92 261.55,249.87 261.16,248.74 261.24,247.19 261.88,246.23 263.91,244.53 
	264.72,243.41 265.32,242.58 266.33,240.27 266.34,238.11 266.34,238.11 264.74,236.66 266.04,232.89 267.02,231.41 267.87,230.74 
	268.16,230.5 268.3,230.39 268.68,230.08 271.19,228.86 279.49,226.16 282.35,224.86 321.07,195.78 321.07,195.77 329.33,189.49 
	333.13,185.88 335.61,181.76 336.06,181.16 337.79,181.12 339.09,180.66 340.29,180.01 341.7,179.43 342.2,180.04 342.75,178.95 
	342.69,178.07 342.69,178.07 "/>
</svg>
