<svg xmlns="http://www.w3.org/2000/svg" xmlns:xlink="http://www.w3.org/1999/xlink" id="Capa_1" x="0" y="0" version="1.1" viewBox="0 0 518.73 310.89" style="enable-background:new 0 0 518.73 310.89" xml:space="preserve"><style type="text/css">.st0{fill:#e2af1d}</style><path d="M508.09,110.2l-2.7-1.8l-2.46-3.03l-1.72-3.25l-1.75-5.29l-1.1-1.5l-4.56-2.75l-11.58-3.29l-9.39-3.89	l-0.92-0.23l-1.04-0.5l-1.26-1.01l-1.36-0.6l-1.33,0.75l-0.38,1.58l1.35,0.64l1.79,0.41l0.95,0.89l0.78,0.48l3.72,1.02l1.37,0.08	l-0.26,0.85l-0.17,0.33l0.56,0.53l1.42-0.73l1.26,0.17l2.6,1.26l1.5-0.89l1.11,0.87l0.73,1.56l0.37,1.16l0.42,0.83l0.52,0.45	l0.51,0.35l0.39,0.49l0.44,0.87l0.05,0.29l-3.65,1.59l-0.63,0.46l-0.47,0.56l-0.66,1.29l-0.42,0.51l-1.58,0.78l-1.1-0.49l-0.68-1.43	l-0.33-2.04l-0.62,0.05l-0.3,0.56l-0.13,0.51l0.13,0.54l0.48,0.68l-0.45,0.41l-0.55,0.29l-0.48-0.1l-0.26-0.75l0.05-0.89l0.25-0.43	l0.35-0.3l0.35-0.46l0.43-1.27l0.4-0.8l0.48-0.38l0.73-0.01l0.88,0.09l0.75,0.22l0.34,0.4l0.55,1.39l0.99,0.29l0.93-0.6l0.34-1.29	l-0.19-2.52l-0.21-0.59l-0.3-0.35l-0.08-0.33l0.46-0.54l-0.04-0.52l-1.4,0.38l-5.51-0.62l-0.64-0.15l-0.54,0l-0.53,0.4l-0.07,0.68	l0.32,1.89l-0.34,0.42l-2.97,0.6l-1.69,0.63l-1.25,0.83l-1.23,2.54l-0.67,0.44l-0.87-1.58l-0.62,0.05l0.09,1.1l-0.38,0.64	l-0.63,0.08l-0.66-0.55l-0.25-0.82l-0.04-3.14l-0.79-2.4l-0.9,0.18l-1.1,0.91l-1.39-0.2l-0.04-0.52L460,93.4l0.64-0.64l0.53-0.4	l-0.81-0.99l-0.92-0.88l-1.04-0.6l-2.43-0.31l-1.46-0.5l-1.21-0.74l-0.55-0.86l-1.33-1.61l-7.71-2.62l-1.82,0.79l-0.79,0.48	l-0.69,0.7l1.02,0.64l2.14,2.57l1.09,0.58l6.56,1.72l0.91-0.01l0.79,0.11l0.37,0.39l0.32,0.54l0.65,0.53l3.7,1.6l1.14,0.92l-1.21,1	l-1.82,0.87l-1.92,0.63l-1.51,0.29l-1.79-0.24l-1.45-0.85l-1.12-1.23l-0.81-1.38l-0.04-0.52l0.9-0.52l0.54-0.19l0.81-0.03	l-0.04-0.57l-4.06,0.8l-1.64-0.14l-1.25-1.3l0.59-1.39l-0.49-1.26l-1.08-1.06l-1.18-0.78l0.97,2.4l-0.74,0.85l-1.81-0.28l-2.25-0.96	l-1.53-1.35l-1.59-2.19l-0.8-2.07l0.82-1l1.74-0.93l-0.64-1.85l-1.52-2.11l-1.33-2.66l-0.82-0.4l-0.77,0.31l-0.58,2.38l-1.62,0.89	l-0.17,1.3l-0.57,0.04l0.1-1.02l0.2-0.96l-0.07-0.69l-1.57-0.41l-0.58-0.61l-0.79-1.86l1.01,0.05l1.46,0.22l1,0l1.39-0.58l1.08-0.29	l0.97,0.08l1,0.93l2.86,4.53l0.57-0.04l0.16-0.3l0.08-0.1l0.09-0.06l0.19-0.2l-1.15-1.13l-1.09-1.47L433.58,74l0.17-0.93l0.62-0.16	l0.98-0.03l0.91,0.08l0.42,0.16l-0.15,0.56l-0.42,0.54l-1,1l2.39,0.62l0.55,0.31l1.12-0.87l0.55-0.77l0.75-0.58l1.7-0.34l1.11,0.41	l1.25,0.87l1.17,0.57l0.88-0.51l0.57-0.04l2.98,2.81l0.8,0.98l-0.39,0.16l-0.34,0.28l-0.38,0.17l1.05,0.86l1.13,0.16l2.54-0.17	l0.81,0.28l1.67,0.97l2.43,0.61l3.36,2.19l1.51,0.44l1.23-0.25l0.52-0.47l-0.1-0.65l-0.63-0.77l-0.77-0.33l-2.99-0.26l-1.57-0.54	l-1.61-0.78l-5.96-4.49l-5-3.29l-9.16-7.39l-10.3-6.77l-5.16-4.88l-2.74-1.15l-0.77-1.13l-0.73-0.65l-1.09-0.24l-11.42-0.03	l-13.45-1.59l-1.04,0.02l-0.57,0.64l1.12,0.43l12.93,1.43l1.74,1.02l-4.08,0.3l-1.86,0.79l0.39,1.57l-4.34,0.56l-1.81-0.3	l-0.86-1.69l-0.51-0.53l-0.87,1.06l-0.63,1.48l0.2,0.71l-1.68,0.23l-0.65-0.26l-0.89-0.88l-0.73-1.26l-0.5-1.7l0.1-1.53l1.47-1.01	l-0.74-0.51l-1.83-0.77l-2.96-0.36l-14.3-4.66l-10.14-2.08l-3.65,0.4l-2.17,0.23l-7.12,5.3l-2.42,1.13l-2.87,0.76l-13.18,1.54	l-10.53,1.7l-3.5-0.12l-3.13-0.47l-5.53-1.6l-1.24-0.19l-1.3-0.47l-1.42-0.93l-1.16-0.44l-0.52,1.01l-0.18,0.18l-0.24,0.16	l-0.15,0.28l0.09,0.56l-0.62,0.05l-0.29-0.9l-0.07-1.14l-0.29-0.95l-0.96-0.34l-1.38-0.18l-2.17-1.06l-1.19-0.19l-4.68-0.24	l-2.39-0.54l-1.44-0.88l-0.9,0.52l-1.81,0.45l-0.63,0.49l-7.11-1.37l-2.17,0.33l-0.34,0.97l2.58,0.43l5.36,0.34l1.46,1.6l-0.6,2.08	l-1.63,2.03L275,54.78l-0.82,0.48l-1.03,0.37l-11.94,1.32l-2.86,0.9l-2.81,1.34l-0.89,0.82l-1.91,2.37l-7.61,5.39l-1.35,0.72	l-1.64,0.38l-2.04,0.03l-1.34-0.24l-2.04-1.07l-0.17-0.09l-2.64-0.82l-2.79,0.14l-16.25,2.6l-3.58-0.03l-0.43-0.26l-1.05-0.49	l-1.05-0.27l-0.44,0.41L208,68.96l-1.31,1.15l-0.21,0.27L205,70.73l-5.03,1.87l-3.17,0.55l-3.01-0.02l-9.07-1.32l-7.83-0.24l-7.73-2	l-8.8-1.28l-1.66,0.29l-1.2,0.84l-0.39,1.46l-0.42,0.38l-2.18,0.07l-0.8,0.12l-0.37,0.44l-0.75,1.42l-0.43,0.51l-2.65,0.71	l-2.61-0.86l-8.34-6.29l-0.51-0.55l-0.76-0.52l0.48-1.34l1.44-2.25l-2.78,1.94l-0.79,1.02l0.92,0.74l0.04,0.52l-1.44-0.02	l-3.88-1.88l-1.44-0.37l-1.51-0.07l-0.52,0.2l-0.64,0.25l-0.39,1.22l-1.47,0.52l-7.17,1.01l-2.41,0.98l-1.3,1.05l-1.38,0.52	l-3.53,0.33l-0.28,0.29l0.39,0.57l0.8,0.53l0.95,0.2l0.5,0.35l-0.12,0.84l-0.52,1.18l-4.67,3.23l-3.33-0.19l-0.82,0.33l0.54,1.28	l-1.96,1.43l-4.48,5.37l-2.14,1.12l-2.09-0.47l-4-2.34l-0.56-0.18l-0.97,0.43l-0.21,0.77l0.13,0.9l0,0l-0.47,1.16l-0.57-0.59	l-1.4,0.7l-1.18,0.75l-1.3,0.58l-1.77,0.17l-0.42,0.65l-2.22,4.41l-3.61,3.98l-5.44,4.82l-2.54,2.25l0,0.01l-20.6,18.01	l-16.83,14.72l-2.82,1.56l-8.3,3.4l-2.48,1.45l-0.36,0.34l-0.13,0.12l-0.29,0.27l-0.81,0.76l-0.89,1.58l-1.04,3.95l0,0l1.75,1.37	l0.16,2.21l-0.86,2.45l-1.3,2.11l-1.95,1.9l-0.58,1.03L8.49,164l0,0l0.48,1.13l0.82,1.03l1.83,1.85l0.88,1.21l1.86,3.58l1,1.08	l0.81,0.6l0.43,0.54l0.14,0.17l0.25,1.41l0,0l-0.16,0.67L16,178.29l-0.25,0.55l0,0l0.67,4.19l0.07,1.49l-0.29,1.42l-0.92,0.98	l-0.96,0.15l-2.16-0.55l-1.04-0.1l-1.41,0.29l-0.6,0.46l-0.36,0.69l-0.69,0.97l-2.45,2.4l-1.08,1.31l-0.72,1.52l-0.63,0.76	l-1.83,0.6l-0.81,0.61l-0.46,1.13L0,198.48l0,0l0.38,2.59l0,0.01l4.58,0.36l2.69,1.01l4.34,0.57l2.24,1.3l3.95,0.83l0.37-0.38	l0.37-0.38l1.04-2.35l0.61-0.71l0.73-0.26l0.5,0.05l0.44,0.34l0.53,0.6l0.48,0.74l0.24,0.82l-0.01,0.85l-0.26,0.85l1.02,0.73	l2.88,0.11l1.39,0.56l0.61,1l0.52,2.54l0.43,0.72l2.24,1.41l0.84,0.85l0.84,1.18l0.2,0.51l0.2,0.52l0.06,0.3l0.09,0.44l0.06,0.32	l0.34,0.88l0.78,0.46l0.79-0.24l0.96-0.64l1.13-0.58l1.31-0.07l2.17,1.14l1.92,2.02l1.44,2.41l0.73,2.32l1.46-0.32l3.69,0l0.97-0.46	l0.82-0.58l0.36-0.07l0.36-0.06l0.67,0.91l0,0l0.04,1.42l-0.41,1.42l0.04,1.18l1.38,0.74l1.81,0.09l0.4,0.11l0.64,0.47l0.46,0.53	l0.24,0.68l0,0.58l0.5-0.23l2.11-0.48l2.14-0.02l6.49,1.5l3.71,0l0.84,0.27l0.8,0.66l0,0l-0.05,0.27l-0.01,0.2l-0.06,0.05	l-0.06,0.05l-0.18-0.01l-0.18-0.01l0.13,0.23l0.47,0.84l0.01,0.98l-0.21,1.04l-0.08,1.24l0.29,0.78l1.07,2.13l0.16,1.34l-0.65,1.24	l0,0l2.23-0.27l1.5-1.06l1.48-0.75l3.32-0.97l0.8-0.01l1.38,0.41l0.62,0.02l0.08-0.25l-0.02-0.25l-0.02-0.25l0.02-0.52l0.24-0.32	l0.54-0.07l0.68,0.06l0.34,0.08l0.34,0.08l0.28,0.09l0.28,0.09l0.51-1.09l0.88-0.39l0.5-0.08l0.51-0.08l0.89-0.37l0.62-0.66	l0.26-0.54l0.28-0.57l0.5-0.63l0.97-0.49l0.75,0.06l0.53-0.16l0.31-1.18l-0.17-0.21l-0.8-0.62l-0.19-0.29l-0.21-1.65l0.02-0.29	l0.8-0.36l1.27,0.03l0.26,0.04l2.01,0.28l1.34-0.07l4.33-0.84l2.22-0.05l1.02,0.7l1.46,3.02l0.66,0.66l0.66,0.66l0.82,0.63	l0.82,0.63l0.74,0.74l0.74,0.74l0.85,2.03l3.68-2.14l1.23-0.42l0.67,0.08l1.29,0.69l0.59,0.12l0.37-0.22l1.02-0.88l0.64-0.27	l0.84-0.01l1.67,0.21l0.8-0.11l0.77-0.62l0.63-0.91l0.79-0.74l1.25-0.15l0.84,0.55l0.98,2.14l0.75,0.95l0.45,0.22l1.2,0.35	l0.53,0.23l1.44,1.04l2.49,1.79l1.52,0.47l-0.67,1.27l-1.4,3.93l-0.32,1.39l0,0l0.65,1.35l-0.34,0.93l-0.78,0.84l-0.65,1.09	l-0.19,1.5l0.3,3.1l-0.07,1.54l-1.66,4.88l-0.32,2.35l0,0l0.51,0.93l0.51,0.93l0.89,0.24l0.86-0.36l0.87-0.36l1.25,0.37l0.7,0.68	l0.51,0.97l0.23,1.1l0,0l-0.12,1.09l-1.33,1.71l-6.36,3.43l1.27,0.36l0.58,0.09l0.82-0.02l0.32,0.24l0.04,0.57l0.18,0.56l1.64,0.4	l2.05,1.02l1.52,0.17l2.32-0.8l2.15-1.81l1.07-2.32l-0.95-2.32l0.75-1.01l1.1-1.04l1.03-0.3l0.54,1.23l-0.14,2.39l0.34,0.9	l1.18,0.35l-0.78,2.16l-0.09,0.83l0.57-0.04l1-1.11l1.48,0.01l1.68,0.46l1.61,0.21l0.04,0.52l-1.2,0.09l0.04,0.57l0.82,0.28	l0.75-0.08l1.29-0.41l2.91-0.16l0.52-0.1l0.77-0.73l-0.1-0.45l-0.33-0.58l0.07-1.14l0.36-0.85l0.4-0.48l1.36-1.12l0.85,0.73	l0.67,0.09l1.67-0.43l0.77,0.1l0.61,0.35l1.31,1.01l0.01,0.01l-0.07,0.58l0.03,0.49l0.17,0.7l-2.61,1.23l-1.3,0.41l-1.15-0.16	l-0.57,0.59l-1.5,2.45l-0.7,0.68l-1.35,0.74l-0.67,0.5l-0.66,0.85l-0.1,0.7l0.33,0.66l0.64,0.71l0.42,0.08l0.55-0.17l0.48-0.07	l0.24,0.34l0.11,0.05l0.62,1.3l1.79,1.96l1.84,2.8l1.4,3.22l0.47,3.21l0.52-0.04l1.52-0.57l2.77,0.09l4.95,0.9l-0.84,0.31	l-2.53,0.58l-0.52,0.24l-0.05,1.34l0.16,0.44l0.6,0.78l1.19,1.15l1.31,0.61l1.7,0.2l2.32-0.1l0.04,0.52l-1.11,0.51l-0.86,0.66	l-0.54,0.86l-0.18,1.1l-0.78,0.61l19.03-2.62l1.25,0.04l2.01,1.02l1-0.01l0.35-1.4l1.69-0.97l2.04-1.48l0.87-1.07l1.74-3.15	l0.45-0.4l0.59-0.35l0.6-0.35l0.2-0.23l0.2-0.23l0.16-0.84l0,0l-0.35-0.28l-0.24-0.08l-0.24-0.08l-0.25-0.51l0.39-4.46l-0.17-0.2	l-0.73-1.3l-0.19-0.47l0,0l0.12-0.23l0.43-2.4l0.51-1.17l0.61-0.87l3.77-3.68l1.05-0.83l1.31-0.48l1.45,0.02l5,1.96l0.81,0.18	l0.78-0.26l0.59-0.47l0.55-0.43l1.07-1.12l0.57-1.15l0.09-1.3l0,0l-0.68-2.36l-0.11-0.25l-0.11-0.25l-0.34-0.51l-0.34-0.51	l-0.58-0.44l-0.58-0.09l-0.52-0.22l-0.39-0.81l0.05-1.21l0.89-2.39l0.04-1.32l-3.46-9.84l-0.15-1.42l0.16-1.36l0.16-1.36l-0.16-1.34	l-0.36-0.52l-0.63-0.4l-0.09-0.06l-0.4-0.26l-0.36-0.41l-0.21-0.75l-0.09-4.43l-0.03-1.51l0.11-1.18l0.1-0.52l0.37-0.37l0.92-0.73	l1.83-1.07l1.74-0.28l3.69,0.17l6.73-1.78l3.3-0.44l2.88,1.28l1.52,0.3l1.19-0.48l1.08-0.66l1.21-0.26l1.42,1.23l0.52,0.31	l0.81,0.19l0.59,0.04l4.3-0.59l1.51-0.48l1.21-0.69l0.89-1.14l0.2-0.65l0.2-0.66l0.47-2.53l1.17-2.14l2.53-3.08l2.53-3.08l2.56-4.61	l0.84-0.64l0.96-0.45l0.98-0.59l0.9-1.07l0.52-1.11l0.26-0.83l0.39-0.76l0.87-0.9l1.11-0.67l6.34-1.4l0.05,0.93l-0.78,1.87l0.4,2.2	l6.23,3.75l1.99,2.2l0.6,0.47l1.2,0.3l0.76-0.22l0.74-0.36l1.14-0.15l1.9,0.65l1.09,1.38l0.94,1.65l1.46,1.48l1.9,0.49l1.95-0.21	l1.72,0.01l1.21,1.14l0.22,0.07l0.71-0.73l0.59-1.41l0.08-1.31l-0.55-0.93l-1.28-0.29l-0.37-0.7l0.22-1.64l0.64-2.58l-0.04-1.85	l0.37-0.49l0.88,0.13l1.49-0.01l1.03-0.57l1.6-1.56l0.73,0.15l0.52-0.04l-0.07-0.39l0.12-0.11l0.23-0.01l0.25-0.1l-0.34-0.86l0,0	l1.43-0.55l1.44-0.55l0.76-0.88l0.7-1.22l1.79-0.73l0.48-0.12l0.28-0.07l1.32-0.33l1.53-0.62l0.7-1.21l0.08-1.35l0.4-1.14l2.95-1.03	l1.37-0.91l1.02-0.91l1.02-0.91l0.89-1.25l0.8-1.69l0.57-1.64l0.45-2.19l0.71-1.38l0.44-0.65l0.44-0.64l0.37-0.41l0.38-0.41	l0.18-0.04l0.18-0.04l0.91,0.07l0.17-0.05l0.17-0.05l0.11-0.14l0.11-0.14l0.19-0.63l0.54-0.74l0.3-0.59l0.42-0.5l0.77-0.25	l1.92-1.12l0.86-0.24l3.17-0.24l2.05-0.52l2.04-0.83l1.65-1.15l0.87-1.45l-0.23-1.9l-1.2-1.59l-1.59-1.21l-1.41-0.77l0,0l2.16-1.89	l0.05-0.54l-0.29-1.27l0.06-0.53l1.79-2.15l0.26-0.57l-0.15-4.25l0.19-2.35l0.58-1.25l1.55,0.27l1.45,1.33l1.5,0.92l1.71-0.94	l2.76-3.13l0.46-1.29l0.06-0.17l-2.17,0.16l0.45-0.68l1.72-1.83l0,0l-2.49-1.47l-0.51-0.78l1.29-0.45l0.42-0.23l0.23-0.52l0.21-3.13	l0.64-1.36l1.07-1.14l0.22-0.17l0.5-0.38l0.69-0.53l1.42-1.15l3.57-3.9l0.66-0.44l0.66-0.44l2.47-0.63l2.47-0.63l2.2-0.26l2.22,0.48	l1.94,1.2l1.38,1.89l0,0l-0.24,0.26l-0.6,0.87l-0.03,0.17l1.69,0.08l0.3,0.99l0,1.12l1.79,1l0.97,1.33l1.48,2.78l1.48-1.02	l1.62,0.05l3.35,1.12l1.92,0.25l6.13-0.28l-0.28,0.62l-0.07,0.83l-0.06,0.83l0,0l1.24-0.48l0.92,0.4l0.93,0.67l1.31,0.28l0.91-0.34	l2.08-1.34l3.05-1.29l1.4-1.97l0.5-1.1l0.5-1.1l0.99-1.67l0.87,0.75l0.76,2.13l0.67,0.4l1.28,0.01l2.07,0.3l0.93,0l1.66-1.01	l0.29-1.88l-0.72-3.9l0,0l0.39-1.03l1.05-0.15l1.19,0.3l0.79,0.36l0.34,0.24l0.34,0.24l2.14,1.92l1.04,0.33l1.22-0.18l2-0.73	l0.48-0.32l0.31-0.42l0.4-0.39l0.75-0.21l0.71,0.06l0.41,0.16l0.18,0.01l0.18,0.01l0.55-0.4l-0.05-0.62l-0.79-0.64L438,139.3	l-1.12-1.89l0.86-0.81l0.61-0.09l2.01,1.04l0.24,0.37l0.34,0.27l0.89,0.05l1.4-0.15l0.45,0.2l0.21,0.64l1.45,0.06l8.25-1.05	l-0.49-0.65l0,0l-0.04-0.77l0.14-0.98l0.14-0.98l0.53,0.24l0.53,0.24l0.73,0.65l0.73,0.65l1.09,0.2l-0.13-0.35l-0.48-0.75l0.63,0.2	l0.34,0.07l0.31,0.19l0.53,0.57l0.95-0.97l0.72-0.46l0.71-0.46l1.63-0.65l0.77-0.07l0.77-0.07l0.01,0L463,133.4l-0.44-0.38	l-0.67-0.94l4.65-0.62l1.69-0.79l-0.27-1.29l0.52-0.07l0.53-0.07l0.44,0.03l0.44,0.03l0.65,0.33l0.37,0.69l0.63-0.05l-0.98-2.34l0,0	l0.13-0.47l0.13-0.48l1.51-0.84l1.64-0.35l1.86-0.05l1.58,0.34l0.78,0.83l0.62-0.05l0.29-1.05l0.09-1.14l0.34-0.93l1.99-0.9	l1.97-1.78l1.18-0.44l-0.19-0.28l-0.26-0.57l-0.21-0.25l1.27,0.26l0.49,0.18l-0.34-1.1l0.04-0.98l0.44-0.39l0.88,0.68l-0.05-1.27	l0.1-0.53l0.4-0.59L486.6,115l0,0l0.25-0.44l0.83-0.15l1.12,0.1l0.47,0.38l1.13,1.44l0.8,0.35l1.95-0.37l1.62-1.11l1.2-1.49	l0.69-1.51l1.11,0.73l0.55,0.17l0.55,0.17l0.45,0.23l0.46,0.23l0.52,1.08l1.2-0.9l1.43-0.21l3.72,0.11l-0.96,0.55l-0.01,0.23	l-0.01,0.22l0,0l0.64,0.36l1.05,0.31l0.17-0.04l0.17-0.04l1.86-0.11l1.86-0.11l1.07-0.58l1.07-0.58l1.15-0.3l2.84-0.05l1.16-0.25	L508.09,110.2z M191.68,46.81l1.18-0.24l2.19-1.06l1.29-0.41l1.58-0.06l-0.27-0.95l0.62-1.43l-0.56-0.49l-0.99,0.03l-1.1,0.39	l-1.2,0.27l-1.29-0.34l-4.4,2.63l-0.19,1.31l1.35,0.43L191.68,46.81z M219.02,27.78l1.85-1.96l1.16-0.84l1.52-0.64l3.06-0.97	l1.43-0.7l3.5-2.66l5.43-3.2l1.31-0.6l0.76-0.11l1.45,0.12l0.74-0.08l0.5-0.26l1.1-0.82l0.55-0.31l1.47-0.35l3.3-0.22l1.53-0.31	l1.33-0.58l-0.69-0.07l-3.18,0.3l-4.53-0.67l-1.51,0.13l-6.56,1.95l-2.02,1.02l-5.1,3.43l-4.4,2.11l-3.47,2.06l-2.38,2.52l0.73,2.55	L219.02,27.78z M277.48,8.95l1.68-0.56l0.86-0.43l0.51-1.62l1.55-0.74l0.53-0.64l-0.01-0.59l-0.85-0.21l-3.09,0.34l-1.06,0.58	l-1.23,1.21l-0.96,1.38l-1.29,2.77l-0.79,1.26l0.09,1.14l2.61-2.72L277.48,8.95z M151.27,284.55l-1.06,0.22l-1.32,0.54l0.35,0.42	l0.58,0.89l0.35,0.42l-0.57,0.04l0.04,0.52l0.38,0.24l0.36,0.12l1.02,0.08l1.84-0.46l0.78-1.27l0.06-1.31l-0.31-0.58L151.27,284.55z M153.52,278.05l-0.85-0.18l-1.04-0.31l-0.72,0.53l-0.97,1.65l-0.1,1.47l1.87,0.92l3.97,0.95l1.17-1.28l-1.24-3.23l1.4-0.77	l-0.04-0.52l-1.22,0.12L153.52,278.05z" class="st0"/></svg>