<svg xmlns="http://www.w3.org/2000/svg" id="Capa_1" data-name="Capa 1" viewBox="0 0 741.12 483.27"><defs><style>.cls-1{fill:#222}</style></defs><path d="M483.14,187.52c-5.18,19.62-16.59,45.81-14.91,61.84,1.14-8.1-.6,17.33,0,21.19.84-5.89-3.3,5.85-3.33,6.66,1.32,1.29.68-2.7,1.45-1.67-.87,10.68,3.62,22.07,12.5,28.77.06,2.74-2,4.9-2.3,7.49-.42-1.46-2.45-4.54-.2-5.3,2.88-.54-.19-3.12-1.64-4.16-15.86-28.46,3.7,22,13.26,30.86,13.29,13.19,15.25,32.38,28.81,43.35-1.54-.63-3.49-2.84-5-2.32,1.25.82,4.89,3.24,2.61,2.57-1.54,1.74,5.05-.38,6.46,2.22,1.29-.79-3-1.63-3.48-2.24-.33-2,3.64,1.82,5.66,1.28,9.52-.64,18,4.77,22.32,13.27,5.31,2.8,12-1.6,17.31-3-2.5,2.22,3.5,1.13,2.3-.21,1.41-1.57,5.44.73,4.52-2.59-15.52,6.33,6.72-4,10.06-.13-.75.59-.21,1.91.86,1,.74-.38-.31.73-.12,1.06a6.74,6.74,0,0,0,1.14-1.33c-3.22-2.18,4.09-.81,5.64-1.87,4.06-2.35,3.21-6.06,4.53.94-2.23-6.91,5.91-5.63,11.7-6.57,1.49-1.58,10.58,1.22,7.13,2.29-2.21.48-.36-.86-1.54-.79-.09,0-.46.49-.59.41-1.78-.4.51.52-.56.54-1.17-.3-.62.14-1.19,1.11,1.38-1.07,5.94,2.78,2.15-.4-.61-1.45,1.82,0,2.19.94-1.42,0,2.63.52.48,2-.42,1.27,2.51,2.55,1-.06a.91.91,0,0,0,.71.38c1,0-1.19-.95-.36-1.43,2,1.57,6.09.6,7.34,1.32.79.24.32-1,.3-1.5-3,1.92,3.81-3.19,5.64-3.11,3.39-3.28-2.62,2.77-.34-3-.36-.62-1.27-2-1.8-.88-4.54-1.49,1.55-2.87,2.49-4.81-1.27.74-4.16,1.9-4.31,3.36-6,1.3,13.53-9.34,15.65-12.38,2.75-4.8-.65-12.32,6.13-14.74,3.07-6.66-2.23-17.32,3-23.87.55-3.08,2.18-6,.19-1.17C644.19,310,680.09,312.28,690.19,305c12.75-1.06,9.33-3.69,21.6.19-10.07-1.73,7.09,2.5.71-.05,2,.15,5.33,1.2,5.13,1.61,3.19-.21,8.18,2.22,8.23-2.38-.84-1-4.34,2.07-4.92.1-2.08,2-2.61.51-.49-.54,1.92.64,3.77-.17,5.42-1.16,2.85-1.09,4.53,4.65,5.81,4.58,3.48-.2,1.12,4.16,1.93,6.22,5,10.53-20.18,21.41-15.66,35.31-1.19,3.54,1.13-2.65-.42-3.18-.22,1.93,1.06,2.41-1.15,4.18-2.45-1.29-2.11,3.93-3.75,4.3,1.23-1.17-.07-1.27-1.33-1.23a2,2,0,0,0,1.81,3c-1.18,1.36.47,2.2,1,.54,1.76-1.42,4.74,1.08,4.68-1.17-.92,1.17-4.1-.35-.52.29,1.68-3.08.44,3.88-1.91,4.49-2,.29-.15.41-.26-.8-1.61-.37-3.82,3.22-2.81,2.12.39.13-.54.79-.56,1.12,1.27.16-1.1,1.55,0,2,2.39,1.14,1.78-3.22,4.39-2.46,0,.15-.86,1.56-.21.8.15-.66,1.81-.84.57-.21-3,6.25-4.89,14.26-6.72,20.64.13,2.73-2.47,5.26-2.28,7.74-.47-2.34-.11.07-1-1.2.65-.45.57-1.46.62-2.15-.77,2-.34-.78-.83-1.57-1.53,0-.1-1-1.1-1.53-1.84-.22-4.52-1.45-2.4-3.19,1.66-3.27.71-12-2-4-.87.58.05-1.35-.25-.82-.57.25-3.85,1.89-2.38,2,.69-1.23,1.79-1.6,1,.2,1.2-1.72.72.2-.07,1.06-1.75,3.58-3,4.57-7.07,3.85-2.28,2.08-1.86,6.45-5,7.83-1.55,4.33-3.92,9.56-8.56,4.56-9,15.28-54.12-10.58-47.12,19-14,.56-11.51-2.71-4.35,5.68,2.27.07,2.14,3.76,4.56,3.79.24-1.57,2.29,3,4.19,1.66,1.2,1.65,4.2,3.3,3.48,5.57,0,.36.45,0,.48-.17.92.65-.81,1.94.84,2.07.32.44-1,.95-.2.79,2.59.25,4.7,1,5.84,3-1.33-.4-.92.15-.46.5-.79,1.27-1.39.67-.37,1.51-.78-.16-.63.12-.33.61-1.06-.5-.88.58-.16.69-1.42.57-.4,1.29.2,1.85-1.73,5.08-16.5,1.2-23.69,2.37-11.46-2.62-12.4,9.52-17.83,16.82-3.51,2.53-.26,6.13,1.54,8.25-4.48,3.06-.13,10.67-4.29,13.12-2-3.1-16.72-15-12.86-15.26.56.55.11,1.49,1.06,1.67-.57-.65-.19-1.45-.75-2-4.39-1.65-26.41-19.81-26.61-21.17.08-3.52-6.12-1.94-6.72-5.42-3.86,2.55-6.2-4.67-6.81-.43-.81-.25.22.27.21.39-1.13.37,2.23,1.87,3,2.21,2.32-.19-3-1-.55-1,17.38,8.07-2.07-1-9.87-.48.16-1.55,6.56-2.24,1.65-4.14-1.23-.48-3.49,4.34-3.71,1.64,1.82-2.91-2.57-4.7-3.82-.87-5.76,1.32.92,3.46,3.18,1.2.86,1.3-3.94.7-1.51,1.29,8.93.4-11.52.61-12.83,5.93-4.77,2.11-11.5,3.59-16.77,6-10.64,7.56-21.48-4.38-32.56-4.62-3.43,1-19.22-6.43-15.86-6.25,2.5.12-1.1-.91-1.69-.93-10.09.77-12.36-9.62-16.31-7.63-6.89-3-22.35-3-24.32-7.66.6-1.33-1.9-.19-.95-.19-.25,1.42-1.37-1.84-2.3-1.73-17.82-6-33.9-11.56-44.13-24.93-2.35-.69-5.62-4.17-7.73-1.55-8.3.51-19.17-5.74-28.19-7.61-8.36-2.64-8.65-11.9-16.69-16-3.4-2.38-8.51-2.51-8.46-5.76-1.38.44.08-.69-1.39-.41-.74,1.94-6.8-1.82-8.68-3-3,.88-.21-1.65-2-1.69-3.26,1.51-5.31-3.21-6.19-5.19-5.7-5.41-10.82-14.67-14.42-22-1.54-5.1,7.8-2.63,9.91-5.3,2-1.84-.86-3.56-1.81-5.11-.65-.53-1,.58-1.68.54-.81-.74-4.65-.57-2.51-1.4,18.93-17.67-3.83-19-3.23-36.56-1.42-12.69-10.64-19.41-18.49-26.11-5.55-13.13-22.89-27.07-33.28-35.39.91,1.75,4.83,3.06,6.48,4.42,1,.54-.63-.52-.93-.69,2.48,1,2-1.61.57-3.83-.76-.88-2.9,1-.76.19.3,1.61-2.18,1.68-2.81.36-1.35,1.25-1.53-1.24-2.48-1.46-.69-1.2-2.22-1.18-3.24-2.09-2.35-.49,4.31,3.5,1.91,2.65-2.63-1-5.23-4.85-5.14-6.76,3.6,2.5.16-2.16,1.11-3.72-.85-4.56-1,.65-1.07,2.67-3.28.83-3.48-5.91-6.51-7.09-.12-2.79,4.53,5.77,4.46,2.33,0-.16-.09-.5-.32-.37-1.25-.05.3-1.82.88-.21,4.57,1.72,1.38-1.41-.34-2.59-.46,1.12-1.92,0-2.39-1.33-6.27,1.4-.42-1.21-3.48-2.58,0,.19-.71,4-.95,3.08.8-3.63-5.26-5.18-8-5.47.39-1.12,4.34.69,2.76-.1-.72-1.82-3.19.15-3.91-1,1.8.65,1-1.83.2-1,.27-2.29.1-3.36-3-3.33.89,1.16-.38,3.59-1.23,2,1.08-.71-2.92-.56-1.44.52-2.72.07-3.1-3.73,0-3,.46,2.69,3.6-4.75,4.3-5.7-.76-1.09-1.23,1.9-1.77,2.39-3.8,2.52-4.77,4.15-8.47.39-.46,1.34,2.84,2,2.27,3.48-1.85-2.94-3.34-1.87-6.16-2.4,2.55-1.81,2.24,1.17,3-1.9-3.62-3.87-2.11,2.16-3,.63-2.69-4.57,4.16-21.34,3.15-12.61,1.4-1.18.42-5.48,2.53-4.8,1.46.92-.79,2,.49,2.26,2.33,2.09.5.28,1.61-.46.36,0,0-.39,0-.51-1.06.37-1.18-1.37-1.66-2-1.58-.87.74.48-1.33,0-2.06,2.41.3-3.41-1.59-4.25-1.91-3.18-4.54-3.55-4-5.23-.08,0-.67-.09-.78-.08-.16-.18-.15-.93-.52-.54-.08.51-.49-.06-.41-.27-.47-.29-.91.38-1,.82,2.39,2.68-9,.84-8.69-6.39-1.15-1.9-1.09-1.62.67.3-1.14-6.91-10.8-4.19-15.55-9.79,2.66.39,2.7.34,1.29-1.25-2-1.59-3.4-4-3.79-8.08.13-.88,1.77-.45,1.38-1.54-.61.27-1.14.38-.46-.68,1.73-.25.6-.63-.25-.82.55-1-1.21-1.92.2-1.79-.25-1.27,2.62,0,1.9-1.53-.54.47-2.78-1-2.2-.07-1.44-.52-4.44-1.37-5.94-1.05,1.25,0,1-2,0-2.06.22.69-1.18,2.56-.61,2.39.67.3.17,1.38-.25,1.73-2-1.94-1.48-4.21-5.31-2.65C142,131,137,126.22,136,122.24c1.14-1.17-1-.42-1.56-1-2.74-.76-5.55-2.08-5.93-5.25-.2-.31-5.66-4.9-4.18-5,.8-.72,1-.19,1.6.38.8-1.93-2.11-1.55-3.33-2.92-1.6-.86-1.88-3.1-4-3.26.83-2.78-1.07-6.11-1.66-9.51-2.06-1.3-2.3,1.17-4.17-.82,1.66-4-1-5.61-2.9-9.23-2.28-1.24-1.86-6.77-4.82-6.35,1.06-11.67-11.65-20.6-9.29-32.16,1.28,4.41,2.92-5.4-.8-4.92,1.6,1.91-2.17-.51-2.12-2-.21,1.81-7.53.35-9.8-1.69,3-4.58-7.64-7.44-8.33-8.61-.64,12.39-17.92-6.48-24.28-7.77-.87.1-.75-1.51-1.31-1.24,0,1.89,1.76,1.52,2.71,2.65,7.58,5.43-3.19,16.95,2.63,23.62a41.9,41.9,0,0,1,3.75,24.23c1.59,4.49,5.81,7,6.5,11.21,2.84,2.72,1.72-.61,4.15,1,6.57,6.63,17,12.49,16.15,22.09,0,1.49,2.22,2.55,1.76.93-.25-.92.84-.34,1.18-1.06.18.75.45,1.24,1.13.56,1.49,9.43,2.15-1.25,4.77,4.63,1.65,14.36,9.84,3.61,7.75,13.5,3.63,5.3.8,12.78,6.65,17.29,9.44,2.22,6.81,13.1,15.53,16.11-5,2,4.59,6.41,1.63,8.21-.77,1.4.26,1.24.9,2.32s2.45,5.41,4.27,2.59c-3.46-1.95-6-12.48-1.07-6.09,5.21,1.86,2,7.09,6.76,7.84-1.68,3.6,2.25,6.34,2,10.12,1.36,3.1-.25,7.25,1.18,9.25,2.16,2,3.16,7.71,6.22,7.54,1.4.66,1,4.9,2.91,6.17-.68,4.83,5,7.26,6.1,11.4-.87,6.5-2.67,19.18,8.56,18.35.12,1.24-1.93.24-2.48.1.17,3.82,3.84.33,3-1.69-1.91-5.78,2.9-1,5.4.57,2.9,1.43,1.86,7.13,6.28,4.06-.59,6.59,2.92,3.52,3.25,9.92,10.48,6.34,8,13.74-2.65,19.36-7.38,8.05-7.58-9.4-11.24-13.78-5.62-5.43-13.15-9.6-18.19-16.09-9.8-7.72-10.22-4-15.45-12.43,1.21.61-1.82-2.31-.79-.13-.48,1-1.83.33-2.84.28.94.92,1.28.79,0,.9-.82-2.63-4.54-9.54-4.82-8.89,1.38,2.38-.15,4.24-1,1.07.62-2-.77.18,0,1.39-.71.25-1.36-.71-1.33-1.39.56-1.54-1.53-1.29.05-2.36.81-3.16-1.24-4.14-.66-.42-1.74,3.12-.44-2.72,0-3.45a5.41,5.41,0,0,1,1-5.5c.93-2-1-4.83.87-6,1.15-.62-.93.08-.88-.39.94-1.39.39-4.35.21-6.25-.55.33-.12,4.22-.5,5.45-.66-3.51.47-13.07-4.77-14.52-2.19-7.89-3.32-3.86-6.38-6.12-4.07-2.46-14.64-8.32-13.66-14-1.82-.69-1.79,3.3-2.89.2,4.91-.63,1.57-9.85.82-1.82-3.19,2.73.24,3.39-5.22,1.29-2.91-.8-2.45,4.15-5.28,2.18-2-1.82-3-4.87-5.19-6.59-4.86-2.83-1.51,3.32-6.38-3.75-3-1.7-5-1.07-7.78-1.93-1.26-2.08-.85-6.26-3.92-8.21-1.11-.26-2.19-1.19-3.34-1.21-.81-.92-1.38-3.77-2.68-2.59-1.92-.95,1.47-.76-.67-2.16-2.4,1.73-.54-.86-3.36-.9-5.51-8,13.42,3,16.85-4,2.19,1.38-2.58,2.71,3.39,5.35a3.06,3.06,0,0,1,1.79,2.13c.51-.57,2.13-1.55,1-2.13-1-1.29,1.93,1.22,2.75.55,1.76-2-.15-2.44-1.58-2.45-.59.1-1.09-2.24-1.2-1.13,1.79,2.41-2,3-2.35.43-1.22-2.72,1.6-1.72.2-4.67-5.38,3.2-1.72-1.15.46-3.82,1-.06.29,1.42-.28,1.71-.06,1,1.14,3.86,1.32,1.26,0-.31-.17-1.21-.64-1-.07-1.61,1.57,1.54,1.89-.46-.7-.84-2.09-1.21-1.6-2.94.52-.75,1.94-3.56.17-2.86-1.93-1.29,2.87-5.22.84-6.64-.25-.8-.22-1.72-1.12-2.27-4.14-1.07,2.13-2.91-3.91-2.68.65-1.4-1.9-1.54-1.82-2.49-.4-.57-.12-2.07-1.09-1.6.07-3.72-5.35-3-5.11-6.19C54.17,95.15,41.73,90.52,33,83.53c.47-2.15.32-5.84-2.67-5.6.22-4.12,1.88-12.08-4.07-12.49,1.56-.55.94-2.45-.33-2.71,2.29,3.65-2-.43.23,3.88-3.76-6.49,1.61-14.72-8.63-16.83C21,39.71,8.38,36,9.8,30.59c1.18-1.52-1.58-2.13-2.07-3-.92-1.2,1.71.52,1.94.43C14,24.43,7,23.77,7,20.74-18.85-4.84,33.69,5.05,52,0,87.32,27.22,161.1,44.59,214.48,39.23c1.44-5.13-4.12-14.83,5-12.8,21,.05,37.47-4,51.21,13.42,10.88,12.41,22.94,15.65,29.14,31-.19,7.21,2.52,15,8.67,19.15,2.71-2,4.57,7.18,13.2,6.86,2.3,2.9,8.46,5.88,11.38,7,4.25,3.16,4.49-.2,7.49-2.78-.13-2,5-2.27,3-3.55.54-4.65,2.89-9,5.06-13.64,2.54-.19,4.12-1.33,6.78-1,.83-1,.85-3.27,2.47-3,3.79,2.34,14.92,4.4,18.33,1.94.93.4-.51,2.62,1.36,1,.79-.5,1,.9,1.85.31.47.86.92,3.53,2.74,3.49-.53,2.13-.26,1.56,1,.82,2.24-.39-.39,2.52,1.85,2.73,11.42,6.8,17,20.77,21.79,34,7.15,4.42,8.63,13.22,15.17,17.65.1,1.37,1.17-.17,1.66.33,3.21,2,1,2.75,2.76,4.37-.82,4.7,1.2,7.27.79,12.22,5.64,3.93,5.93,14,9.61,17,3,.73,7.63.74,8.38,3.66,2.63,1,5.31.67,8.08,2.1,1.12,4.1,7.38,3.52,10.37,3.71,5.78-1.5,10.17,4.25,13.72,5.67,1.23.34.42-1.35.6-1.93C479.85,188.22,480.82,187.4,483.14,187.52ZM262.77,310.36c.19,1.13-.82,1.3-1.34.37C261.68,310.3,262.41,310,262.77,310.36Zm-4.37-4c1.77-.21.53,2.4-.6,1.27C255.46,307.26,256.67,305.41,258.4,306.32Zm-2.62-2.95c.05,2.79-3.86-.52-3.35-2.27C252.75,299.79,256.14,302.36,255.78,303.37Zm-3.67-4.71c.23.53.24,1-.37,1.31A.8.8,0,0,1,252.11,298.66Zm-76.94-64.5c2.81,4.46-3.12,1.16-2-1.6C171.74,228.05,174.2,232.49,175.17,234.16Zm-41.87-4.08c2.63.85,2.7,1.4,0,.42C130.47,230.81,130.05,230.19,133.3,230.08Zm-4.65-1.84c4.19,7.4-2.68-.5-6-1.58C124.21,225,126.89,227.31,128.65,228.24Zm34.65-1.83c1.55,1.25-.08,4.12-1.15,2.05-.09-.59.9-.1-.3-.93-.3-.32.06-.85-.29-1-.14-.26.87-.56.28-.49-.3-.35-1.07-.83-.37-1.38S162.43,226.38,163.3,226.41Zm-9.36-15.48c.39-1,.08,1.38,2.34,1.42,1,.28,2.78,5.19,1,4.54C156.92,216.45,153.33,213.06,153.94,210.93ZM120.16,223.7c2.41,3.77-.59.49-1.77-1,3-.94-2-5.65-2-2.56-1.62-3.14,2.73-10.11,3.25-13.82C118.28,212.52,117.22,219.71,120.16,223.7ZM199.52,202c3,3-2.65-.78-3.94,0C194,201,199,201.57,199.52,202Zm-46.9-4.5c-1.94-.45-.16-5,0-2.2C152.6,195.81,153.26,197.4,152.62,197.54ZM145,186.63c1,1.22-.12.49-.75.05-.89,1.14-3.43,7.77-2.57,3.37C141.48,187.09,145.56,182,145,186.63Zm25.15-29.51c.78-.19,2.85,1.26,2.39,1.79C172,157.94,170.94,157.56,170.1,157.12Zm-13.57-6.3c-.09-2.38.22-3.33.25-.38C158.66,151.48,158.3,152.26,156.53,150.82ZM45.17,122.75c1.3,2.49.72,6.81,0,8.46-2.56.22-1-2.4-4-1.34.16-1.44,2.26-2.74,2.87-4.16C42.7,124.42,44.55,119.68,45.17,122.75ZM101,113.47c1-.28,4.76,3.37,2.67,2.53C103,114.73,101.8,114.65,101,113.47Zm6.8-1.33c1.2-.28,1.89-.41,1.63,1.08C108.64,114.46,107.64,113.27,107.79,112.14ZM116,111c-7.54.47-6.21-4.59-5-10.72C118.31,93.72,118.18,106,116,111Zm-20.94-8.22c2.58,5.53-15.16-10.33-10-13,4.58-1.31,3.25,6.4,6.11,7C96.29,94.89,92.89,100.67,95.06,102.74Zm-40-77c1.09,0,3.67,2.72,2.91,3.23C56.63,28.49,54.09,28.09,55.08,25.7Zm666,356.82c.79-2.31-.06,3-1,3.32C720.23,385.22,721.27,383.63,721.05,382.52Zm1.51-5.28a2.51,2.51,0,0,1,.15,2.81A10.3,10.3,0,0,0,722.56,377.24Zm-105.06-.86c1.9-1.31,2.7.52.51.86,1.26-1.69-2.17,1-2.66,1.77-2.09.62,1.38-1.66-2.36.39C608.74,380.14,616.72,376.8,617.5,376.38Zm117.68-46.89c.55.65-5.37,10.14-6.21,7.82C727.47,330.26,731.48,331.4,735.18,329.49Zm1.17-15.75c-.61-.41-1.47-1.6-1-2.31A5.84,5.84,0,0,0,736.35,313.74ZM470.72,298.38c2.07,1,.57,2-.29.25C469.62,296.53,470,295.73,470.72,298.38Zm-4-24.43c.31-1.37,1.11-1.86.46-.09C466.75,274.81,465.43,275.37,466.74,274ZM92.47,167a2.07,2.07,0,0,1,2.59,1.61C94.61,168.06,91.14,167.74,92.47,167ZM157,218c.6-.59.44,0,.6.46C157.39,218.27,157,218.29,157,218ZM31.64,214.68s0,0,0,0S31.61,214.69,31.64,214.68Zm122.2-9.4c1.1-.36.15.53,0,1.12C153.18,206.88,153.34,205.48,153.84,205.28Zm-33.75-4.79c.48.73,0,3.8-.3,4.91C118.81,206.62,120.5,201.52,120.09,200.49Zm25.4-5.83c.91-1.34,1.58,2.16.36,1C145.74,195.34,145.76,194.91,145.49,194.66Zm-4.83-3c.33.3.17.76.36,1.1C140.79,193.26,140.55,191.88,140.66,191.65ZM140,183.2c.67-1,.86.83.13.57C140,183.85,140.11,183.42,140,183.2Zm-19.66-29.83c-.68-1.33,1-.79,1.26.22C121.37,155.05,120.29,154.69,120.31,153.37Zm5-5.58c-1-.7,1.18-.94.79,0A3,3,0,0,1,125.28,147.79ZM44.94,135.1c.35.18,1.36.64,1,1.13-.51.3-.33-.65-.71-.83C44.76,135.45,44.19,134.86,44.94,135.1ZM137.5,133c-.36-.66.21-.49.37,0C138.29,133.62,137.64,133.44,137.5,133Zm-102-9.58c.1.42.61-.2.71.27C35.84,124,34.78,123.91,35.49,123.42Zm50.34-21.53c.59,0,.18,1,.54,1.48C86.51,104.14,85.4,102.09,85.83,101.89ZM64,77c.58-.13.34.42.58.74C63.89,78,64,77.49,64,77ZM22.86,62.74c.11,0,.2.15.25.23C23.14,63.4,22.26,62.94,22.86,62.74ZM-4.77,8c.31.1.33.63.35.91C-4.65,8.87-4.65,8.24-4.77,8Z" class="cls-1" transform="translate(4.77)"/></svg>